Karantina-Bold.ufo
<glyph name="exclam" format="2">
  <advance width="153"/>
  <unicode hex="0021"/>
  <note>
exclam
</note>
  <outline>
    <contour>
      <point x="20" y="171" type="line"/>
      <point x="133" y="171" type="line"/>
      <point x="133" y="600" type="line"/>
      <point x="20" y="600" type="line"/>
    </contour>
    <contour>
      <point x="20" y="0" type="line"/>
      <point x="133" y="0" type="line"/>
      <point x="133" y="136" type="line"/>
      <point x="20" y="136" type="line"/>
    </contour>
  </outline>
</glyph>
<glyph name="numbersign" format="2">
  <advance width="480"/>
  <unicode hex="0023"/>
  <note>
numbersign
</note>
  <outline>
    <contour>
      <point x="250" y="0" type="line"/>
      <point x="362" y="0" type="line"/>
      <point x="402" y="600" type="line"/>
      <point x="289" y="600" type="line"/>
    </contour>
    <contour>
      <point x="20" y="138" type="line"/>
      <point x="440" y="138" type="line"/>
      <point x="440" y="261" type="line"/>
      <point x="20" y="261" type="line"/>
    </contour>
    <contour>
      <point x="87" y="0" type="line"/>
      <point x="199" y="0" type="line"/>
      <point x="239" y="600" type="line"/>
      <point x="126" y="600" type="line"/>
    </contour>
    <contour>
      <point x="40" y="326" type="line"/>
      <point x="460" y="326" type="line"/>
      <point x="460" y="449" type="line"/>
      <point x="40" y="449" type="line"/>
    </contour>
  </outline>
</glyph>
<glyph name="dollar" format="2">
  <advance width="346"/>
  <unicode hex="0024"/>
  <note>
dollar
</note>
  <outline>
    <contour>
      <point x="126" y="561" type="line"/>
      <point x="221" y="561" type="line"/>
      <point x="221" y="640" type="line"/>
      <point x="126" y="640" type="line"/>
    </contour>
    <contour>
      <point x="126" y="-40" type="line"/>
      <point x="221" y="-40" type="line"/>
      <point x="221" y="43" type="line"/>
      <point x="126" y="43" type="line"/>
    </contour>
    <contour>
      <point x="326" y="598" type="line"/>
      <point x="114" y="598" type="line" smooth="yes"/>
      <point x="59" y="598"/>
      <point x="20" y="559"/>
      <point x="20" y="505" type="curve" smooth="yes"/>
      <point x="20" y="350" type="line" smooth="yes"/>
      <point x="20" y="294"/>
      <point x="55" y="257"/>
      <point x="114" y="257" type="curve" smooth="yes"/>
      <point x="198" y="257" type="line" smooth="yes"/>
      <point x="202" y="257"/>
      <point x="203" y="256"/>
      <point x="203" y="252" type="curve" smooth="yes"/>
      <point x="202" y="128" type="line" smooth="yes"/>
      <point x="202" y="124"/>
      <point x="201" y="123"/>
      <point x="197" y="123" type="curve" smooth="yes"/>
      <point x="139" y="123" type="line" smooth="yes"/>
      <point x="135" y="123"/>
      <point x="134" y="124"/>
      <point x="134" y="128" type="curve" smooth="yes"/>
      <point x="134" y="211" type="line"/>
      <point x="20" y="211" type="line"/>
      <point x="20" y="0" type="line"/>
      <point x="232" y="0" type="line" smooth="yes"/>
      <point x="287" y="0"/>
      <point x="326" y="39"/>
      <point x="326" y="93" type="curve" smooth="yes"/>
      <point x="326" y="287" type="line" smooth="yes"/>
      <point x="326" y="343"/>
      <point x="291" y="380"/>
      <point x="232" y="380" type="curve" smooth="yes"/>
      <point x="148" y="380" type="line" smooth="yes"/>
      <point x="144" y="380"/>
      <point x="143" y="381"/>
      <point x="143" y="385" type="curve" smooth="yes"/>
      <point x="143" y="470" type="line" smooth="yes"/>
      <point x="143" y="474"/>
      <point x="144" y="475"/>
      <point x="148" y="475" type="curve" smooth="yes"/>
      <point x="207" y="475" type="line" smooth="yes"/>
      <point x="211" y="475"/>
      <point x="212" y="474"/>
      <point x="212" y="470" type="curve" smooth="yes"/>
      <point x="212" y="418" type="line"/>
      <point x="326" y="418" type="line"/>
    </contour>
  </outline>
</glyph>
<glyph name="percent" format="2">
  <advance width="560"/>
  <unicode hex="0025"/>
  <note>
percent
</note>
  <outline>
    <contour>
      <point x="20" y="0" type="line"/>
      <point x="163" y="0" type="line"/>
      <point x="540" y="600" type="line"/>
      <point x="396" y="600" type="line"/>
    </contour>
    <contour>
      <point x="257" y="549" type="line" smooth="yes"/>
      <point x="257" y="582"/>
      <point x="217" y="605"/>
      <point x="163" y="605" type="curve" smooth="yes"/>
      <point x="114" y="605" type="line" smooth="yes"/>
      <point x="59" y="605"/>
      <point x="20" y="582"/>
      <point x="20" y="549" type="curve" smooth="yes"/>
      <point x="20" y="434" type="line" smooth="yes"/>
      <point x="20" y="401"/>
      <point x="59" y="378"/>
      <point x="114" y="378" type="curve" smooth="yes"/>
      <point x="163" y="378" type="line" smooth="yes"/>
      <point x="218" y="378"/>
      <point x="257" y="401"/>
      <point x="257" y="434" type="curve" smooth="yes"/>
    </contour>
    <contour>
      <point x="128" y="444" type="line" smooth="yes"/>
      <point x="124" y="444"/>
      <point x="123" y="445"/>
      <point x="123" y="449" type="curve" smooth="yes"/>
      <point x="123" y="534" type="line" smooth="yes"/>
      <point x="123" y="538"/>
      <point x="124" y="539"/>
      <point x="128" y="539" type="curve" smooth="yes"/>
      <point x="149" y="539" type="line" smooth="yes"/>
      <point x="153" y="539"/>
      <point x="154" y="538"/>
      <point x="154" y="534" type="curve" smooth="yes"/>
      <point x="154" y="449" type="line" smooth="yes"/>
      <point x="154" y="445"/>
      <point x="153" y="444"/>
      <point x="149" y="444" type="curve" smooth="yes"/>
    </contour>
    <contour>
      <point x="540" y="171" type="line" smooth="yes"/>
      <point x="540" y="204"/>
      <point x="500" y="227"/>
      <point x="446" y="227" type="curve" smooth="yes"/>
      <point x="397" y="227" type="line" smooth="yes"/>
      <point x="342" y="227"/>
      <point x="303" y="204"/>
      <point x="303" y="171" type="curve" smooth="yes"/>
      <point x="303" y="56" type="line" smooth="yes"/>
      <point x="303" y="23"/>
      <point x="342" y="0"/>
      <point x="397" y="0" type="curve" smooth="yes"/>
      <point x="446" y="0" type="line" smooth="yes"/>
      <point x="501" y="0"/>
      <point x="540" y="23"/>
      <point x="540" y="56" type="curve" smooth="yes"/>
    </contour>
    <contour>
      <point x="411" y="66" type="line" smooth="yes"/>
      <point x="407" y="66"/>
      <point x="406" y="67"/>
      <point x="406" y="71" type="curve" smooth="yes"/>
      <point x="406" y="156" type="line" smooth="yes"/>
      <point x="406" y="160"/>
      <point x="407" y="161"/>
      <point x="411" y="161" type="curve" smooth="yes"/>
      <point x="432" y="161" type="line" smooth="yes"/>
      <point x="436" y="161"/>
      <point x="437" y="160"/>
      <point x="437" y="156" type="curve" smooth="yes"/>
      <point x="437" y="71" type="line" smooth="yes"/>
      <point x="437" y="67"/>
      <point x="436" y="66"/>
      <point x="432" y="66" type="curve" smooth="yes"/>
    </contour>
  </outline>
</glyph>
<glyph name="ampersand" format="2">
  <advance width="393"/>
  <unicode hex="0026"/>
  <outline>
    <contour>
      <point x="343" y="331" type="line"/>
      <point x="229" y="331" type="line"/>
      <point x="179" y="128" type="line" smooth="yes"/>
      <point x="178" y="124"/>
      <point x="176" y="123"/>
      <point x="173" y="123" type="curve" smooth="yes"/>
      <point x="148" y="123" type="line" smooth="yes"/>
      <point x="144" y="123"/>
      <point x="143" y="124"/>
      <point x="143" y="128" type="curve" smooth="yes"/>
      <point x="143" y="237" type="line" smooth="yes"/>
      <point x="143" y="241"/>
      <point x="144" y="242"/>
      <point x="148" y="242" type="curve" smooth="yes"/>
      <point x="176" y="242" type="line"/>
      <point x="176" y="365" type="line"/>
      <point x="114" y="365" type="line" smooth="yes"/>
      <point x="58" y="365"/>
      <point x="20" y="328"/>
      <point x="20" y="272" type="curve" smooth="yes"/>
      <point x="20" y="93" type="line" smooth="yes"/>
      <point x="20" y="37"/>
      <point x="58" y="0"/>
      <point x="114" y="0" type="curve" smooth="yes"/>
      <point x="193" y="0" type="line" smooth="yes"/>
      <point x="249" y="0"/>
      <point x="286" y="37"/>
      <point x="286" y="93" type="curve"/>
    </contour>
    <contour>
      <point x="309" y="363" type="line"/>
      <point x="309" y="507" type="line" smooth="yes"/>
      <point x="309" y="563"/>
      <point x="271" y="600"/>
      <point x="215" y="600" type="curve" smooth="yes"/>
      <point x="128" y="600" type="line" smooth="yes"/>
      <point x="71" y="600"/>
      <point x="34" y="562"/>
      <point x="34" y="507" type="curve" smooth="yes"/>
      <point x="34" y="422" type="line" smooth="yes"/>
      <point x="34" y="405"/>
      <point x="36" y="396"/>
      <point x="46" y="379" type="curve" smooth="yes"/>
      <point x="117" y="265"/>
      <point x="189" y="126"/>
      <point x="260" y="0" type="curve"/>
      <point x="383" y="0" type="line"/>
      <point x="157" y="401" type="line"/>
      <point x="157" y="472" type="line" smooth="yes"/>
      <point x="157" y="476"/>
      <point x="158" y="477"/>
      <point x="162" y="477" type="curve" smooth="yes"/>
      <point x="191" y="477" type="line" smooth="yes"/>
      <point x="195" y="477"/>
      <point x="196" y="476"/>
      <point x="196" y="472" type="curve" smooth="yes"/>
      <point x="196" y="363" type="line"/>
    </contour>
  </outline>
</glyph>
<glyph name="quotesingle" format="2">
  <advance width="147"/>
  <unicode hex="0027"/>
  <note>
quotesingle
</note>
  <outline>
    <contour>
      <point x="0" y="467" type="line"/>
      <point x="110" y="467" type="line"/>
      <point x="147" y="657" type="line"/>
      <point x="37" y="657" type="line"/>
    </contour>
  </outline>
</glyph>
<glyph name="parenleft" format="2">
  <advance width="166"/>
  <unicode hex="0028"/>
  <note>
parenleft
</note>
  <outline>
    <contour>
      <point x="186" y="733" type="line"/>
      <point x="94" y="733" type="line" smooth="yes"/>
      <point x="39" y="733"/>
      <point x="0" y="694"/>
      <point x="0" y="640" type="curve" smooth="yes"/>
      <point x="0" y="297" type="line"/>
      <point x="133" y="297" type="line"/>
      <point x="133" y="635" type="line" smooth="yes"/>
      <point x="133" y="639"/>
      <point x="134" y="640"/>
      <point x="138" y="640" type="curve" smooth="yes"/>
      <point x="186" y="640" type="line"/>
    </contour>
    <contour>
      <point x="186" y="-37" type="line"/>
      <point x="138" y="-37" type="line" smooth="yes"/>
      <point x="134" y="-37"/>
      <point x="133" y="-36"/>
      <point x="133" y="-32" type="curve" smooth="yes"/>
      <point x="133" y="297" type="line"/>
      <point x="0" y="297" type="line"/>
      <point x="0" y="-37" type="line" smooth="yes"/>
      <point x="0" y="-91"/>
      <point x="39" y="-130"/>
      <point x="94" y="-130" type="curve" smooth="yes"/>
      <point x="186" y="-130" type="line"/>
    </contour>
  </outline>
</glyph>
<glyph name="parenright" format="2">
  <advance width="166"/>
  <unicode hex="0029"/>
  <note>
parenright
</note>
  <outline>
    <contour>
      <point x="-20" y="733" type="line"/>
      <point x="-20" y="640" type="line"/>
      <point x="28" y="640" type="line" smooth="yes"/>
      <point x="32" y="640"/>
      <point x="33" y="639"/>
      <point x="33" y="635" type="curve" smooth="yes"/>
      <point x="33" y="297" type="line"/>
      <point x="166" y="297" type="line"/>
      <point x="166" y="640" type="line" smooth="yes"/>
      <point x="166" y="694"/>
      <point x="127" y="733"/>
      <point x="72" y="733" type="curve" smooth="yes"/>
    </contour>
    <contour>
      <point x="-20" y="-37" type="line"/>
      <point x="-20" y="-130" type="line"/>
      <point x="72" y="-130" type="line" smooth="yes"/>
      <point x="127" y="-130"/>
      <point x="166" y="-91"/>
      <point x="166" y="-37" type="curve" smooth="yes"/>
      <point x="166" y="297" type="line"/>
      <point x="33" y="297" type="line"/>
      <point x="33" y="-32" type="line" smooth="yes"/>
      <point x="33" y="-36"/>
      <point x="32" y="-37"/>
      <point x="28" y="-37" type="curve" smooth="yes"/>
    </contour>
  </outline>
</glyph>
<glyph name="asterisk" format="2">
  <advance width="363"/>
  <unicode hex="002A"/>
  <note>
asterisk
</note>
  <outline>
    <contour>
      <point x="68" y="319" type="line"/>
      <point x="20" y="402" type="line"/>
      <point x="295" y="562" type="line"/>
      <point x="343" y="479" type="line"/>
    </contour>
    <contour>
      <point x="295" y="319" type="line"/>
      <point x="20" y="479" type="line"/>
      <point x="68" y="562" type="line"/>
      <point x="343" y="402" type="line"/>
    </contour>
    <contour>
      <point x="134" y="281" type="line"/>
      <point x="230" y="281" type="line"/>
      <point x="229" y="600" type="line"/>
      <point x="133" y="600" type="line"/>
    </contour>
  </outline>
</glyph>
<glyph name="plus" format="2">
  <advance width="320"/>
  <unicode hex="002B"/>
  <note>
plus
</note>
  <outline>
    <contour>
      <point x="98" y="161" type="line"/>
      <point x="222" y="161" type="line"/>
      <point x="222" y="441" type="line"/>
      <point x="98" y="441" type="line"/>
    </contour>
    <contour>
      <point x="20" y="241" type="line"/>
      <point x="300" y="241" type="line"/>
      <point x="300" y="362" type="line"/>
      <point x="20" y="362" type="line"/>
    </contour>
  </outline>
</glyph>
<glyph name="hyphen" format="2">
  <advance width="274"/>
  <unicode hex="002D"/>
  <note>
hyphen
</note>
  <outline>
    <contour>
      <point x="20" y="241" type="line"/>
      <point x="254" y="241" type="line"/>
      <point x="254" y="362" type="line"/>
      <point x="20" y="361" type="line"/>
    </contour>
  </outline>
</glyph>
<glyph name="period" format="2">
  <advance width="143"/>
  <unicode hex="002E"/>
  <note>
period
</note>
  <outline>
    <contour>
      <point x="20" y="0" type="line"/>
      <point x="123" y="0" type="line"/>
      <point x="123" y="103" type="line"/>
      <point x="20" y="103" type="line"/>
    </contour>
  </outline>
</glyph>
<glyph name="zero" format="2">
  <advance width="350"/>
  <unicode hex="0030"/>
  <note>
zero
</note>
  <outline>
    <contour>
      <point x="236" y="604" type="curve" smooth="yes"/>
      <point x="114" y="604" type="line" smooth="yes"/>
      <point x="58" y="604"/>
      <point x="20" y="567"/>
      <point x="20" y="511" type="curve" smooth="yes"/>
      <point x="20" y="93" type="line" smooth="yes"/>
      <point x="20" y="37"/>
      <point x="58" y="0"/>
      <point x="114" y="0" type="curve" smooth="yes"/>
      <point x="236" y="0" type="line" smooth="yes"/>
      <point x="292" y="0"/>
      <point x="330" y="37"/>
      <point x="330" y="93" type="curve" smooth="yes"/>
      <point x="330" y="511" type="line" smooth="yes"/>
      <point x="330" y="567"/>
      <point x="292" y="604"/>
    </contour>
    <contour>
      <point x="156" y="138" type="curve" smooth="yes"/>
      <point x="156" y="466" type="line" smooth="yes"/>
      <point x="156" y="470"/>
      <point x="157" y="471"/>
      <point x="161" y="471" type="curve" smooth="yes"/>
      <point x="189" y="471" type="line" smooth="yes"/>
      <point x="193" y="471"/>
      <point x="194" y="470"/>
      <point x="194" y="466" type="curve" smooth="yes"/>
      <point x="194" y="138" type="line" smooth="yes"/>
      <point x="194" y="134"/>
      <point x="193" y="133"/>
      <point x="189" y="133" type="curve" smooth="yes"/>
      <point x="161" y="133" type="line" smooth="yes"/>
      <point x="157" y="133"/>
      <point x="156" y="134"/>
    </contour>
  </outline>
</glyph>
<glyph name="one" format="2">
  <advance width="243"/>
  <unicode hex="0031"/>
  <note>
one
</note>
  <outline>
    <contour>
      <point x="55" y="0" type="line"/>
      <point x="191" y="0" type="line"/>
      <point x="191" y="600" type="line"/>
      <point x="55" y="600" type="line"/>
    </contour>
    <contour>
      <point x="24" y="0" type="line"/>
      <point x="223" y="0" type="line"/>
      <point x="223" y="133" type="line"/>
      <point x="24" y="133" type="line"/>
    </contour>
    <contour>
      <point x="20" y="467" type="line"/>
      <point x="191" y="467" type="line"/>
      <point x="191" y="600" type="line"/>
      <point x="42" y="600" type="line"/>
    </contour>
  </outline>
</glyph>
<glyph name="two" format="2">
  <advance width="307"/>
  <unicode hex="0032"/>
  <note>
two
</note>
  <outline>
    <contour>
      <point x="20" y="600" type="line"/>
      <point x="20" y="467" type="line"/>
      <point x="146" y="467" type="line" smooth="yes"/>
      <point x="150" y="467"/>
      <point x="151" y="466"/>
      <point x="151" y="462" type="curve" smooth="yes"/>
      <point x="151" y="398" type="line"/>
      <point x="287" y="398" type="line"/>
      <point x="287" y="507" type="line" smooth="yes"/>
      <point x="287" y="563"/>
      <point x="249" y="600"/>
      <point x="193" y="600" type="curve" smooth="yes"/>
    </contour>
    <contour>
      <point x="287" y="331" type="curve" smooth="yes"/>
      <point x="287" y="410" type="line"/>
      <point x="151" y="410" type="line"/>
      <point x="151" y="376" type="line" smooth="yes"/>
      <point x="151" y="372"/>
      <point x="150" y="371"/>
      <point x="146" y="371" type="curve" smooth="yes"/>
      <point x="130" y="371" type="line"/>
      <point x="130" y="238" type="line"/>
      <point x="193" y="238" type="line" smooth="yes"/>
      <point x="249" y="238"/>
      <point x="287" y="275"/>
    </contour>
    <contour>
      <point x="20" y="278" type="curve" smooth="yes"/>
      <point x="20" y="0" type="line"/>
      <point x="156" y="0" type="line"/>
      <point x="156" y="233" type="line" smooth="yes"/>
      <point x="156" y="237"/>
      <point x="157" y="238"/>
      <point x="161" y="238" type="curve" smooth="yes"/>
      <point x="171" y="238" type="line"/>
      <point x="171" y="371" type="line"/>
      <point x="114" y="371" type="line" smooth="yes"/>
      <point x="58" y="371"/>
      <point x="20" y="334"/>
    </contour>
    <contour>
      <point x="287" y="0" type="line"/>
      <point x="287" y="133" type="line"/>
      <point x="20" y="133" type="line"/>
      <point x="20" y="0" type="line"/>
    </contour>
  </outline>
</glyph>
<glyph name="three" format="2">
  <advance width="307"/>
  <unicode hex="0033"/>
  <note>
three
</note>
  <outline>
    <contour>
      <point x="287" y="372" type="line"/>
      <point x="50" y="372" type="line"/>
      <point x="50" y="239" type="line"/>
      <point x="287" y="239" type="line"/>
    </contour>
    <contour>
      <point x="20" y="600" type="line"/>
      <point x="20" y="467" type="line"/>
      <point x="146" y="467" type="line" smooth="yes"/>
      <point x="150" y="467"/>
      <point x="151" y="466"/>
      <point x="151" y="462" type="curve" smooth="yes"/>
      <point x="151" y="138" type="line" smooth="yes"/>
      <point x="151" y="134"/>
      <point x="150" y="133"/>
      <point x="146" y="133" type="curve" smooth="yes"/>
      <point x="20" y="133" type="line"/>
      <point x="20" y="0" type="line"/>
      <point x="193" y="0" type="line" smooth="yes"/>
      <point x="249" y="0"/>
      <point x="287" y="37"/>
      <point x="287" y="93" type="curve" smooth="yes"/>
      <point x="287" y="507" type="line" smooth="yes"/>
      <point x="287" y="563"/>
      <point x="249" y="600"/>
      <point x="193" y="600" type="curve" smooth="yes"/>
    </contour>
  </outline>
</glyph>
<glyph name="four" format="2">
  <advance width="383"/>
  <unicode hex="0034"/>
  <note>
four
</note>
  <outline>
    <contour>
      <point x="205" y="0" type="line"/>
      <point x="341" y="0" type="line"/>
      <point x="341" y="600" type="line"/>
      <point x="205" y="600" type="line"/>
    </contour>
    <contour>
      <point x="373" y="133" type="line"/>
      <point x="174" y="133" type="line"/>
      <point x="174" y="0" type="line"/>
      <point x="373" y="0" type="line"/>
    </contour>
    <contour>
      <point x="373" y="174" type="line"/>
      <point x="373" y="307" type="line"/>
      <point x="60" y="307" type="line"/>
      <point x="145" y="225" type="line"/>
      <point x="188" y="600" type="line"/>
      <point x="52" y="600" type="line"/>
      <point x="12" y="307" type="line" smooth="yes"/>
      <point x="1" y="227"/>
      <point x="46" y="174"/>
      <point x="124" y="174" type="curve" smooth="yes"/>
    </contour>
  </outline>
</glyph>
<glyph name="five" format="2">
  <advance width="307"/>
  <unicode hex="0035"/>
  <note>
five
</note>
  <outline>
    <contour>
      <point x="287" y="600" type="line"/>
      <point x="20" y="600" type="line"/>
      <point x="20" y="467" type="line"/>
      <point x="287" y="467" type="line"/>
    </contour>
    <contour>
      <point x="20" y="0" type="line"/>
      <point x="193" y="0" type="line" smooth="yes"/>
      <point x="249" y="0"/>
      <point x="287" y="37"/>
      <point x="287" y="93" type="curve" smooth="yes"/>
      <point x="287" y="202" type="line"/>
      <point x="151" y="202" type="line"/>
      <point x="151" y="138" type="line" smooth="yes"/>
      <point x="151" y="134"/>
      <point x="150" y="133"/>
      <point x="146" y="133" type="curve" smooth="yes"/>
      <point x="20" y="133" type="line"/>
    </contour>
    <contour>
      <point x="156" y="600" type="line"/>
      <point x="20" y="600" type="line"/>
      <point x="20" y="260" type="line"/>
      <point x="156" y="260" type="line"/>
    </contour>
    <contour>
      <point x="20" y="393" type="line"/>
      <point x="20" y="260" type="line"/>
      <point x="146" y="260" type="line" smooth="yes"/>
      <point x="150" y="260"/>
      <point x="151" y="259"/>
      <point x="151" y="255" type="curve" smooth="yes"/>
      <point x="151" y="179" type="line"/>
      <point x="287" y="179" type="line"/>
      <point x="287" y="300" type="line" smooth="yes"/>
      <point x="287" y="356"/>
      <point x="249" y="393"/>
      <point x="193" y="393" type="curve" smooth="yes"/>
    </contour>
  </outline>
</glyph>
<glyph name="six" format="2">
  <advance width="340"/>
  <unicode hex="0036"/>
  <note>
six
</note>
  <outline>
    <contour>
      <point x="207" y="0" type="line"/>
      <point x="207" y="133" type="line"/>
      <point x="161" y="133" type="line" smooth="yes"/>
      <point x="157" y="133"/>
      <point x="156" y="134"/>
      <point x="156" y="138" type="curve" smooth="yes"/>
      <point x="156" y="462" type="line" smooth="yes"/>
      <point x="156" y="466"/>
      <point x="157" y="467"/>
      <point x="161" y="467" type="curve" smooth="yes"/>
      <point x="207" y="467" type="line"/>
      <point x="207" y="600" type="line"/>
      <point x="114" y="600" type="line" smooth="yes"/>
      <point x="58" y="600"/>
      <point x="20" y="563"/>
      <point x="20" y="507" type="curve" smooth="yes"/>
      <point x="20" y="93" type="line" smooth="yes"/>
      <point x="20" y="37"/>
      <point x="59" y="0"/>
      <point x="114" y="0" type="curve" smooth="yes"/>
    </contour>
    <contour>
      <point x="163" y="0" type="line"/>
      <point x="236" y="0" type="line" smooth="yes"/>
      <point x="292" y="0"/>
      <point x="330" y="37"/>
      <point x="330" y="93" type="curve" smooth="yes"/>
      <point x="330" y="242" type="line"/>
      <point x="194" y="242" type="line"/>
      <point x="194" y="138" type="line" smooth="yes"/>
      <point x="194" y="134"/>
      <point x="193" y="133"/>
      <point x="189" y="133" type="curve" smooth="yes"/>
      <point x="163" y="133" type="line"/>
    </contour>
    <contour>
      <point x="175" y="407" type="line"/>
      <point x="175" y="274" type="line"/>
      <point x="189" y="274" type="line" smooth="yes"/>
      <point x="193" y="274"/>
      <point x="194" y="273"/>
      <point x="194" y="269" type="curve" smooth="yes"/>
      <point x="194" y="215" type="line"/>
      <point x="330" y="215" type="line"/>
      <point x="330" y="314" type="line" smooth="yes"/>
      <point x="330" y="371"/>
      <point x="292" y="407"/>
      <point x="236" y="407" type="curve" smooth="yes"/>
    </contour>
    <contour>
      <point x="330" y="424" type="line"/>
      <point x="330" y="507" type="line" smooth="yes"/>
      <point x="330" y="564"/>
      <point x="292" y="600"/>
      <point x="236" y="600" type="curve" smooth="yes"/>
      <point x="170" y="600" type="line"/>
      <point x="170" y="467" type="line"/>
      <point x="189" y="467" type="line" smooth="yes"/>
      <point x="193" y="467"/>
      <point x="194" y="466"/>
      <point x="194" y="462" type="curve" smooth="yes"/>
      <point x="194" y="439" type="line"/>
    </contour>
    <contour>
      <point x="175" y="407" type="line"/>
      <point x="114" y="407" type="line" smooth="yes"/>
      <point x="58" y="407"/>
      <point x="20" y="371"/>
      <point x="20" y="314" type="curve" smooth="yes"/>
      <point x="20" y="215" type="line"/>
      <point x="156" y="215" type="line"/>
      <point x="156" y="269" type="line" smooth="yes"/>
      <point x="156" y="273"/>
      <point x="157" y="274"/>
      <point x="161" y="274" type="curve" smooth="yes"/>
      <point x="175" y="274" type="line"/>
    </contour>
  </outline>
</glyph>
<glyph name="seven" format="2">
  <advance width="319"/>
  <unicode hex="0037"/>
  <note>
seven
</note>
  <outline>
    <contour>
      <point x="309" y="372" type="line"/>
      <point x="42" y="372" type="line"/>
      <point x="42" y="239" type="line"/>
      <point x="309" y="239" type="line"/>
    </contour>
    <contour>
      <point x="10" y="600" type="line"/>
      <point x="10" y="467" type="line"/>
      <point x="243" y="467" type="line"/>
      <point x="168" y="549" type="line"/>
      <point x="93" y="0" type="line"/>
      <point x="219" y="0" type="line"/>
      <point x="291" y="467" type="line" smooth="yes"/>
      <point x="303" y="547"/>
      <point x="258" y="600"/>
      <point x="179" y="600" type="curve" smooth="yes"/>
    </contour>
  </outline>
</glyph>
<glyph name="eight" format="2">
  <advance width="350"/>
  <unicode hex="0038"/>
  <note>
eight
</note>
  <outline>
    <contour>
      <point x="236" y="415" type="curve" smooth="yes"/>
      <point x="114" y="415" type="line" smooth="yes"/>
      <point x="58" y="415"/>
      <point x="20" y="378"/>
      <point x="20" y="322" type="curve" smooth="yes"/>
      <point x="20" y="93" type="line" smooth="yes"/>
      <point x="20" y="37"/>
      <point x="58" y="0"/>
      <point x="114" y="0" type="curve" smooth="yes"/>
      <point x="236" y="0" type="line" smooth="yes"/>
      <point x="292" y="0"/>
      <point x="330" y="37"/>
      <point x="330" y="93" type="curve" smooth="yes"/>
      <point x="330" y="322" type="line" smooth="yes"/>
      <point x="330" y="378"/>
      <point x="292" y="415"/>
    </contour>
    <contour>
      <point x="156" y="138" type="curve" smooth="yes"/>
      <point x="156" y="274" type="line" smooth="yes"/>
      <point x="156" y="278"/>
      <point x="157" y="279"/>
      <point x="161" y="279" type="curve" smooth="yes"/>
      <point x="189" y="279" type="line" smooth="yes"/>
      <point x="193" y="279"/>
      <point x="194" y="278"/>
      <point x="194" y="274" type="curve" smooth="yes"/>
      <point x="194" y="138" type="line" smooth="yes"/>
      <point x="194" y="134"/>
      <point x="193" y="133"/>
      <point x="189" y="133" type="curve" smooth="yes"/>
      <point x="161" y="133" type="line" smooth="yes"/>
      <point x="157" y="133"/>
      <point x="156" y="134"/>
    </contour>
    <contour>
      <point x="236" y="608" type="curve" smooth="yes"/>
      <point x="114" y="608" type="line" smooth="yes"/>
      <point x="58" y="608"/>
      <point x="20" y="571"/>
      <point x="20" y="515" type="curve" smooth="yes"/>
      <point x="20" y="375" type="line" smooth="yes"/>
      <point x="20" y="319"/>
      <point x="58" y="282"/>
      <point x="114" y="282" type="curve" smooth="yes"/>
      <point x="236" y="282" type="line" smooth="yes"/>
      <point x="292" y="282"/>
      <point x="330" y="319"/>
      <point x="330" y="375" type="curve" smooth="yes"/>
      <point x="330" y="515" type="line" smooth="yes"/>
      <point x="330" y="571"/>
      <point x="292" y="608"/>
    </contour>
    <contour>
      <point x="156" y="420" type="curve" smooth="yes"/>
      <point x="156" y="467" type="line" smooth="yes"/>
      <point x="156" y="471"/>
      <point x="157" y="472"/>
      <point x="161" y="472" type="curve" smooth="yes"/>
      <point x="189" y="472" type="line" smooth="yes"/>
      <point x="193" y="472"/>
      <point x="194" y="471"/>
      <point x="194" y="467" type="curve" smooth="yes"/>
      <point x="194" y="420" type="line" smooth="yes"/>
      <point x="194" y="416"/>
      <point x="193" y="415"/>
      <point x="189" y="415" type="curve" smooth="yes"/>
      <point x="161" y="415" type="line" smooth="yes"/>
      <point x="157" y="415"/>
      <point x="156" y="416"/>
    </contour>
  </outline>
</glyph>
<glyph name="nine" format="2">
  <advance width="350"/>
  <unicode hex="0039"/>
  <note>
nine
</note>
  <outline>
    <contour>
      <point x="143" y="600" type="line"/>
      <point x="143" y="467" type="line"/>
      <point x="189" y="467" type="line" smooth="yes"/>
      <point x="193" y="467"/>
      <point x="194" y="466"/>
      <point x="194" y="462" type="curve" smooth="yes"/>
      <point x="194" y="138" type="line" smooth="yes"/>
      <point x="194" y="134"/>
      <point x="193" y="133"/>
      <point x="189" y="133" type="curve" smooth="yes"/>
      <point x="143" y="133" type="line"/>
      <point x="143" y="0" type="line"/>
      <point x="236" y="0" type="line" smooth="yes"/>
      <point x="292" y="0"/>
      <point x="330" y="37"/>
      <point x="330" y="93" type="curve" smooth="yes"/>
      <point x="330" y="507" type="line" smooth="yes"/>
      <point x="330" y="563"/>
      <point x="291" y="600"/>
      <point x="236" y="600" type="curve" smooth="yes"/>
    </contour>
    <contour>
      <point x="187" y="600" type="line"/>
      <point x="114" y="600" type="line" smooth="yes"/>
      <point x="58" y="600"/>
      <point x="20" y="563"/>
      <point x="20" y="507" type="curve" smooth="yes"/>
      <point x="20" y="358" type="line"/>
      <point x="156" y="358" type="line"/>
      <point x="156" y="462" type="line" smooth="yes"/>
      <point x="156" y="466"/>
      <point x="157" y="467"/>
      <point x="161" y="467" type="curve" smooth="yes"/>
      <point x="187" y="467" type="line"/>
    </contour>
    <contour>
      <point x="175" y="193" type="line"/>
      <point x="175" y="326" type="line"/>
      <point x="161" y="326" type="line" smooth="yes"/>
      <point x="157" y="326"/>
      <point x="156" y="327"/>
      <point x="156" y="331" type="curve" smooth="yes"/>
      <point x="156" y="385" type="line"/>
      <point x="20" y="385" type="line"/>
      <point x="20" y="286" type="line" smooth="yes"/>
      <point x="20" y="229"/>
      <point x="58" y="193"/>
      <point x="114" y="193" type="curve" smooth="yes"/>
    </contour>
    <contour>
      <point x="20" y="176" type="line"/>
      <point x="20" y="93" type="line" smooth="yes"/>
      <point x="20" y="36"/>
      <point x="58" y="0"/>
      <point x="114" y="0" type="curve" smooth="yes"/>
      <point x="180" y="0" type="line"/>
      <point x="180" y="133" type="line"/>
      <point x="161" y="133" type="line" smooth="yes"/>
      <point x="157" y="133"/>
      <point x="156" y="134"/>
      <point x="156" y="138" type="curve" smooth="yes"/>
      <point x="156" y="161" type="line"/>
    </contour>
    <contour>
      <point x="175" y="193" type="line"/>
      <point x="236" y="193" type="line" smooth="yes"/>
      <point x="292" y="193"/>
      <point x="330" y="229"/>
      <point x="330" y="286" type="curve" smooth="yes"/>
      <point x="330" y="385" type="line"/>
      <point x="194" y="385" type="line"/>
      <point x="194" y="331" type="line" smooth="yes"/>
      <point x="194" y="327"/>
      <point x="193" y="326"/>
      <point x="189" y="326" type="curve" smooth="yes"/>
      <point x="175" y="326" type="line"/>
    </contour>
  </outline>
</glyph>
<glyph name="colon" format="2">
  <advance width="153"/>
  <unicode hex="003A"/>
  <note>
colon
</note>
  <outline>
    <contour>
      <point x="20" y="331" type="line"/>
      <point x="133" y="331" type="line"/>
      <point x="133" y="467" type="line"/>
      <point x="20" y="467" type="line"/>
    </contour>
    <contour>
      <point x="20" y="133" type="line"/>
      <point x="133" y="133" type="line"/>
      <point x="133" y="269" type="line"/>
      <point x="20" y="269" type="line"/>
    </contour>
  </outline>
</glyph>
<glyph name="semicolon" format="2">
  <advance width="185"/>
  <unicode hex="003B"/>
  <note>
semicolon
</note>
  <outline>
    <contour>
      <point x="20" y="113" type="line"/>
      <point x="133" y="113" type="line"/>
      <point x="165" y="269" type="line"/>
      <point x="52" y="269" type="line"/>
    </contour>
    <contour>
      <point x="52" y="331" type="line"/>
      <point x="165" y="331" type="line"/>
      <point x="165" y="467" type="line"/>
      <point x="52" y="467" type="line"/>
    </contour>
  </outline>
</glyph>
<glyph name="less" format="2">
  <advance width="280"/>
  <unicode hex="003C"/>
  <outline>
    <contour>
      <point x="260" y="140" type="line"/>
      <point x="260" y="260" type="line"/>
      <point x="85" y="335" type="line"/>
      <point x="85" y="263" type="line"/>
      <point x="260" y="338" type="line"/>
      <point x="260" y="458" type="line"/>
      <point x="20" y="355" type="line"/>
      <point x="20" y="243" type="line"/>
    </contour>
  </outline>
</glyph>
<glyph name="equal" format="2">
  <advance width="280"/>
  <unicode hex="003D"/>
  <note>
equal
</note>
  <outline>
    <contour>
      <point x="20" y="314" type="line"/>
      <point x="260" y="314" type="line"/>
      <point x="260" y="435" type="line"/>
      <point x="20" y="434" type="line"/>
    </contour>
    <contour>
      <point x="20" y="169" type="line"/>
      <point x="260" y="169" type="line"/>
      <point x="260" y="290" type="line"/>
      <point x="20" y="289" type="line"/>
    </contour>
  </outline>
</glyph>
<glyph name="greater" format="2">
  <advance width="280"/>
  <unicode hex="003E"/>
  <note>
greater
</note>
  <outline>
    <contour>
      <point x="20" y="140" type="line"/>
      <point x="260" y="243" type="line"/>
      <point x="260" y="355" type="line"/>
      <point x="20" y="458" type="line"/>
      <point x="20" y="338" type="line"/>
      <point x="195" y="263" type="line"/>
      <point x="195" y="335" type="line"/>
      <point x="20" y="260" type="line"/>
    </contour>
  </outline>
</glyph>
<glyph name="question" format="2">
  <advance width="307"/>
  <unicode hex="003F"/>
  <note>
question
</note>
  <outline>
    <contour>
      <point x="134" y="400" type="line"/>
      <point x="134" y="549" type="line"/>
      <point x="92" y="467" type="line"/>
      <point x="168" y="467" type="line" smooth="yes"/>
      <point x="172" y="467"/>
      <point x="173" y="466"/>
      <point x="173" y="462" type="curve" smooth="yes"/>
      <point x="173" y="370" type="line"/>
      <point x="287" y="370" type="line"/>
      <point x="287" y="507" type="line" smooth="yes"/>
      <point x="287" y="561"/>
      <point x="247" y="600"/>
      <point x="193" y="600" type="curve" smooth="yes"/>
      <point x="20" y="600" type="line"/>
      <point x="20" y="400" type="line"/>
    </contour>
    <contour>
      <point x="86" y="0" type="line"/>
      <point x="199" y="0" type="line"/>
      <point x="199" y="136" type="line"/>
      <point x="86" y="136" type="line"/>
    </contour>
    <contour>
      <point x="287" y="351" type="curve" smooth="yes"/>
      <point x="287" y="407" type="line"/>
      <point x="173" y="407" type="line"/>
      <point x="173" y="356" type="line" smooth="yes"/>
      <point x="173" y="352"/>
      <point x="172" y="351"/>
      <point x="168" y="351" type="curve" smooth="yes"/>
      <point x="105" y="351"/>
      <point x="86" y="310"/>
      <point x="86" y="258" type="curve" smooth="yes"/>
      <point x="86" y="171" type="line"/>
      <point x="199" y="171" type="line"/>
      <point x="199" y="254" type="line" smooth="yes"/>
      <point x="199" y="258"/>
      <point x="200" y="260"/>
      <point x="204" y="260" type="curve" smooth="yes"/>
      <point x="247" y="261"/>
      <point x="287" y="302"/>
    </contour>
  </outline>
</glyph>
<glyph name="at" format="2">
  <advance width="660"/>
  <unicode hex="0040"/>
  <note>
at
</note>
  <outline>
    <contour>
      <point x="517" y="357" type="line"/>
      <point x="639" y="357" type="line"/>
      <point x="640" y="536" type="line" smooth="yes"/>
      <point x="640" y="592"/>
      <point x="602" y="629"/>
      <point x="546" y="629" type="curve" smooth="yes"/>
      <point x="114" y="629" type="line" smooth="yes"/>
      <point x="58" y="629"/>
      <point x="20" y="592"/>
      <point x="20" y="536" type="curve" smooth="yes"/>
      <point x="20" y="80" type="line" smooth="yes"/>
      <point x="20" y="32"/>
      <point x="58" y="0"/>
      <point x="114" y="0" type="curve" smooth="yes"/>
      <point x="545" y="0" type="line" smooth="yes"/>
      <point x="601" y="0"/>
      <point x="639" y="37"/>
      <point x="639" y="93" type="curve" smooth="yes"/>
      <point x="639" y="167" type="line"/>
      <point x="517" y="167" type="line"/>
      <point x="517" y="128" type="line" smooth="yes"/>
      <point x="517" y="124"/>
      <point x="516" y="123"/>
      <point x="512" y="123" type="curve" smooth="yes"/>
      <point x="149" y="123" type="line" smooth="yes"/>
      <point x="145" y="123"/>
      <point x="144" y="124"/>
      <point x="144" y="128" type="curve" smooth="yes"/>
      <point x="144" y="501" type="line" smooth="yes"/>
      <point x="144" y="505"/>
      <point x="145" y="506"/>
      <point x="149" y="506" type="curve" smooth="yes"/>
      <point x="511" y="506" type="line" smooth="yes"/>
      <point x="515" y="506"/>
      <point x="516" y="505"/>
      <point x="516" y="501" type="curve" smooth="yes"/>
    </contour>
    <contour>
      <point x="435" y="315" type="line"/>
      <point x="525" y="182" type="line"/>
      <point x="527" y="182" type="line" smooth="yes"/>
      <point x="607" y="182"/>
      <point x="640" y="234"/>
      <point x="640" y="325" type="curve" smooth="yes"/>
      <point x="640" y="379" type="line"/>
      <point x="517" y="379" type="line"/>
      <point x="517" y="320" type="line" smooth="yes"/>
      <point x="517" y="316"/>
      <point x="516" y="315"/>
      <point x="512" y="315" type="curve" smooth="yes"/>
    </contour>
    <contour>
      <point x="420" y="342" type="line"/>
      <point x="420" y="431"/>
      <point x="377" y="475"/>
      <point x="309" y="475" type="curve" smooth="yes"/>
      <point x="204" y="475"/>
      <point x="164" y="434"/>
      <point x="164" y="332" type="curve" smooth="yes"/>
      <point x="164" y="294" type="line"/>
      <point x="300" y="294" type="line"/>
      <point x="300" y="337" type="line" smooth="yes"/>
      <point x="300" y="341"/>
      <point x="301" y="342"/>
      <point x="305" y="342" type="curve" smooth="yes"/>
    </contour>
    <contour>
      <point x="164" y="296" type="line"/>
      <point x="164" y="288" type="line" smooth="yes"/>
      <point x="164" y="186"/>
      <point x="205" y="145"/>
      <point x="308" y="145" type="curve" smooth="yes"/>
      <point x="324" y="145" type="line"/>
      <point x="414" y="278" type="line"/>
      <point x="305" y="278" type="line" smooth="yes"/>
      <point x="301" y="278"/>
      <point x="300" y="279"/>
      <point x="300" y="283" type="curve" smooth="yes"/>
      <point x="300" y="296" type="line"/>
    </contour>
    <contour>
      <point x="360" y="475" type="line"/>
      <point x="360" y="145" type="line"/>
      <point x="496" y="145" type="line"/>
      <point x="496" y="475" type="line"/>
    </contour>
  </outline>
</glyph>
<glyph name="A" format="2">
  <advance width="452"/>
  <unicode hex="0041"/>
  <anchor x="226" y="0" name="bottom"/>
  <anchor x="407" y="10" name="ogonek"/>
  <anchor x="226" y="700" name="top"/>
  <outline>
    <contour>
      <point x="297" y="0" type="line"/>
      <point x="432" y="0" type="line"/>
      <point x="329" y="700" type="line"/>
      <point x="194" y="700" type="line"/>
    </contour>
    <contour>
      <point x="111" y="100" type="line"/>
      <point x="340" y="100" type="line"/>
      <point x="340" y="233" type="line"/>
      <point x="111" y="233" type="line"/>
    </contour>
    <contour>
      <point x="20" y="0" type="line"/>
      <point x="155" y="0" type="line"/>
      <point x="258" y="700" type="line"/>
      <point x="123" y="700" type="line"/>
    </contour>
    <contour>
      <point x="82" y="567" type="line"/>
      <point x="328" y="567" type="line"/>
      <point x="328" y="700" type="line"/>
      <point x="96" y="700" type="line"/>
    </contour>
  </outline>
</glyph>
<glyph name="B" format="2">
  <advance width="399"/>
  <unicode hex="0042"/>
  <anchor x="200" y="0" name="bottom"/>
  <anchor x="200" y="700" name="top"/>
  <outline>
    <contour>
      <point x="34" y="0" type="line"/>
      <point x="170" y="0" type="line"/>
      <point x="170" y="700" type="line"/>
      <point x="34" y="700" type="line"/>
    </contour>
    <contour>
      <point x="34" y="0" type="line"/>
      <point x="240" y="0" type="line" smooth="yes"/>
      <point x="343" y="0"/>
      <point x="384" y="41"/>
      <point x="384" y="143" type="curve" smooth="yes"/>
      <point x="384" y="173" type="line"/>
      <point x="248" y="173" type="line"/>
      <point x="248" y="138" type="line" smooth="yes"/>
      <point x="248" y="134"/>
      <point x="247" y="133"/>
      <point x="243" y="133" type="curve" smooth="yes"/>
      <point x="34" y="133" type="line"/>
    </contour>
    <contour>
      <point x="248" y="150" type="line"/>
      <point x="384" y="150" type="line"/>
      <point x="384" y="273" type="line" smooth="yes"/>
      <point x="384" y="375"/>
      <point x="343" y="416"/>
      <point x="240" y="416" type="curve"/>
      <point x="34" y="416" type="line"/>
      <point x="34" y="283" type="line"/>
      <point x="243" y="283" type="line" smooth="yes"/>
      <point x="247" y="283"/>
      <point x="248" y="282"/>
      <point x="248" y="278" type="curve" smooth="yes"/>
    </contour>
    <contour>
      <point x="34" y="283" type="line"/>
      <point x="220" y="283" type="line" smooth="yes"/>
      <point x="323" y="283"/>
      <point x="364" y="324"/>
      <point x="364" y="426" type="curve" smooth="yes"/>
      <point x="364" y="509" type="line"/>
      <point x="228" y="509" type="line"/>
      <point x="228" y="421" type="line" smooth="yes"/>
      <point x="228" y="417"/>
      <point x="227" y="416"/>
      <point x="223" y="416" type="curve" smooth="yes"/>
      <point x="34" y="416" type="line"/>
    </contour>
    <contour>
      <point x="15" y="567" type="line"/>
      <point x="223" y="567" type="line" smooth="yes"/>
      <point x="227" y="567"/>
      <point x="228" y="566"/>
      <point x="228" y="562" type="curve" smooth="yes"/>
      <point x="228" y="475" type="line"/>
      <point x="364" y="475" type="line"/>
      <point x="364" y="557" type="line" smooth="yes"/>
      <point x="364" y="658"/>
      <point x="323" y="700"/>
      <point x="220" y="700" type="curve" smooth="yes"/>
      <point x="29" y="700" type="line"/>
    </contour>
  </outline>
</glyph>
<glyph name="C" format="2">
  <advance width="372"/>
  <unicode hex="0043"/>
  <anchor x="186" y="0" name="bottom"/>
  <anchor x="186" y="708" name="top"/>
  <outline>
    <contour>
      <point x="352" y="290" type="line"/>
      <point x="216" y="290" type="line"/>
      <point x="216" y="130" type="line" smooth="yes"/>
      <point x="216" y="126"/>
      <point x="215" y="125"/>
      <point x="211" y="125" type="curve" smooth="yes"/>
      <point x="186" y="125" type="line"/>
      <point x="186" y="-8" type="line"/>
      <point x="208" y="-8" type="line" smooth="yes"/>
      <point x="311" y="-8"/>
      <point x="352" y="33"/>
      <point x="352" y="135" type="curve" smooth="yes"/>
    </contour>
    <contour>
      <point x="20" y="400" type="line"/>
      <point x="156" y="400" type="line"/>
      <point x="156" y="570" type="line" smooth="yes"/>
      <point x="156" y="574"/>
      <point x="157" y="575"/>
      <point x="161" y="575" type="curve" smooth="yes"/>
      <point x="186" y="575" type="line"/>
      <point x="186" y="708" type="line"/>
      <point x="164" y="708" type="line" smooth="yes"/>
      <point x="61" y="708"/>
      <point x="20" y="667"/>
      <point x="20" y="565" type="curve" smooth="yes"/>
    </contour>
    <contour>
      <point x="20" y="400" type="line"/>
      <point x="20" y="135" type="line" smooth="yes"/>
      <point x="20" y="33"/>
      <point x="61" y="-8"/>
      <point x="164" y="-8" type="curve" smooth="yes"/>
      <point x="186" y="-8" type="line"/>
      <point x="186" y="125" type="line"/>
      <point x="161" y="125" type="line" smooth="yes"/>
      <point x="157" y="125"/>
      <point x="156" y="126"/>
      <point x="156" y="130" type="curve" smooth="yes"/>
      <point x="156" y="400" type="line"/>
    </contour>
    <contour>
      <point x="352" y="400" type="line"/>
      <point x="352" y="565" type="line" smooth="yes"/>
      <point x="352" y="667"/>
      <point x="311" y="708"/>
      <point x="208" y="708" type="curve" smooth="yes"/>
      <point x="186" y="708" type="line"/>
      <point x="186" y="575" type="line"/>
      <point x="211" y="575" type="line" smooth="yes"/>
      <point x="215" y="575"/>
      <point x="216" y="574"/>
      <point x="216" y="570" type="curve" smooth="yes"/>
      <point x="216" y="415" type="line"/>
    </contour>
  </outline>
</glyph>
<glyph name="D" format="2">
  <advance width="391"/>
  <unicode hex="0044"/>
  <outline>
    <contour>
      <point x="227" y="700" type="curve" smooth="yes"/>
      <point x="34" y="700" type="line"/>
      <point x="20" y="567" type="line"/>
      <point x="230" y="567" type="line" smooth="yes"/>
      <point x="234" y="567"/>
      <point x="235" y="566"/>
      <point x="235" y="562" type="curve" smooth="yes"/>
      <point x="235" y="339" type="line"/>
      <point x="371" y="339" type="line"/>
      <point x="371" y="557" type="line" smooth="yes"/>
      <point x="371" y="659"/>
      <point x="330" y="700"/>
    </contour>
    <contour>
      <point x="371" y="143" type="curve" smooth="yes"/>
      <point x="371" y="347" type="line"/>
      <point x="235" y="347" type="line"/>
      <point x="235" y="138" type="line" smooth="yes"/>
      <point x="235" y="134"/>
      <point x="234" y="133"/>
      <point x="230" y="133" type="curve" smooth="yes"/>
      <point x="39" y="133" type="line"/>
      <point x="39" y="0" type="line"/>
      <point x="227" y="0" type="line" smooth="yes"/>
      <point x="330" y="0"/>
      <point x="371" y="41"/>
    </contour>
    <contour>
      <point x="39" y="700" type="line"/>
      <point x="39" y="0" type="line"/>
      <point x="175" y="0" type="line"/>
      <point x="175" y="700" type="line"/>
    </contour>
  </outline>
</glyph>
<glyph name="E" format="2">
  <advance width="340"/>
  <unicode hex="0045"/>
  <anchor x="170" y="0" name="bottom"/>
  <anchor x="312" y="0" name="ogonek"/>
  <anchor x="175" y="700" name="top"/>
  <anchor x="20" y="700" name="topleft"/>
  <outline>
    <contour>
      <point x="39" y="0" type="line"/>
      <point x="175" y="0" type="line"/>
      <point x="175" y="700" type="line"/>
      <point x="39" y="700" type="line"/>
    </contour>
    <contour>
      <point x="39" y="0" type="line"/>
      <point x="312" y="0" type="line"/>
      <point x="320" y="133" type="line"/>
      <point x="39" y="133" type="line"/>
    </contour>
    <contour>
      <point x="39" y="284" type="line"/>
      <point x="290" y="284" type="line"/>
      <point x="298" y="417" type="line"/>
      <point x="39" y="417" type="line"/>
    </contour>
    <contour>
      <point x="20" y="567" type="line"/>
      <point x="175" y="567" type="line"/>
      <point x="175" y="700" type="line"/>
      <point x="34" y="700" type="line"/>
    </contour>
    <contour>
      <point x="39" y="567" type="line"/>
      <point x="312" y="567" type="line"/>
      <point x="320" y="700" type="line"/>
      <point x="39" y="700" type="line"/>
    </contour>
  </outline>
</glyph>
<glyph name="F" format="2">
  <advance width="340"/>
  <unicode hex="0046"/>
  <outline>
    <contour>
      <point x="39" y="0" type="line"/>
      <point x="175" y="0" type="line"/>
      <point x="175" y="700" type="line"/>
      <point x="39" y="700" type="line"/>
    </contour>
    <contour>
      <point x="39" y="284" type="line"/>
      <point x="290" y="284" type="line"/>
      <point x="298" y="417" type="line"/>
      <point x="39" y="417" type="line"/>
    </contour>
    <contour>
      <point x="20" y="567" type="line"/>
      <point x="175" y="567" type="line"/>
      <point x="175" y="700" type="line"/>
      <point x="34" y="700" type="line"/>
    </contour>
    <contour>
      <point x="39" y="567" type="line"/>
      <point x="312" y="567" type="line"/>
      <point x="320" y="700" type="line"/>
      <point x="39" y="700" type="line"/>
    </contour>
  </outline>
</glyph>
<glyph name="G" format="2">
  <advance width="382"/>
  <unicode hex="0047"/>
  <outline>
    <contour>
      <point x="362" y="139" type="curve" smooth="yes"/>
      <point x="362" y="416" type="line"/>
      <point x="226" y="416" type="line"/>
      <point x="226" y="134" type="line" smooth="yes"/>
      <point x="226" y="130"/>
      <point x="225" y="129"/>
      <point x="221" y="129" type="curve" smooth="yes"/>
      <point x="161" y="129" type="line" smooth="yes"/>
      <point x="157" y="129"/>
      <point x="156" y="130"/>
      <point x="156" y="134" type="curve" smooth="yes"/>
      <point x="156" y="400" type="line"/>
      <point x="20" y="400" type="line"/>
      <point x="20" y="139" type="line" smooth="yes"/>
      <point x="20" y="37"/>
      <point x="61" y="-4"/>
      <point x="164" y="-4" type="curve" smooth="yes"/>
      <point x="218" y="-4" type="line" smooth="yes"/>
      <point x="321" y="-4"/>
      <point x="362" y="37"/>
    </contour>
    <contour>
      <point x="20" y="561" type="curve" smooth="yes"/>
      <point x="20" y="400" type="line"/>
      <point x="156" y="400" type="line"/>
      <point x="156" y="566" type="line" smooth="yes"/>
      <point x="156" y="570"/>
      <point x="157" y="571"/>
      <point x="161" y="571" type="curve" smooth="yes"/>
      <point x="191" y="571" type="line"/>
      <point x="191" y="704" type="line"/>
      <point x="164" y="704" type="line" smooth="yes"/>
      <point x="61" y="704"/>
      <point x="20" y="663"/>
    </contour>
    <contour>
      <point x="362" y="462" type="line"/>
      <point x="362" y="561" type="line" smooth="yes"/>
      <point x="362" y="663"/>
      <point x="321" y="704"/>
      <point x="218" y="704" type="curve" smooth="yes"/>
      <point x="191" y="704" type="line"/>
      <point x="191" y="571" type="line"/>
      <point x="221" y="571" type="line" smooth="yes"/>
      <point x="225" y="571"/>
      <point x="226" y="570"/>
      <point x="226" y="566" type="curve" smooth="yes"/>
      <point x="226" y="477" type="line"/>
    </contour>
    <contour>
      <point x="186" y="283" type="line"/>
      <point x="362" y="283" type="line"/>
      <point x="362" y="416" type="line"/>
      <point x="194" y="416" type="line"/>
    </contour>
  </outline>
</glyph>
<glyph name="H" format="2">
  <advance width="386"/>
  <unicode hex="0048"/>
  <outline>
    <contour>
      <point x="230" y="0" type="line"/>
      <point x="366" y="0" type="line"/>
      <point x="366" y="700" type="line"/>
      <point x="230" y="700" type="line"/>
    </contour>
    <contour>
      <point x="39" y="0" type="line"/>
      <point x="175" y="0" type="line"/>
      <point x="175" y="700" type="line"/>
      <point x="39" y="700" type="line"/>
    </contour>
    <contour>
      <point x="39" y="263" type="line"/>
      <point x="366" y="263" type="line"/>
      <point x="366" y="396" type="line"/>
      <point x="39" y="396" type="line"/>
    </contour>
    <contour>
      <point x="20" y="567" type="line"/>
      <point x="175" y="567" type="line"/>
      <point x="175" y="700" type="line"/>
      <point x="34" y="700" type="line"/>
    </contour>
  </outline>
</glyph>
<glyph name="I" format="2">
  <advance width="195"/>
  <unicode hex="0049"/>
  <anchor x="98" y="0" name="bottom"/>
  <anchor x="176" y="10" name="ogonek"/>
  <anchor x="98" y="700" name="top"/>
  <anchor x="34" y="700" name="topleft"/>
  <outline>
    <contour>
      <point x="39" y="0" type="line"/>
      <point x="39" y="700" type="line"/>
      <point x="175" y="700" type="line"/>
      <point x="175" y="0" type="line"/>
    </contour>
    <contour>
      <point x="20" y="567" type="line"/>
      <point x="39" y="567" type="line"/>
      <point x="39" y="700" type="line"/>
      <point x="34" y="700" type="line"/>
    </contour>
  </outline>
</glyph>
<glyph name="J" format="2">
  <advance width="342"/>
  <unicode hex="004A"/>
  <anchor x="171" y="0" name="bottom"/>
  <anchor x="171" y="700" name="top"/>
  <outline>
    <contour>
      <point x="96" y="567" type="line"/>
      <point x="322" y="567" type="line"/>
      <point x="322" y="700" type="line"/>
      <point x="110" y="700" type="line"/>
    </contour>
    <contour>
      <point x="322" y="139" type="curve" smooth="yes"/>
      <point x="322" y="700" type="line"/>
      <point x="186" y="700" type="line"/>
      <point x="186" y="134" type="line" smooth="yes"/>
      <point x="186" y="130"/>
      <point x="185" y="129"/>
      <point x="181" y="129" type="curve" smooth="yes"/>
      <point x="161" y="129" type="line" smooth="yes"/>
      <point x="157" y="129"/>
      <point x="156" y="130"/>
      <point x="156" y="134" type="curve" smooth="yes"/>
      <point x="156" y="290" type="line"/>
      <point x="20" y="290" type="line"/>
      <point x="20" y="139" type="line" smooth="yes"/>
      <point x="20" y="37"/>
      <point x="61" y="-4"/>
      <point x="164" y="-4" type="curve" smooth="yes"/>
      <point x="178" y="-4" type="line" smooth="yes"/>
      <point x="281" y="-4"/>
      <point x="322" y="37"/>
    </contour>
  </outline>
</glyph>
<glyph name="K" format="2">
  <advance width="414"/>
  <unicode hex="004B"/>
  <outline>
    <contour>
      <point x="124" y="408" type="line"/>
      <point x="254" y="408" type="line"/>
      <point x="391" y="700" type="line"/>
      <point x="261" y="700" type="line"/>
    </contour>
    <contour>
      <point x="39" y="0" type="line"/>
      <point x="175" y="0" type="line"/>
      <point x="175" y="700" type="line"/>
      <point x="39" y="700" type="line"/>
    </contour>
    <contour>
      <point x="279" y="0" type="line"/>
      <point x="409" y="0" type="line"/>
      <point x="254" y="408" type="line"/>
      <point x="124" y="408" type="line"/>
    </contour>
    <contour>
      <point x="20" y="567" type="line"/>
      <point x="175" y="567" type="line"/>
      <point x="175" y="700" type="line"/>
      <point x="34" y="700" type="line"/>
    </contour>
  </outline>
</glyph>
<glyph name="L" format="2">
  <advance width="386"/>
  <unicode hex="004C"/>
  <outline>
    <contour>
      <point x="39" y="-1" type="line"/>
      <point x="39" y="699" type="line"/>
      <point x="175" y="699" type="line"/>
      <point x="175" y="-1" type="line"/>
    </contour>
    <contour>
      <point x="175" y="0" type="line"/>
      <point x="358" y="0" type="line"/>
      <point x="366" y="133" type="line"/>
      <point x="175" y="133" type="line"/>
    </contour>
    <contour>
      <point x="20" y="566" type="line"/>
      <point x="39" y="566" type="line"/>
      <point x="39" y="699" type="line"/>
      <point x="34" y="699" type="line"/>
    </contour>
  </outline>
</glyph>
<glyph name="M" format="2">
  <advance width="532"/>
  <unicode hex="004D"/>
  <anchor x="266" y="0" name="bottom"/>
  <anchor x="266" y="700" name="top"/>
  <outline>
    <contour>
      <point x="324" y="700" type="line"/>
      <point x="270" y="284" type="line"/>
      <point x="280" y="284" type="line"/>
      <point x="227" y="701" type="line"/>
      <point x="128" y="700" type="line"/>
      <point x="228" y="100" type="line"/>
      <point x="323" y="100" type="line"/>
      <point x="423" y="700" type="line"/>
    </contour>
    <contour>
      <point x="39" y="0" type="line"/>
      <point x="175" y="0" type="line"/>
      <point x="175" y="700" type="line"/>
      <point x="39" y="700" type="line"/>
    </contour>
    <contour>
      <point x="20" y="567" type="line"/>
      <point x="175" y="567" type="line"/>
      <point x="175" y="700" type="line"/>
      <point x="34" y="700" type="line"/>
    </contour>
    <contour>
      <point x="376" y="0" type="line"/>
      <point x="512" y="0" type="line"/>
      <point x="512" y="700" type="line"/>
      <point x="376" y="700" type="line"/>
    </contour>
  </outline>
</glyph>
<glyph name="N" format="2">
  <advance width="445"/>
  <unicode hex="004E"/>
  <anchor x="223" y="0" name="bottom"/>
  <anchor x="223" y="700" name="top"/>
  <outline>
    <contour>
      <point x="289" y="0" type="line"/>
      <point x="385" y="0" type="line"/>
      <point x="175" y="700" type="line"/>
      <point x="79" y="700" type="line"/>
    </contour>
    <contour>
      <point x="39" y="0" type="line"/>
      <point x="175" y="0" type="line"/>
      <point x="175" y="700" type="line"/>
      <point x="39" y="700" type="line"/>
    </contour>
    <contour>
      <point x="289" y="0" type="line"/>
      <point x="425" y="0" type="line"/>
      <point x="425" y="700" type="line"/>
      <point x="289" y="700" type="line"/>
    </contour>
    <contour>
      <point x="20" y="567" type="line"/>
      <point x="175" y="567" type="line"/>
      <point x="175" y="700" type="line"/>
      <point x="34" y="700" type="line"/>
    </contour>
  </outline>
</glyph>
<glyph name="O" format="2">
  <advance width="372"/>
  <unicode hex="004F"/>
  <anchor x="186" y="-4" name="bottom"/>
  <anchor x="186" y="350" name="center"/>
  <anchor x="335" y="0" name="ogonek"/>
  <anchor x="186" y="704" name="top"/>
  <anchor x="20" y="700" name="topleft"/>
  <anchor x="352" y="700" name="topright"/>
  <outline>
    <contour>
      <point x="352" y="139" type="curve" smooth="yes"/>
      <point x="352" y="408" type="line"/>
      <point x="216" y="408" type="line"/>
      <point x="216" y="134" type="line" smooth="yes"/>
      <point x="216" y="130"/>
      <point x="215" y="129"/>
      <point x="211" y="129" type="curve" smooth="yes"/>
      <point x="161" y="129" type="line" smooth="yes"/>
      <point x="157" y="129"/>
      <point x="156" y="130"/>
      <point x="156" y="134" type="curve" smooth="yes"/>
      <point x="156" y="408" type="line"/>
      <point x="20" y="408" type="line"/>
      <point x="20" y="139" type="line" smooth="yes"/>
      <point x="20" y="37"/>
      <point x="61" y="-4"/>
      <point x="164" y="-4" type="curve" smooth="yes"/>
      <point x="208" y="-4" type="line" smooth="yes"/>
      <point x="311" y="-4"/>
      <point x="352" y="37"/>
    </contour>
    <contour>
      <point x="352" y="561" type="line" smooth="yes"/>
      <point x="352" y="663"/>
      <point x="311" y="704"/>
      <point x="208" y="704" type="curve" smooth="yes"/>
      <point x="164" y="704" type="line" smooth="yes"/>
      <point x="61" y="704"/>
      <point x="20" y="663"/>
      <point x="20" y="561" type="curve" smooth="yes"/>
      <point x="20" y="292" type="line"/>
      <point x="156" y="292" type="line"/>
      <point x="156" y="566" type="line" smooth="yes"/>
      <point x="156" y="570"/>
      <point x="157" y="571"/>
      <point x="161" y="571" type="curve" smooth="yes"/>
      <point x="211" y="571" type="line" smooth="yes"/>
      <point x="215" y="571"/>
      <point x="216" y="570"/>
      <point x="216" y="566" type="curve" smooth="yes"/>
      <point x="216" y="292" type="line"/>
      <point x="352" y="292" type="line"/>
    </contour>
  </outline>
</glyph>
<glyph name="P" format="2">
  <advance width="381"/>
  <unicode hex="0050"/>
  <outline>
    <contour>
      <point x="39" y="0" type="line"/>
      <point x="175" y="0" type="line"/>
      <point x="175" y="700" type="line"/>
      <point x="39" y="700" type="line"/>
    </contour>
    <contour>
      <point x="20" y="567" type="line"/>
      <point x="220" y="567" type="line" smooth="yes"/>
      <point x="224" y="567"/>
      <point x="225" y="566"/>
      <point x="225" y="562" type="curve" smooth="yes"/>
      <point x="225" y="444" type="line"/>
      <point x="361" y="444" type="line"/>
      <point x="361" y="557" type="line" smooth="yes"/>
      <point x="361" y="658"/>
      <point x="320" y="700"/>
      <point x="217" y="700" type="curve" smooth="yes"/>
      <point x="34" y="700" type="line"/>
    </contour>
    <contour>
      <point x="39" y="186" type="line"/>
      <point x="217" y="186" type="line" smooth="yes"/>
      <point x="320" y="186"/>
      <point x="361" y="227"/>
      <point x="361" y="329" type="curve" smooth="yes"/>
      <point x="361" y="444" type="line"/>
      <point x="225" y="444" type="line"/>
      <point x="225" y="324" type="line" smooth="yes"/>
      <point x="225" y="320"/>
      <point x="224" y="319"/>
      <point x="220" y="319" type="curve" smooth="yes"/>
      <point x="39" y="319" type="line"/>
    </contour>
  </outline>
</glyph>
<glyph name="Q" format="2">
  <advance width="372"/>
  <unicode hex="0051"/>
  <outline>
    <contour>
      <point x="343" y="-12" type="line"/>
      <point x="209" y="-12" type="line"/>
      <point x="251" y="-46" type="line"/>
      <point x="251" y="53" type="line"/>
      <point x="148" y="53" type="line"/>
      <point x="148" y="-3" type="line" smooth="yes"/>
      <point x="148" y="-59"/>
      <point x="195" y="-108"/>
      <point x="251" y="-108" type="curve" smooth="yes"/>
      <point x="323" y="-108" type="line"/>
    </contour>
    <contour>
      <point x="352" y="139" type="curve" smooth="yes"/>
      <point x="352" y="408" type="line"/>
      <point x="216" y="408" type="line"/>
      <point x="216" y="134" type="line" smooth="yes"/>
      <point x="216" y="130"/>
      <point x="215" y="129"/>
      <point x="211" y="129" type="curve" smooth="yes"/>
      <point x="161" y="129" type="line" smooth="yes"/>
      <point x="157" y="129"/>
      <point x="156" y="130"/>
      <point x="156" y="134" type="curve" smooth="yes"/>
      <point x="156" y="408" type="line"/>
      <point x="20" y="408" type="line"/>
      <point x="20" y="139" type="line" smooth="yes"/>
      <point x="20" y="37"/>
      <point x="61" y="-4"/>
      <point x="164" y="-4" type="curve" smooth="yes"/>
      <point x="208" y="-4" type="line" smooth="yes"/>
      <point x="311" y="-4"/>
      <point x="352" y="37"/>
    </contour>
    <contour>
      <point x="352" y="561" type="line" smooth="yes"/>
      <point x="352" y="663"/>
      <point x="311" y="704"/>
      <point x="208" y="704" type="curve" smooth="yes"/>
      <point x="164" y="704" type="line" smooth="yes"/>
      <point x="61" y="704"/>
      <point x="20" y="663"/>
      <point x="20" y="561" type="curve" smooth="yes"/>
      <point x="20" y="292" type="line"/>
      <point x="156" y="292" type="line"/>
      <point x="156" y="566" type="line" smooth="yes"/>
      <point x="156" y="570"/>
      <point x="157" y="571"/>
      <point x="161" y="571" type="curve" smooth="yes"/>
      <point x="211" y="571" type="line" smooth="yes"/>
      <point x="215" y="571"/>
      <point x="216" y="570"/>
      <point x="216" y="566" type="curve" smooth="yes"/>
      <point x="216" y="292" type="line"/>
      <point x="352" y="292" type="line"/>
    </contour>
  </outline>
</glyph>
<glyph name="R" format="2">
  <advance width="400"/>
  <unicode hex="0052"/>
  <outline>
    <contour>
      <point x="34" y="0" type="line"/>
      <point x="170" y="0" type="line"/>
      <point x="170" y="700" type="line"/>
      <point x="34" y="700" type="line"/>
    </contour>
    <contour>
      <point x="249" y="0" type="line"/>
      <point x="385" y="0" type="line"/>
      <point x="303" y="288" type="line"/>
      <point x="168" y="288" type="line"/>
    </contour>
    <contour>
      <point x="15" y="567" type="line"/>
      <point x="215" y="567" type="line" smooth="yes"/>
      <point x="219" y="567"/>
      <point x="220" y="566"/>
      <point x="220" y="562" type="curve" smooth="yes"/>
      <point x="220" y="444" type="line"/>
      <point x="356" y="444" type="line"/>
      <point x="356" y="557" type="line" smooth="yes"/>
      <point x="356" y="658"/>
      <point x="315" y="700"/>
      <point x="212" y="700" type="curve" smooth="yes"/>
      <point x="29" y="700" type="line"/>
    </contour>
    <contour>
      <point x="34" y="186" type="line"/>
      <point x="212" y="186" type="line" smooth="yes"/>
      <point x="315" y="186"/>
      <point x="356" y="227"/>
      <point x="356" y="329" type="curve" smooth="yes"/>
      <point x="356" y="444" type="line"/>
      <point x="220" y="444" type="line"/>
      <point x="220" y="324" type="line" smooth="yes"/>
      <point x="220" y="320"/>
      <point x="219" y="319"/>
      <point x="215" y="319" type="curve" smooth="yes"/>
      <point x="34" y="319" type="line"/>
    </contour>
  </outline>
</glyph>
<glyph name="S" format="2">
  <advance width="342"/>
  <unicode hex="0053"/>
  <outline>
    <contour>
      <point x="151" y="220" type="line"/>
      <point x="15" y="220" type="line"/>
      <point x="15" y="135" type="line" smooth="yes"/>
      <point x="15" y="33"/>
      <point x="56" y="-8"/>
      <point x="159" y="-8" type="curve" smooth="yes"/>
      <point x="197" y="-8" type="line"/>
      <point x="195" y="125" type="line"/>
      <point x="156" y="125" type="line" smooth="yes"/>
      <point x="152" y="125"/>
      <point x="151" y="126"/>
      <point x="151" y="130" type="curve" smooth="yes"/>
    </contour>
    <contour>
      <point x="327" y="440" type="line"/>
      <point x="327" y="565" type="line" smooth="yes"/>
      <point x="327" y="667"/>
      <point x="286" y="708"/>
      <point x="183" y="708" type="curve" smooth="yes"/>
      <point x="155" y="708" type="line"/>
      <point x="156" y="575" type="line"/>
      <point x="186" y="575" type="line" smooth="yes"/>
      <point x="190" y="575"/>
      <point x="191" y="574"/>
      <point x="191" y="570" type="curve" smooth="yes"/>
      <point x="191" y="455" type="line"/>
    </contour>
    <contour>
      <point x="15" y="402" type="line" smooth="yes"/>
      <point x="15" y="353"/>
      <point x="27" y="334"/>
      <point x="78" y="312" type="curve" smooth="yes"/>
      <point x="193" y="262" type="line"/>
      <point x="191" y="265" type="line"/>
      <point x="190" y="130" type="line" smooth="yes"/>
      <point x="190" y="126"/>
      <point x="189" y="125"/>
      <point x="185" y="125" type="curve" smooth="yes"/>
      <point x="159" y="125" type="line"/>
      <point x="157" y="-8" type="line"/>
      <point x="183" y="-8" type="line" smooth="yes"/>
      <point x="286" y="-8"/>
      <point x="327" y="33"/>
      <point x="327" y="135" type="curve" smooth="yes"/>
      <point x="327" y="284" type="line" smooth="yes"/>
      <point x="327" y="333"/>
      <point x="315" y="352"/>
      <point x="264" y="374" type="curve" smooth="yes"/>
      <point x="149" y="424" type="line"/>
      <point x="151" y="421" type="line"/>
      <point x="151" y="570" type="line" smooth="yes"/>
      <point x="151" y="574"/>
      <point x="152" y="575"/>
      <point x="156" y="575" type="curve" smooth="yes"/>
      <point x="197" y="575" type="line"/>
      <point x="197" y="708" type="line"/>
      <point x="159" y="708" type="line" smooth="yes"/>
      <point x="56" y="708"/>
      <point x="15" y="667"/>
      <point x="15" y="565" type="curve" smooth="yes"/>
    </contour>
  </outline>
</glyph>
<glyph name="T" format="2">
  <advance width="361"/>
  <unicode hex="0054"/>
  <outline>
    <contour>
      <point x="113" y="0" type="line"/>
      <point x="249" y="0" type="line"/>
      <point x="249" y="700" type="line"/>
      <point x="113" y="700" type="line"/>
    </contour>
    <contour>
      <point x="20" y="567" type="line"/>
      <point x="341" y="567" type="line"/>
      <point x="341" y="700" type="line"/>
      <point x="20" y="700" type="line"/>
    </contour>
  </outline>
</glyph>
<glyph name="U" format="2">
  <advance width="391"/>
  <unicode hex="0055"/>
  <anchor x="216" y="-8" name="bottom"/>
  <anchor x="352" y="1" name="ogonek"/>
  <anchor x="196" y="700" name="top"/>
  <anchor x="371" y="700" name="topright"/>
  <outline>
    <contour>
      <point x="15" y="567" type="line"/>
      <point x="170" y="567" type="line"/>
      <point x="170" y="700" type="line"/>
      <point x="29" y="700" type="line"/>
    </contour>
    <contour>
      <point x="376" y="139" type="curve" smooth="yes"/>
      <point x="376" y="700" type="line"/>
      <point x="240" y="700" type="line"/>
      <point x="240" y="134" type="line" smooth="yes"/>
      <point x="240" y="130"/>
      <point x="239" y="129"/>
      <point x="235" y="129" type="curve" smooth="yes"/>
      <point x="175" y="129" type="line" smooth="yes"/>
      <point x="171" y="129"/>
      <point x="170" y="130"/>
      <point x="170" y="134" type="curve" smooth="yes"/>
      <point x="170" y="700" type="line"/>
      <point x="34" y="700" type="line"/>
      <point x="34" y="139" type="line" smooth="yes"/>
      <point x="34" y="37"/>
      <point x="75" y="-4"/>
      <point x="178" y="-4" type="curve" smooth="yes"/>
      <point x="232" y="-4" type="line" smooth="yes"/>
      <point x="335" y="-4"/>
      <point x="376" y="37"/>
    </contour>
  </outline>
</glyph>
<glyph name="V" format="2">
  <advance width="452"/>
  <unicode hex="0056"/>
  <outline>
    <contour>
      <point x="123" y="0" type="line"/>
      <point x="329" y="0" type="line"/>
      <point x="432" y="700" type="line"/>
      <point x="297" y="700" type="line"/>
      <point x="208" y="76" type="line"/>
      <point x="244" y="76" type="line"/>
      <point x="155" y="700" type="line"/>
      <point x="20" y="700" type="line"/>
    </contour>
  </outline>
</glyph>
<glyph name="W" format="2">
  <advance width="521"/>
  <unicode hex="0057"/>
  <anchor x="261" y="0" name="bottom"/>
  <anchor x="261" y="700" name="top"/>
  <outline>
    <contour>
      <point x="312" y="600" type="line"/>
      <point x="217" y="600" type="line"/>
      <point x="117" y="0" type="line"/>
      <point x="216" y="0" type="line"/>
      <point x="269" y="416" type="line"/>
      <point x="259" y="416" type="line"/>
      <point x="313" y="0" type="line"/>
      <point x="412" y="0" type="line"/>
    </contour>
    <contour>
      <point x="25" y="0" type="line"/>
      <point x="161" y="0" type="line"/>
      <point x="161" y="700" type="line"/>
      <point x="25" y="700" type="line"/>
    </contour>
    <contour>
      <point x="365" y="0" type="line"/>
      <point x="501" y="0" type="line"/>
      <point x="501" y="700" type="line"/>
      <point x="365" y="700" type="line"/>
    </contour>
  </outline>
</glyph>
<glyph name="X" format="2">
  <advance width="409"/>
  <unicode hex="0058"/>
  <outline>
    <contour>
      <point x="137" y="269" type="line"/>
      <point x="272" y="269" type="line"/>
      <point x="389" y="700" type="line"/>
      <point x="254" y="700" type="line"/>
      <point x="190" y="391" type="line"/>
      <point x="220" y="391" type="line"/>
      <point x="155" y="700" type="line"/>
      <point x="20" y="700" type="line"/>
    </contour>
    <contour>
      <point x="20" y="0" type="line"/>
      <point x="155" y="0" type="line"/>
      <point x="220" y="309" type="line"/>
      <point x="190" y="309" type="line"/>
      <point x="254" y="0" type="line"/>
      <point x="389" y="0" type="line"/>
      <point x="272" y="431" type="line"/>
      <point x="137" y="431" type="line"/>
    </contour>
  </outline>
</glyph>
<glyph name="Y" format="2">
  <advance width="409"/>
  <unicode hex="0059"/>
  <outline>
    <contour>
      <point x="220" y="391" type="line"/>
      <point x="155" y="700" type="line"/>
      <point x="20" y="700" type="line"/>
      <point x="137" y="269" type="line"/>
      <point x="272" y="269" type="line"/>
      <point x="389" y="700" type="line"/>
      <point x="254" y="700" type="line"/>
      <point x="190" y="391" type="line"/>
    </contour>
    <contour>
      <point x="137" y="0" type="line"/>
      <point x="272" y="0" type="line"/>
      <point x="272" y="269" type="line"/>
      <point x="137" y="269" type="line"/>
    </contour>
  </outline>
</glyph>
<glyph name="Z" format="2">
  <advance width="340"/>
  <unicode hex="005A"/>
  <anchor x="170" y="-5" name="bottom"/>
  <anchor x="170" y="350" name="center"/>
  <anchor x="170" y="700" name="top"/>
  <outline>
    <contour>
      <point x="320" y="128" type="line"/>
      <point x="161" y="128" type="line" smooth="yes"/>
      <point x="158" y="128"/>
      <point x="157" y="129"/>
      <point x="158" y="133" type="curve" smooth="yes"/>
      <point x="311" y="542" type="line" smooth="yes"/>
      <point x="318" y="562"/>
      <point x="320" y="583.225"/>
      <point x="320" y="599" type="curve" smooth="yes"/>
      <point x="320" y="700" type="line"/>
      <point x="20" y="700" type="line"/>
      <point x="20" y="567" type="line"/>
      <point x="179" y="567" type="line" smooth="yes"/>
      <point x="183" y="567"/>
      <point x="184" y="566"/>
      <point x="182" y="562" type="curve" smooth="yes"/>
      <point x="29" y="153" type="line" smooth="yes"/>
      <point x="22" y="133"/>
      <point x="20" y="111.775"/>
      <point x="20" y="96" type="curve" smooth="yes"/>
      <point x="20" y="-5" type="line"/>
      <point x="320" y="-5" type="line"/>
    </contour>
  </outline>
</glyph>
<glyph name="bracketleft" format="2">
  <advance width="177"/>
  <unicode hex="005B"/>
  <note>
bracketleft
</note>
  <outline>
    <contour>
      <point x="11" y="-130" type="line"/>
      <point x="177" y="-130" type="line"/>
      <point x="177" y="-47" type="line"/>
      <point x="82" y="-47" type="line"/>
      <point x="124" y="-79" type="line"/>
      <point x="124" y="682" type="line"/>
      <point x="82" y="650" type="line"/>
      <point x="177" y="650" type="line"/>
      <point x="177" y="733" type="line"/>
      <point x="11" y="733" type="line"/>
    </contour>
  </outline>
</glyph>
<glyph name="backslash" format="2">
  <advance width="260"/>
  <unicode hex="005C"/>
  <note>
backslash
</note>
  <outline>
    <contour>
      <point x="117" y="-37" type="line"/>
      <point x="240" y="-37" type="line"/>
      <point x="133" y="640" type="line"/>
      <point x="10" y="640" type="line"/>
    </contour>
  </outline>
</glyph>
<glyph name="bracketright" format="2">
  <advance width="177"/>
  <unicode hex="005D"/>
  <note>
bracketright
</note>
  <outline>
    <contour>
      <point x="0" y="-130" type="line"/>
      <point x="166" y="-130" type="line"/>
      <point x="166" y="733" type="line"/>
      <point x="0" y="733" type="line"/>
      <point x="0" y="650" type="line"/>
      <point x="95" y="650" type="line"/>
      <point x="53" y="682" type="line"/>
      <point x="53" y="-79" type="line"/>
      <point x="95" y="-47" type="line"/>
      <point x="0" y="-47" type="line"/>
    </contour>
  </outline>
</glyph>
<glyph name="asciicircum" format="2">
  <advance width="385"/>
  <unicode hex="005E"/>
  <note>
asciicircum
</note>
  <outline>
    <contour>
      <point x="240" y="424" type="line"/>
      <point x="365" y="424" type="line"/>
      <point x="255" y="600" type="line"/>
      <point x="130" y="600" type="line"/>
    </contour>
    <contour>
      <point x="20" y="424" type="line"/>
      <point x="145" y="424" type="line"/>
      <point x="255" y="600" type="line"/>
      <point x="130" y="600" type="line"/>
    </contour>
  </outline>
</glyph>
<glyph name="underscore" format="2">
  <advance width="320"/>
  <unicode hex="005F"/>
  <note>
underscore
</note>
  <outline>
    <contour>
      <point x="20" y="0" type="line"/>
      <point x="300" y="0" type="line"/>
      <point x="300" y="103" type="line"/>
      <point x="20" y="103" type="line"/>
    </contour>
  </outline>
</glyph>
<glyph name="grave" format="2">
  <advance width="183"/>
  <unicode hex="0060"/>
  <outline>
    <contour>
      <point x="56" y="720" type="line"/>
      <point x="163" y="720" type="line"/>
      <point x="127" y="826" type="line"/>
      <point x="20" y="826" type="line"/>
    </contour>
  </outline>
</glyph>
<glyph name="b" format="2">
  <advance width="382"/>
  <unicode hex="0062"/>
  <outline>
    <contour>
      <point x="30" y="0" type="line"/>
      <point x="166" y="0" type="line"/>
      <point x="166" y="700" type="line"/>
      <point x="30" y="700" type="line"/>
    </contour>
    <contour>
      <point x="10" y="567" type="line"/>
      <point x="166" y="567" type="line"/>
      <point x="166" y="700" type="line"/>
      <point x="20" y="700" type="line"/>
    </contour>
    <contour>
      <point x="362" y="143" type="curve" smooth="yes"/>
      <point x="362" y="251" type="line"/>
      <point x="226" y="251" type="line"/>
      <point x="226" y="138" type="line" smooth="yes"/>
      <point x="226" y="134"/>
      <point x="225" y="133"/>
      <point x="221" y="133" type="curve" smooth="yes"/>
      <point x="106" y="133" type="line"/>
      <point x="106" y="125"/>
      <point x="106" y="117"/>
      <point x="106" y="109" type="curve" smooth="yes"/>
      <point x="106" y="44"/>
      <point x="149" y="0"/>
      <point x="213" y="0" type="curve" smooth="yes"/>
      <point x="222" y="0" type="line" smooth="yes"/>
      <point x="322" y="0"/>
      <point x="362" y="41"/>
    </contour>
    <contour>
      <point x="112" y="367" type="line"/>
      <point x="221" y="367" type="line" smooth="yes"/>
      <point x="225" y="367"/>
      <point x="226" y="366"/>
      <point x="226" y="362" type="curve" smooth="yes"/>
      <point x="226" y="249" type="line"/>
      <point x="362" y="249" type="line"/>
      <point x="362" y="357" type="line" smooth="yes"/>
      <point x="362" y="459"/>
      <point x="321" y="500"/>
      <point x="218" y="500" type="curve" smooth="yes"/>
      <point x="202" y="500" type="line"/>
    </contour>
  </outline>
</glyph>
<glyph name="d" format="2">
  <advance width="382"/>
  <unicode hex="0064"/>
  <outline>
    <contour>
      <point x="216" y="0" type="line"/>
      <point x="352" y="0" type="line"/>
      <point x="352" y="700" type="line"/>
      <point x="216" y="700" type="line"/>
    </contour>
    <contour>
      <point x="196" y="567" type="line"/>
      <point x="352" y="567" type="line"/>
      <point x="352" y="700" type="line"/>
      <point x="206" y="700" type="line"/>
    </contour>
    <contour>
      <point x="216" y="0" type="line"/>
      <point x="372" y="0" type="line"/>
      <point x="362" y="133" type="line"/>
      <point x="216" y="133" type="line"/>
    </contour>
    <contour>
      <point x="20" y="249" type="line"/>
      <point x="156" y="249" type="line"/>
      <point x="156" y="362" type="line" smooth="yes"/>
      <point x="156" y="366"/>
      <point x="157" y="367"/>
      <point x="161" y="367" type="curve" smooth="yes"/>
      <point x="276" y="367" type="line"/>
      <point x="276" y="391" type="line" smooth="yes"/>
      <point x="276" y="456"/>
      <point x="233" y="500"/>
      <point x="169" y="500" type="curve" smooth="yes"/>
      <point x="160" y="500" type="line" smooth="yes"/>
      <point x="60" y="500"/>
      <point x="20" y="459"/>
      <point x="20" y="357" type="curve" smooth="yes"/>
    </contour>
    <contour>
      <point x="164" y="0" type="curve" smooth="yes"/>
      <point x="180" y="0" type="line"/>
      <point x="270" y="133" type="line"/>
      <point x="161" y="133" type="line" smooth="yes"/>
      <point x="157" y="133"/>
      <point x="156" y="134"/>
      <point x="156" y="138" type="curve" smooth="yes"/>
      <point x="156" y="251" type="line"/>
      <point x="20" y="251" type="line"/>
      <point x="20" y="143" type="line" smooth="yes"/>
      <point x="20" y="41"/>
      <point x="61" y="0"/>
    </contour>
  </outline>
</glyph>
<glyph name="e" format="2">
  <advance width="372"/>
  <unicode hex="0065"/>
  <anchor x="186" y="0" name="bottom"/>
  <anchor x="335" y="10" name="ogonek"/>
  <anchor x="186" y="500" name="top"/>
  <outline>
    <contour>
      <point x="352" y="135" type="curve" smooth="yes"/>
      <point x="352" y="163" type="line"/>
      <point x="216" y="163" type="line"/>
      <point x="216" y="130" type="line" smooth="yes"/>
      <point x="216" y="126"/>
      <point x="215" y="125"/>
      <point x="211" y="125" type="curve" smooth="yes"/>
      <point x="170" y="125" type="line"/>
      <point x="170" y="-8" type="line"/>
      <point x="208" y="-8" type="line" smooth="yes"/>
      <point x="311" y="-8"/>
      <point x="352" y="33"/>
    </contour>
    <contour>
      <point x="20" y="135" type="line" smooth="yes"/>
      <point x="20" y="32"/>
      <point x="61" y="-8"/>
      <point x="164" y="-8" type="curve" smooth="yes"/>
      <point x="202" y="-8" type="line"/>
      <point x="202" y="125" type="line"/>
      <point x="161" y="125" type="line" smooth="yes"/>
      <point x="157" y="125"/>
      <point x="156" y="126"/>
      <point x="156" y="130" type="curve" smooth="yes"/>
      <point x="156" y="254" type="line"/>
      <point x="20" y="254" type="line"/>
    </contour>
    <contour>
      <point x="352" y="357" type="line" smooth="yes"/>
      <point x="352" y="459"/>
      <point x="311" y="500"/>
      <point x="208" y="500" type="curve" smooth="yes"/>
      <point x="170" y="500" type="line"/>
      <point x="170" y="367" type="line"/>
      <point x="211" y="367" type="line" smooth="yes"/>
      <point x="215" y="367"/>
      <point x="216" y="366"/>
      <point x="216" y="362" type="curve" smooth="yes"/>
      <point x="216" y="207" type="line"/>
      <point x="352" y="207" type="line"/>
    </contour>
    <contour>
      <point x="352" y="297" type="line"/>
      <point x="20" y="297" type="line"/>
      <point x="20" y="184" type="line"/>
      <point x="352" y="184" type="line"/>
    </contour>
    <contour>
      <point x="20" y="357" type="curve" smooth="yes"/>
      <point x="20" y="254" type="line"/>
      <point x="156" y="254" type="line"/>
      <point x="156" y="362" type="line" smooth="yes"/>
      <point x="156" y="366"/>
      <point x="157" y="367"/>
      <point x="161" y="367" type="curve" smooth="yes"/>
      <point x="202" y="367" type="line"/>
      <point x="202" y="500" type="line"/>
      <point x="164" y="500" type="line" smooth="yes"/>
      <point x="61" y="500"/>
      <point x="20" y="459"/>
    </contour>
  </outline>
</glyph>
<glyph name="f" format="2">
  <advance width="253"/>
  <unicode hex="0066"/>
  <outline>
    <contour>
      <point x="243" y="700" type="line"/>
      <point x="145" y="700" type="line" smooth="yes"/>
      <point x="89" y="700"/>
      <point x="51" y="663"/>
      <point x="51" y="607" type="curve" smooth="yes"/>
      <point x="51" y="0" type="line"/>
      <point x="187" y="0" type="line"/>
      <point x="187" y="649" type="line"/>
      <point x="102" y="567" type="line"/>
      <point x="243" y="567" type="line"/>
    </contour>
    <contour>
      <point x="10" y="377" type="line"/>
      <point x="223" y="377" type="line"/>
      <point x="233" y="500" type="line"/>
      <point x="20" y="500" type="line"/>
    </contour>
  </outline>
</glyph>
<glyph name="g" format="2">
  <advance width="372"/>
  <unicode hex="0067"/>
  <outline>
    <contour>
      <point x="216" y="0" type="line"/>
      <point x="352" y="0" type="line"/>
      <point x="352" y="500" type="line"/>
      <point x="216" y="500" type="line"/>
    </contour>
    <contour>
      <point x="20" y="249" type="line"/>
      <point x="156" y="249" type="line"/>
      <point x="156" y="362" type="line" smooth="yes"/>
      <point x="156" y="366"/>
      <point x="157" y="367"/>
      <point x="161" y="367" type="curve" smooth="yes"/>
      <point x="276" y="367" type="line"/>
      <point x="276" y="391" type="line" smooth="yes"/>
      <point x="276" y="456"/>
      <point x="233" y="500"/>
      <point x="169" y="500" type="curve" smooth="yes"/>
      <point x="160" y="500" type="line" smooth="yes"/>
      <point x="60" y="500"/>
      <point x="20" y="459"/>
      <point x="20" y="357" type="curve" smooth="yes"/>
    </contour>
    <contour>
      <point x="164" y="0" type="curve" smooth="yes"/>
      <point x="190" y="0" type="line"/>
      <point x="280" y="133" type="line"/>
      <point x="161" y="133" type="line" smooth="yes"/>
      <point x="157" y="133"/>
      <point x="156" y="134"/>
      <point x="156" y="138" type="curve" smooth="yes"/>
      <point x="156" y="251" type="line"/>
      <point x="20" y="251" type="line"/>
      <point x="20" y="143" type="line" smooth="yes"/>
      <point x="20" y="41"/>
      <point x="61" y="0"/>
    </contour>
    <contour>
      <point x="352" y="-9" type="curve" smooth="yes"/>
      <point x="352" y="19" type="line"/>
      <point x="216" y="19" type="line"/>
      <point x="216" y="-34" type="line" smooth="yes"/>
      <point x="216" y="-38"/>
      <point x="215" y="-39"/>
      <point x="211" y="-39" type="curve" smooth="yes"/>
      <point x="170" y="-39" type="line"/>
      <point x="170" y="-152" type="line"/>
      <point x="208" y="-152" type="line" smooth="yes"/>
      <point x="311" y="-152"/>
      <point x="352" y="-111"/>
    </contour>
    <contour>
      <point x="156" y="-13" type="line"/>
      <point x="20" y="-13" type="line"/>
      <point x="20" y="-14" type="line" smooth="yes"/>
      <point x="20" y="-108"/>
      <point x="65" y="-152"/>
      <point x="164" y="-152" type="curve" smooth="yes"/>
      <point x="202" y="-152" type="line"/>
      <point x="202" y="-39" type="line"/>
      <point x="161" y="-39" type="line" smooth="yes"/>
      <point x="157" y="-39"/>
      <point x="156" y="-38"/>
      <point x="156" y="-34" type="curve" smooth="yes"/>
    </contour>
  </outline>
</glyph>
<glyph name="h" format="2">
  <advance width="392"/>
  <unicode hex="0068"/>
  <outline>
    <contour>
      <point x="30" y="0" type="line"/>
      <point x="166" y="0" type="line"/>
      <point x="166" y="700" type="line"/>
      <point x="30" y="700" type="line"/>
    </contour>
    <contour>
      <point x="166" y="700" type="line"/>
      <point x="20" y="700" type="line"/>
      <point x="10" y="567" type="line"/>
      <point x="166" y="567" type="line"/>
    </contour>
    <contour>
      <point x="226" y="0" type="line"/>
      <point x="372" y="0" type="line"/>
      <point x="382" y="133" type="line"/>
      <point x="226" y="133" type="line"/>
    </contour>
    <contour>
      <point x="112" y="367" type="line"/>
      <point x="221" y="367" type="line" smooth="yes"/>
      <point x="225" y="367"/>
      <point x="226" y="366"/>
      <point x="226" y="362" type="curve" smooth="yes"/>
      <point x="226" y="0" type="line"/>
      <point x="362" y="0" type="line"/>
      <point x="362" y="357" type="line" smooth="yes"/>
      <point x="362" y="459"/>
      <point x="321" y="500"/>
      <point x="218" y="500" type="curve" smooth="yes"/>
      <point x="202" y="500" type="line"/>
    </contour>
  </outline>
</glyph>
<glyph name="i" format="2">
  <advance width="192"/>
  <unicode hex="0069"/>
  <outline>
    <contour>
      <point x="36" y="0" type="line"/>
      <point x="172" y="0" type="line"/>
      <point x="172" y="500" type="line"/>
      <point x="36" y="500" type="line"/>
    </contour>
    <contour>
      <point x="20" y="367" type="line"/>
      <point x="172" y="367" type="line"/>
      <point x="172" y="500" type="line"/>
      <point x="30" y="500" type="line"/>
    </contour>
    <contour>
      <point x="36" y="540" type="line"/>
      <point x="172" y="540" type="line"/>
      <point x="172" y="673" type="line"/>
      <point x="46" y="673" type="line"/>
    </contour>
  </outline>
</glyph>
<glyph name="j" format="2">
  <advance width="192"/>
  <unicode hex="006A"/>
  <outline>
    <contour>
      <point x="-20" y="-152" type="line"/>
      <point x="78" y="-152" type="line" smooth="yes"/>
      <point x="134" y="-152"/>
      <point x="172" y="-115"/>
      <point x="172" y="-59" type="curve" smooth="yes"/>
      <point x="172" y="500" type="line"/>
      <point x="36" y="500" type="line"/>
      <point x="36" y="-102" type="line"/>
      <point x="121" y="-20" type="line"/>
      <point x="-20" y="-20" type="line"/>
    </contour>
    <contour>
      <point x="19" y="367" type="line"/>
      <point x="172" y="367" type="line"/>
      <point x="172" y="500" type="line"/>
      <point x="29" y="500" type="line"/>
    </contour>
    <contour>
      <point x="36" y="540" type="line"/>
      <point x="172" y="540" type="line"/>
      <point x="162" y="673" type="line"/>
      <point x="36" y="673" type="line"/>
    </contour>
  </outline>
</glyph>
<glyph name="k" format="2">
  <advance width="367"/>
  <unicode hex="006B"/>
  <outline>
    <contour>
      <point x="26" y="0" type="line"/>
      <point x="162" y="0" type="line"/>
      <point x="162" y="700" type="line"/>
      <point x="26" y="700" type="line"/>
    </contour>
    <contour>
      <point x="234" y="0" type="line"/>
      <point x="367" y="0" type="line"/>
      <point x="240" y="312" type="line"/>
      <point x="107" y="312" type="line"/>
    </contour>
    <contour>
      <point x="107" y="262" type="line"/>
      <point x="240" y="262" type="line"/>
      <point x="357" y="500" type="line"/>
      <point x="224" y="500" type="line"/>
    </contour>
    <contour>
      <point x="10" y="567" type="line"/>
      <point x="162" y="567" type="line"/>
      <point x="162" y="700" type="line"/>
      <point x="20" y="700" type="line"/>
    </contour>
  </outline>
</glyph>
<glyph name="l" format="2">
  <advance width="212"/>
  <unicode hex="006C"/>
  <outline>
    <contour>
      <point x="36" y="0" type="line"/>
      <point x="172" y="0" type="line"/>
      <point x="172" y="700" type="line"/>
      <point x="36" y="700" type="line"/>
    </contour>
    <contour>
      <point x="36" y="0" type="line"/>
      <point x="202" y="0" type="line"/>
      <point x="192" y="133" type="line"/>
      <point x="36" y="133" type="line"/>
    </contour>
    <contour>
      <point x="20" y="567" type="line"/>
      <point x="172" y="567" type="line"/>
      <point x="172" y="700" type="line"/>
      <point x="30" y="700" type="line"/>
    </contour>
  </outline>
</glyph>
<glyph name="m" format="2">
  <advance width="588"/>
  <unicode hex="006D"/>
  <anchor x="294" y="0" name="bottom"/>
  <anchor x="294" y="500" name="top"/>
  <outline>
    <contour>
      <point x="30" y="0" type="line"/>
      <point x="166" y="0" type="line"/>
      <point x="166" y="500" type="line"/>
      <point x="30" y="500" type="line"/>
    </contour>
    <contour>
      <point x="10" y="367" type="line"/>
      <point x="166" y="367" type="line"/>
      <point x="166" y="500" type="line"/>
      <point x="20" y="500" type="line"/>
    </contour>
    <contour>
      <point x="431" y="0" type="line"/>
      <point x="568" y="0" type="line"/>
      <point x="578" y="133" type="line"/>
      <point x="422" y="133" type="line"/>
    </contour>
    <contour>
      <point x="112" y="367" type="line"/>
      <point x="221" y="367" type="line" smooth="yes"/>
      <point x="225" y="367"/>
      <point x="226" y="366"/>
      <point x="226" y="362" type="curve" smooth="yes"/>
      <point x="226" y="0" type="line"/>
      <point x="362" y="0" type="line"/>
      <point x="362" y="357" type="line" smooth="yes"/>
      <point x="362" y="459"/>
      <point x="321" y="500"/>
      <point x="218" y="500" type="curve" smooth="yes"/>
      <point x="202" y="500" type="line"/>
    </contour>
    <contour>
      <point x="303" y="367" type="line"/>
      <point x="417" y="367" type="line" smooth="yes"/>
      <point x="421" y="367"/>
      <point x="422" y="366"/>
      <point x="422" y="362" type="curve" smooth="yes"/>
      <point x="422" y="0" type="line"/>
      <point x="558" y="0" type="line"/>
      <point x="558" y="357" type="line" smooth="yes"/>
      <point x="558" y="459"/>
      <point x="517" y="500"/>
      <point x="414" y="500" type="curve" smooth="yes"/>
      <point x="393" y="500" type="line"/>
    </contour>
  </outline>
</glyph>
<glyph name="n" format="2">
  <advance width="402"/>
  <unicode hex="006E"/>
  <anchor x="201" y="0" name="bottom"/>
  <anchor x="201" y="500" name="top"/>
  <outline>
    <contour>
      <point x="30" y="0" type="line"/>
      <point x="166" y="0" type="line"/>
      <point x="166" y="500" type="line"/>
      <point x="30" y="500" type="line"/>
    </contour>
    <contour>
      <point x="10" y="367" type="line"/>
      <point x="166" y="367" type="line"/>
      <point x="166" y="500" type="line"/>
      <point x="20" y="500" type="line"/>
    </contour>
    <contour>
      <point x="112" y="367" type="line"/>
      <point x="221" y="367" type="line" smooth="yes"/>
      <point x="225" y="367"/>
      <point x="226" y="366"/>
      <point x="226" y="362" type="curve" smooth="yes"/>
      <point x="226" y="0" type="line"/>
      <point x="362" y="0" type="line"/>
      <point x="362" y="357" type="line" smooth="yes"/>
      <point x="362" y="459"/>
      <point x="321" y="500"/>
      <point x="218" y="500" type="curve" smooth="yes"/>
      <point x="202" y="500" type="line"/>
    </contour>
    <contour>
      <point x="226" y="0" type="line"/>
      <point x="372" y="0" type="line"/>
      <point x="382" y="133" type="line"/>
      <point x="226" y="133" type="line"/>
    </contour>
  </outline>
</glyph>
<glyph name="o" format="2">
  <advance width="372"/>
  <unicode hex="006F"/>
  <anchor x="186" y="-8" name="bottom"/>
  <anchor x="186" y="250" name="center"/>
  <anchor x="335" y="-8" name="ogonek"/>
  <anchor x="186" y="500" name="top"/>
  <anchor x="354" y="500" name="topright"/>
  <outline>
    <contour>
      <point x="352" y="135" type="curve" smooth="yes"/>
      <point x="352" y="249" type="line"/>
      <point x="216" y="249" type="line"/>
      <point x="216" y="130" type="line" smooth="yes"/>
      <point x="216" y="126"/>
      <point x="215" y="125"/>
      <point x="211" y="125" type="curve" smooth="yes"/>
      <point x="170" y="125" type="line"/>
      <point x="170" y="-8" type="line"/>
      <point x="208" y="-8" type="line" smooth="yes"/>
      <point x="311" y="-8"/>
      <point x="352" y="33"/>
    </contour>
    <contour>
      <point x="20" y="135" type="line" smooth="yes"/>
      <point x="20" y="32"/>
      <point x="61" y="-8"/>
      <point x="164" y="-8" type="curve" smooth="yes"/>
      <point x="202" y="-8" type="line"/>
      <point x="202" y="125" type="line"/>
      <point x="161" y="125" type="line" smooth="yes"/>
      <point x="157" y="125"/>
      <point x="156" y="126"/>
      <point x="156" y="130" type="curve" smooth="yes"/>
      <point x="156" y="249" type="line"/>
      <point x="20" y="249" type="line"/>
    </contour>
    <contour>
      <point x="352" y="357" type="line" smooth="yes"/>
      <point x="352" y="459"/>
      <point x="311" y="500"/>
      <point x="208" y="500" type="curve" smooth="yes"/>
      <point x="170" y="500" type="line"/>
      <point x="170" y="367" type="line"/>
      <point x="211" y="367" type="line" smooth="yes"/>
      <point x="215" y="367"/>
      <point x="216" y="366"/>
      <point x="216" y="362" type="curve" smooth="yes"/>
      <point x="216" y="249" type="line"/>
      <point x="352" y="249" type="line"/>
    </contour>
    <contour>
      <point x="20" y="357" type="curve" smooth="yes"/>
      <point x="20" y="249" type="line"/>
      <point x="156" y="249" type="line"/>
      <point x="156" y="362" type="line" smooth="yes"/>
      <point x="156" y="366"/>
      <point x="157" y="367"/>
      <point x="161" y="367" type="curve" smooth="yes"/>
      <point x="202" y="367" type="line"/>
      <point x="202" y="500" type="line"/>
      <point x="164" y="500" type="line" smooth="yes"/>
      <point x="61" y="500"/>
      <point x="20" y="459"/>
    </contour>
  </outline>
</glyph>
<glyph name="q" format="2">
  <advance width="387"/>
  <unicode hex="0071"/>
  <outline>
    <contour>
      <point x="211" y="-132" type="line"/>
      <point x="347" y="-132" type="line"/>
      <point x="347" y="500" type="line"/>
      <point x="211" y="500" type="line"/>
    </contour>
    <contour>
      <point x="211" y="-132" type="line"/>
      <point x="377" y="-132" type="line"/>
      <point x="367" y="1" type="line"/>
      <point x="211" y="1" type="line"/>
    </contour>
    <contour>
      <point x="15" y="249" type="line"/>
      <point x="151" y="249" type="line"/>
      <point x="151" y="362" type="line" smooth="yes"/>
      <point x="151" y="366"/>
      <point x="152" y="367"/>
      <point x="156" y="367" type="curve" smooth="yes"/>
      <point x="271" y="367" type="line"/>
      <point x="271" y="391" type="line" smooth="yes"/>
      <point x="271" y="456"/>
      <point x="228" y="500"/>
      <point x="164" y="500" type="curve" smooth="yes"/>
      <point x="155" y="500" type="line" smooth="yes"/>
      <point x="55" y="500"/>
      <point x="15" y="459"/>
      <point x="15" y="357" type="curve" smooth="yes"/>
    </contour>
    <contour>
      <point x="159" y="0" type="curve" smooth="yes"/>
      <point x="175" y="0" type="line"/>
      <point x="265" y="133" type="line"/>
      <point x="156" y="133" type="line" smooth="yes"/>
      <point x="152" y="133"/>
      <point x="151" y="134"/>
      <point x="151" y="138" type="curve" smooth="yes"/>
      <point x="151" y="251" type="line"/>
      <point x="15" y="251" type="line"/>
      <point x="15" y="143" type="line" smooth="yes"/>
      <point x="15" y="41"/>
      <point x="56" y="0"/>
    </contour>
  </outline>
</glyph>
<glyph name="r" format="2">
  <advance width="303"/>
  <unicode hex="0072"/>
  <outline>
    <contour>
      <point x="30" y="0" type="line"/>
      <point x="166" y="0" type="line"/>
      <point x="166" y="500" type="line"/>
      <point x="30" y="500" type="line"/>
    </contour>
    <contour>
      <point x="10" y="367" type="line"/>
      <point x="166" y="367" type="line"/>
      <point x="166" y="500" type="line"/>
      <point x="20" y="500" type="line"/>
    </contour>
    <contour>
      <point x="106" y="347" type="line"/>
      <point x="283" y="347" type="line"/>
      <point x="283" y="500" type="line"/>
      <point x="202" y="500" type="line"/>
    </contour>
  </outline>
</glyph>
<glyph name="s" format="2">
  <advance width="382"/>
  <unicode hex="0073"/>
  <outline>
    <contour>
      <point x="114" y="504" type="line" smooth="yes"/>
      <point x="58" y="504"/>
      <point x="20" y="468"/>
      <point x="20" y="411" type="curve" smooth="yes"/>
      <point x="20" y="294" type="line" smooth="yes"/>
      <point x="20" y="249"/>
      <point x="55" y="230"/>
      <point x="76" y="223" type="curve" smooth="yes"/>
      <point x="228" y="167" type="line"/>
      <point x="226" y="170" type="line"/>
      <point x="226" y="138" type="line" smooth="yes"/>
      <point x="226" y="134"/>
      <point x="225" y="133"/>
      <point x="221" y="133" type="curve" smooth="yes"/>
      <point x="197" y="133" type="line"/>
      <point x="197" y="0" type="line"/>
      <point x="268" y="0" type="line" smooth="yes"/>
      <point x="324" y="0"/>
      <point x="362" y="37"/>
      <point x="362" y="93" type="curve" smooth="yes"/>
      <point x="362" y="211" type="line" smooth="yes"/>
      <point x="362" y="256"/>
      <point x="327" y="275"/>
      <point x="306" y="282" type="curve" smooth="yes"/>
      <point x="154" y="338" type="line"/>
      <point x="156" y="335" type="line"/>
      <point x="156" y="366" type="line" smooth="yes"/>
      <point x="156" y="370"/>
      <point x="157" y="371"/>
      <point x="161" y="371" type="curve" smooth="yes"/>
      <point x="185" y="371" type="line"/>
      <point x="185" y="504" type="line"/>
    </contour>
    <contour>
      <point x="20" y="190" type="line"/>
      <point x="20" y="143" type="line" smooth="yes"/>
      <point x="20" y="41"/>
      <point x="61" y="0"/>
      <point x="164" y="0" type="curve" smooth="yes"/>
      <point x="202" y="0" type="line"/>
      <point x="202" y="133" type="line"/>
      <point x="161" y="133" type="line" smooth="yes"/>
      <point x="157" y="133"/>
      <point x="156" y="134"/>
      <point x="156" y="138" type="curve" smooth="yes"/>
      <point x="156" y="180" type="line"/>
    </contour>
    <contour>
      <point x="362" y="314" type="line"/>
      <point x="362" y="361" type="line" smooth="yes"/>
      <point x="362" y="463"/>
      <point x="321" y="504"/>
      <point x="218" y="504" type="curve" smooth="yes"/>
      <point x="180" y="504" type="line"/>
      <point x="180" y="371" type="line"/>
      <point x="221" y="371" type="line" smooth="yes"/>
      <point x="225" y="371"/>
      <point x="226" y="370"/>
      <point x="226" y="366" type="curve" smooth="yes"/>
      <point x="226" y="324" type="line"/>
    </contour>
  </outline>
</glyph>
<glyph name="t" format="2">
  <advance width="253"/>
  <unicode hex="0074"/>
  <anchor x="127" y="0" name="bottom"/>
  <anchor x="127" y="250" name="center"/>
  <anchor x="114" y="500" name="top"/>
  <anchor x="233" y="500" name="topright"/>
  <outline>
    <contour>
      <point x="243" y="133" type="line"/>
      <point x="102" y="133" type="line"/>
      <point x="186" y="51" type="line"/>
      <point x="186" y="700" type="line"/>
      <point x="51" y="700" type="line"/>
      <point x="51" y="93" type="line" smooth="yes"/>
      <point x="51" y="37"/>
      <point x="89" y="0"/>
      <point x="145" y="0" type="curve" smooth="yes"/>
      <point x="243" y="0" type="line"/>
    </contour>
    <contour>
      <point x="10" y="377" type="line"/>
      <point x="223" y="377" type="line"/>
      <point x="233" y="500" type="line"/>
      <point x="20" y="500" type="line"/>
    </contour>
    <contour>
      <point x="30" y="567" type="line"/>
      <point x="186" y="567" type="line"/>
      <point x="186" y="700" type="line"/>
      <point x="40" y="700" type="line"/>
    </contour>
  </outline>
</glyph>
<glyph name="u" format="2">
  <advance width="392"/>
  <unicode hex="0075"/>
  <anchor x="196" y="0" name="bottom"/>
  <anchor x="353" y="10" name="ogonek"/>
  <anchor x="196" y="500" name="top"/>
  <anchor x="372" y="500" name="topright"/>
  <outline>
    <contour>
      <point x="226" y="0" type="line"/>
      <point x="382" y="0" type="line"/>
      <point x="372" y="133" type="line"/>
      <point x="226" y="133" type="line"/>
    </contour>
    <contour>
      <point x="10" y="367" type="line"/>
      <point x="166" y="367" type="line"/>
      <point x="166" y="500" type="line"/>
      <point x="20" y="500" type="line"/>
    </contour>
    <contour>
      <point x="226" y="0" type="line"/>
      <point x="362" y="0" type="line"/>
      <point x="362" y="500" type="line"/>
      <point x="226" y="500" type="line"/>
    </contour>
    <contour>
      <point x="280" y="133" type="line"/>
      <point x="171" y="133" type="line" smooth="yes"/>
      <point x="167" y="133"/>
      <point x="166" y="134"/>
      <point x="166" y="138" type="curve" smooth="yes"/>
      <point x="166" y="500" type="line"/>
      <point x="30" y="500" type="line"/>
      <point x="30" y="143" type="line" smooth="yes"/>
      <point x="30" y="41"/>
      <point x="71" y="0"/>
      <point x="174" y="0" type="curve" smooth="yes"/>
      <point x="190" y="0" type="line"/>
    </contour>
  </outline>
</glyph>
<glyph name="v" format="2">
  <advance width="368"/>
  <unicode hex="0076"/>
  <outline>
    <contour>
      <point x="116" y="0" type="line"/>
      <point x="252" y="0" type="line"/>
      <point x="348" y="500" type="line"/>
      <point x="232" y="500" type="line"/>
      <point x="156" y="61" type="line"/>
      <point x="212" y="61" type="line"/>
      <point x="136" y="500" type="line"/>
      <point x="20" y="500" type="line"/>
    </contour>
  </outline>
</glyph>
<glyph name="w" format="2">
  <advance width="588"/>
  <unicode hex="0077"/>
  <outline>
    <contour>
      <point x="422" y="0" type="line"/>
      <point x="578" y="0" type="line"/>
      <point x="568" y="133" type="line"/>
      <point x="422" y="133" type="line"/>
    </contour>
    <contour>
      <point x="558" y="500" type="line"/>
      <point x="422" y="500" type="line"/>
      <point x="422" y="0" type="line"/>
      <point x="558" y="0" type="line"/>
    </contour>
    <contour>
      <point x="157" y="500" type="line"/>
      <point x="20" y="500" type="line"/>
      <point x="10" y="367" type="line"/>
      <point x="166" y="367" type="line"/>
    </contour>
    <contour>
      <point x="476" y="133" type="line"/>
      <point x="367" y="133" type="line" smooth="yes"/>
      <point x="363" y="133"/>
      <point x="362" y="134"/>
      <point x="362" y="138" type="curve" smooth="yes"/>
      <point x="362" y="500" type="line"/>
      <point x="226" y="500" type="line"/>
      <point x="226" y="143" type="line" smooth="yes"/>
      <point x="226" y="41"/>
      <point x="267" y="0"/>
      <point x="370" y="0" type="curve" smooth="yes"/>
      <point x="386" y="0" type="line"/>
    </contour>
    <contour>
      <point x="285" y="133" type="line"/>
      <point x="171" y="133" type="line" smooth="yes"/>
      <point x="167" y="133"/>
      <point x="166" y="134"/>
      <point x="166" y="138" type="curve" smooth="yes"/>
      <point x="166" y="500" type="line"/>
      <point x="30" y="500" type="line"/>
      <point x="30" y="143" type="line" smooth="yes"/>
      <point x="30" y="41"/>
      <point x="71" y="0"/>
      <point x="174" y="0" type="curve" smooth="yes"/>
      <point x="195" y="0" type="line"/>
    </contour>
  </outline>
</glyph>
<glyph name="x" format="2">
  <advance width="389"/>
  <unicode hex="0078"/>
  <outline>
    <contour>
      <point x="127" y="192" type="line"/>
      <point x="262" y="192" type="line"/>
      <point x="369" y="500" type="line"/>
      <point x="234" y="500" type="line"/>
      <point x="180" y="279" type="line"/>
      <point x="210" y="279" type="line"/>
      <point x="155" y="500" type="line"/>
      <point x="20" y="500" type="line"/>
    </contour>
    <contour>
      <point x="20" y="0" type="line"/>
      <point x="155" y="0" type="line"/>
      <point x="210" y="221" type="line"/>
      <point x="180" y="221" type="line"/>
      <point x="234" y="0" type="line"/>
      <point x="369" y="0" type="line"/>
      <point x="262" y="308" type="line"/>
      <point x="127" y="308" type="line"/>
    </contour>
  </outline>
</glyph>
<glyph name="y" format="2">
  <advance width="392"/>
  <unicode hex="0079"/>
  <anchor x="211" y="0" name="bottom"/>
  <anchor x="205" y="500" name="top"/>
  <outline>
    <contour>
      <point x="184" y="-153" type="curve" smooth="yes"/>
      <point x="228" y="-153" type="line" smooth="yes"/>
      <point x="331" y="-153"/>
      <point x="372" y="-112"/>
      <point x="372" y="-10" type="curve" smooth="yes"/>
      <point x="372" y="499" type="line"/>
      <point x="236" y="499" type="line"/>
      <point x="236" y="-72" type="line"/>
      <point x="268" y="-40" type="line"/>
      <point x="144" y="-40" type="line"/>
      <point x="176" y="-72" type="line"/>
      <point x="176" y="-13" type="line"/>
      <point x="40" y="-13" type="line"/>
      <point x="40" y="-14" type="line" smooth="yes"/>
      <point x="40" y="-109"/>
      <point x="85" y="-153"/>
    </contour>
    <contour>
      <point x="184" y="-1" type="curve" smooth="yes"/>
      <point x="200" y="-1" type="line"/>
      <point x="290" y="132" type="line"/>
      <point x="132" y="132" type="line"/>
      <point x="176" y="90" type="line"/>
      <point x="176" y="499" type="line"/>
      <point x="40" y="499" type="line"/>
      <point x="40" y="140" type="line" smooth="yes"/>
      <point x="40" y="38"/>
      <point x="81" y="-1"/>
    </contour>
    <contour>
      <point x="20" y="366" type="line"/>
      <point x="176" y="366" type="line"/>
      <point x="176" y="499" type="line"/>
      <point x="30" y="499" type="line"/>
    </contour>
  </outline>
</glyph>
<glyph name="z" format="2">
  <advance width="332"/>
  <unicode hex="007A"/>
  <outline>
    <contour>
      <point x="20" y="0" type="line"/>
      <point x="302" y="0" type="line"/>
      <point x="312" y="133" type="line"/>
      <point x="122" y="133" type="line"/>
      <point x="151" y="108" type="line"/>
      <point x="300" y="340" type="line" smooth="yes"/>
      <point x="308" y="352"/>
      <point x="312" y="370"/>
      <point x="312" y="386" type="curve" smooth="yes"/>
      <point x="312" y="499" type="line"/>
      <point x="30" y="499" type="line"/>
      <point x="20" y="366" type="line"/>
      <point x="210" y="366" type="line"/>
      <point x="181" y="391" type="line"/>
      <point x="32" y="159" type="line" smooth="yes"/>
      <point x="24" y="147"/>
      <point x="20" y="129"/>
      <point x="20" y="113" type="curve" smooth="yes"/>
    </contour>
  </outline>
</glyph>
<glyph name="braceleft" format="2">
  <advance width="278"/>
  <unicode hex="007B"/>
  <note>
braceleft
</note>
  <outline>
    <contour>
      <point x="278" y="-130" type="line"/>
      <point x="278" y="-27" type="line"/>
      <point x="183" y="-27" type="line"/>
      <point x="225" y="-99" type="line"/>
      <point x="225" y="142" type="line" smooth="yes"/>
      <point x="225" y="233"/>
      <point x="172" y="297"/>
      <point x="132" y="298" type="curve"/>
      <point x="132" y="305" type="line"/>
      <point x="172" y="303"/>
      <point x="225" y="368"/>
      <point x="225" y="461" type="curve" smooth="yes"/>
      <point x="225" y="702" type="line"/>
      <point x="183" y="630" type="line"/>
      <point x="278" y="630" type="line"/>
      <point x="278" y="733" type="line"/>
      <point x="226" y="733" type="line" smooth="yes"/>
      <point x="127" y="733"/>
      <point x="122" y="714"/>
      <point x="122" y="640" type="curve" smooth="yes"/>
      <point x="122" y="550" type="line" smooth="yes"/>
      <point x="122" y="458"/>
      <point x="110" y="355"/>
      <point x="20" y="354" type="curve"/>
      <point x="20" y="249" type="line"/>
      <point x="110" y="249"/>
      <point x="122" y="145"/>
      <point x="122" y="53" type="curve" smooth="yes"/>
      <point x="122" y="-37" type="line" smooth="yes"/>
      <point x="122" y="-111"/>
      <point x="127" y="-130"/>
      <point x="226" y="-130" type="curve" smooth="yes"/>
    </contour>
  </outline>
</glyph>
<glyph name="braceright" format="2">
  <advance width="278"/>
  <unicode hex="007D"/>
  <note>
braceright
</note>
  <outline>
    <contour>
      <point x="0" y="-130" type="line"/>
      <point x="52" y="-130" type="line" smooth="yes"/>
      <point x="151" y="-130"/>
      <point x="156" y="-111"/>
      <point x="156" y="-37" type="curve" smooth="yes"/>
      <point x="156" y="53" type="line" smooth="yes"/>
      <point x="156" y="145"/>
      <point x="168" y="249"/>
      <point x="258" y="249" type="curve"/>
      <point x="258" y="354" type="line"/>
      <point x="168" y="355"/>
      <point x="156" y="458"/>
      <point x="156" y="550" type="curve" smooth="yes"/>
      <point x="156" y="640" type="line" smooth="yes"/>
      <point x="156" y="714"/>
      <point x="151" y="733"/>
      <point x="52" y="733" type="curve" smooth="yes"/>
      <point x="0" y="733" type="line"/>
      <point x="0" y="630" type="line"/>
      <point x="95" y="630" type="line"/>
      <point x="53" y="702" type="line"/>
      <point x="53" y="461" type="line" smooth="yes"/>
      <point x="53" y="368"/>
      <point x="106" y="303"/>
      <point x="146" y="305" type="curve"/>
      <point x="146" y="298" type="line"/>
      <point x="106" y="297"/>
      <point x="53" y="233"/>
      <point x="53" y="142" type="curve" smooth="yes"/>
      <point x="53" y="-99" type="line"/>
      <point x="95" y="-27" type="line"/>
      <point x="0" y="-27" type="line"/>
    </contour>
  </outline>
</glyph>
<glyph name="asciitilde" format="2">
  <advance width="395"/>
  <unicode hex="007E"/>
  <note>
asciitilde
</note>
  <outline>
    <contour>
      <point x="20" y="210" type="line"/>
      <point x="54" y="251"/>
      <point x="122" y="259"/>
      <point x="190" y="230" type="curve" smooth="yes"/>
      <point x="265" y="198"/>
      <point x="339" y="203"/>
      <point x="375" y="243" type="curve"/>
      <point x="375" y="387" type="line"/>
      <point x="345" y="346"/>
      <point x="277" y="338"/>
      <point x="205" y="367" type="curve" smooth="yes"/>
      <point x="132" y="396"/>
      <point x="58" y="391"/>
      <point x="20" y="354" type="curve"/>
    </contour>
  </outline>
</glyph>
<glyph name="exclamdown" format="2">
  <advance width="153"/>
  <unicode hex="00A1"/>
  <outline>
    <contour>
      <point x="20" y="-50" type="line"/>
      <point x="133" y="-50" type="line"/>
      <point x="133" y="379" type="line"/>
      <point x="20" y="379" type="line"/>
    </contour>
    <contour>
      <point x="20" y="414" type="line"/>
      <point x="133" y="414" type="line"/>
      <point x="133" y="550" type="line"/>
      <point x="20" y="550" type="line"/>
    </contour>
  </outline>
</glyph>
<glyph name="cent" format="2">
  <advance width="372"/>
  <unicode hex="00A2"/>
  <outline>
    <contour>
      <point x="20" y="457" type="curve" smooth="yes"/>
      <point x="20" y="315" type="line"/>
      <point x="156" y="315" type="line"/>
      <point x="156" y="462" type="line" smooth="yes"/>
      <point x="156" y="466"/>
      <point x="157" y="467"/>
      <point x="161" y="467" type="curve" smooth="yes"/>
      <point x="186" y="467" type="line"/>
      <point x="186" y="600" type="line"/>
      <point x="164" y="600" type="line" smooth="yes"/>
      <point x="61" y="600"/>
      <point x="20" y="559"/>
    </contour>
    <contour>
      <point x="352" y="315" type="line"/>
      <point x="352" y="457" type="line" smooth="yes"/>
      <point x="352" y="559"/>
      <point x="311" y="600"/>
      <point x="208" y="600" type="curve" smooth="yes"/>
      <point x="186" y="600" type="line"/>
      <point x="186" y="467" type="line"/>
      <point x="211" y="467" type="line" smooth="yes"/>
      <point x="215" y="467"/>
      <point x="216" y="466"/>
      <point x="216" y="462" type="curve" smooth="yes"/>
      <point x="216" y="330" type="line"/>
    </contour>
    <contour>
      <point x="352" y="227" type="line"/>
      <point x="216" y="227" type="line"/>
      <point x="216" y="130" type="line" smooth="yes"/>
      <point x="216" y="126"/>
      <point x="215" y="125"/>
      <point x="211" y="125" type="curve" smooth="yes"/>
      <point x="161" y="125" type="line" smooth="yes"/>
      <point x="157" y="125"/>
      <point x="156" y="126"/>
      <point x="156" y="130" type="curve" smooth="yes"/>
      <point x="156" y="315" type="line"/>
      <point x="20" y="315" type="line"/>
      <point x="20" y="135" type="line" smooth="yes"/>
      <point x="20" y="33"/>
      <point x="61" y="-8"/>
      <point x="164" y="-8" type="curve" smooth="yes"/>
      <point x="208" y="-8" type="line" smooth="yes"/>
      <point x="311" y="-8"/>
      <point x="352" y="33"/>
      <point x="352" y="135" type="curve" smooth="yes"/>
    </contour>
    <contour>
      <point x="138" y="640" type="line"/>
      <point x="138" y="477" type="line"/>
      <point x="233" y="477" type="line"/>
      <point x="233" y="640" type="line"/>
    </contour>
    <contour>
      <point x="138" y="-40" type="line"/>
      <point x="233" y="-40" type="line"/>
      <point x="233" y="115" type="line"/>
      <point x="138" y="115" type="line"/>
    </contour>
  </outline>
</glyph>
<glyph name="sterling" format="2">
  <advance width="431"/>
  <unicode hex="00A3"/>
  <outline>
    <contour>
      <point x="267" y="600" type="curve" smooth="yes"/>
      <point x="193" y="600" type="line" smooth="yes"/>
      <point x="90" y="600"/>
      <point x="49" y="559"/>
      <point x="49" y="457" type="curve" smooth="yes"/>
      <point x="49" y="247" type="line"/>
      <point x="185" y="247" type="line"/>
      <point x="185" y="462" type="line" smooth="yes"/>
      <point x="185" y="466"/>
      <point x="186" y="467"/>
      <point x="190" y="467" type="curve" smooth="yes"/>
      <point x="270" y="467" type="line" smooth="yes"/>
      <point x="274" y="467"/>
      <point x="275" y="466"/>
      <point x="275" y="462" type="curve" smooth="yes"/>
      <point x="275" y="379" type="line"/>
      <point x="411" y="364" type="line"/>
      <point x="411" y="457" type="line" smooth="yes"/>
      <point x="411" y="559"/>
      <point x="370" y="600"/>
    </contour>
    <contour>
      <point x="15" y="233" type="line"/>
      <point x="232" y="233" type="line"/>
      <point x="246" y="311" type="line"/>
      <point x="29" y="311" type="line"/>
    </contour>
    <contour>
      <point x="15" y="0" type="line"/>
      <point x="411" y="0" type="line"/>
      <point x="401" y="133" type="line"/>
      <point x="15" y="133" type="line"/>
    </contour>
    <contour>
      <point x="185" y="213" type="curve" smooth="yes"/>
      <point x="185" y="318" type="line"/>
      <point x="49" y="318" type="line"/>
      <point x="49" y="138" type="line" smooth="yes"/>
      <point x="49" y="134"/>
      <point x="48" y="133"/>
      <point x="44" y="133" type="curve" smooth="yes"/>
      <point x="15" y="133" type="line"/>
      <point x="15" y="70" type="line"/>
      <point x="41" y="70" type="line" smooth="yes"/>
      <point x="142" y="70"/>
      <point x="185" y="112"/>
    </contour>
  </outline>
</glyph>
<glyph name="currency" format="2">
  <advance width="392"/>
  <unicode hex="00A4"/>
  <outline>
    <contour>
      <point x="198" y="289" type="curve" smooth="yes"/>
      <point x="288" y="289"/>
      <point x="336" y="336"/>
      <point x="336" y="428" type="curve" smooth="yes"/>
      <point x="336" y="519"/>
      <point x="288" y="568"/>
      <point x="198" y="568" type="curve" smooth="yes"/>
      <point x="106" y="568"/>
      <point x="58" y="518"/>
      <point x="58" y="428" type="curve" smooth="yes"/>
      <point x="58" y="336"/>
      <point x="106" y="289"/>
    </contour>
    <contour>
      <point x="196" y="390" type="curve" smooth="yes"/>
      <point x="172" y="390"/>
      <point x="160" y="403"/>
      <point x="160" y="428" type="curve" smooth="yes"/>
      <point x="160" y="453"/>
      <point x="172" y="465"/>
      <point x="196" y="465" type="curve" smooth="yes"/>
      <point x="223" y="465"/>
      <point x="235" y="453"/>
      <point x="235" y="428" type="curve" smooth="yes"/>
      <point x="235" y="402"/>
      <point x="223" y="390"/>
    </contour>
    <contour>
      <point x="289" y="444" type="line"/>
      <point x="372" y="526" type="line"/>
      <point x="291" y="607" type="line"/>
      <point x="209" y="525" type="line"/>
    </contour>
    <contour>
      <point x="103" y="444" type="line"/>
      <point x="183" y="525" type="line"/>
      <point x="101" y="607" type="line"/>
      <point x="20" y="526" type="line"/>
    </contour>
    <contour>
      <point x="291" y="248" type="line"/>
      <point x="372" y="329" type="line"/>
      <point x="289" y="411" type="line"/>
      <point x="209" y="330" type="line"/>
    </contour>
    <contour>
      <point x="101" y="248" type="line"/>
      <point x="183" y="330" type="line"/>
      <point x="103" y="411" type="line"/>
      <point x="20" y="329" type="line"/>
    </contour>
  </outline>
</glyph>
<glyph name="yen" format="2">
  <advance width="409"/>
  <unicode hex="00A5"/>
  <outline>
    <contour>
      <point x="137" y="269" type="line"/>
      <point x="272" y="269" type="line"/>
      <point x="389" y="700" type="line"/>
      <point x="254" y="700" type="line"/>
      <point x="190" y="391" type="line"/>
      <point x="220" y="391" type="line"/>
      <point x="155" y="700" type="line"/>
      <point x="20" y="700" type="line"/>
    </contour>
    <contour>
      <point x="137" y="0" type="line"/>
      <point x="272" y="0" type="line"/>
      <point x="272" y="269" type="line"/>
      <point x="137" y="269" type="line"/>
    </contour>
    <contour>
      <point x="84" y="251" type="line"/>
      <point x="324" y="251" type="line"/>
      <point x="324" y="372" type="line"/>
      <point x="84" y="371" type="line"/>
    </contour>
    <contour>
      <point x="84" y="106" type="line"/>
      <point x="324" y="106" type="line"/>
      <point x="324" y="227" type="line"/>
      <point x="84" y="226" type="line"/>
    </contour>
  </outline>
</glyph>
<glyph name="brokenbar" format="2">
  <advance width="176"/>
  <unicode hex="00A6"/>
  <outline>
    <contour>
      <point x="20" y="370" type="line"/>
      <point x="156" y="370" type="line"/>
      <point x="156" y="700" type="line"/>
      <point x="20" y="700" type="line"/>
    </contour>
    <contour>
      <point x="20" y="-100" type="line"/>
      <point x="156" y="-100" type="line"/>
      <point x="156" y="230" type="line"/>
      <point x="20" y="230" type="line"/>
    </contour>
  </outline>
</glyph>
<glyph name="section" format="2">
  <advance width="382"/>
  <unicode hex="00A7"/>
  <outline>
    <contour>
      <point x="362" y="410" type="line" smooth="yes"/>
      <point x="362" y="458"/>
      <point x="323" y="490"/>
      <point x="265" y="490" type="curve" smooth="yes"/>
      <point x="117" y="490" type="line" smooth="yes"/>
      <point x="59" y="490"/>
      <point x="20" y="458"/>
      <point x="20" y="410" type="curve" smooth="yes"/>
      <point x="20" y="287" type="line" smooth="yes"/>
      <point x="20" y="239"/>
      <point x="59" y="208"/>
      <point x="117" y="208" type="curve" smooth="yes"/>
      <point x="265" y="208" type="line" smooth="yes"/>
      <point x="323" y="208"/>
      <point x="362" y="239"/>
      <point x="362" y="287" type="curve" smooth="yes"/>
    </contour>
    <contour>
      <point x="158" y="317" type="curve" smooth="yes"/>
      <point x="158" y="378" type="line" smooth="yes"/>
      <point x="158" y="381"/>
      <point x="159" y="382"/>
      <point x="163" y="382" type="curve" smooth="yes"/>
      <point x="220" y="382" type="line" smooth="yes"/>
      <point x="224" y="382"/>
      <point x="225" y="381"/>
      <point x="225" y="378" type="curve" smooth="yes"/>
      <point x="225" y="317" type="line" smooth="yes"/>
      <point x="225" y="314"/>
      <point x="224" y="313"/>
      <point x="220" y="313" type="curve" smooth="yes"/>
      <point x="163" y="313" type="line" smooth="yes"/>
      <point x="159" y="313"/>
      <point x="158" y="314"/>
    </contour>
    <contour>
      <point x="362" y="516" type="line"/>
      <point x="362" y="563" type="line" smooth="yes"/>
      <point x="362" y="665"/>
      <point x="321" y="706"/>
      <point x="218" y="706" type="curve" smooth="yes"/>
      <point x="180" y="706" type="line"/>
      <point x="180" y="573" type="line"/>
      <point x="221" y="573" type="line" smooth="yes"/>
      <point x="225" y="573"/>
      <point x="226" y="572"/>
      <point x="226" y="568" type="curve" smooth="yes"/>
      <point x="226" y="526" type="line"/>
    </contour>
    <contour>
      <point x="172" y="389" type="line"/>
      <point x="305" y="484" type="line"/>
      <point x="154" y="540" type="line"/>
      <point x="156" y="537" type="line"/>
      <point x="156" y="568" type="line" smooth="yes"/>
      <point x="156" y="572"/>
      <point x="157" y="573"/>
      <point x="161" y="573" type="curve" smooth="yes"/>
      <point x="185" y="573" type="line"/>
      <point x="185" y="706" type="line"/>
      <point x="114" y="706" type="line" smooth="yes"/>
      <point x="58" y="706"/>
      <point x="20" y="670"/>
      <point x="20" y="613" type="curve" smooth="yes"/>
      <point x="20" y="496" type="line" smooth="yes"/>
      <point x="20" y="451"/>
      <point x="55" y="433"/>
      <point x="76" y="425" type="curve" smooth="yes"/>
    </contour>
    <contour>
      <point x="210" y="308" type="line"/>
      <point x="77" y="213" type="line"/>
      <point x="228" y="157" type="line"/>
      <point x="226" y="160" type="line"/>
      <point x="226" y="129" type="line" smooth="yes"/>
      <point x="226" y="125"/>
      <point x="225" y="124"/>
      <point x="221" y="124" type="curve" smooth="yes"/>
      <point x="197" y="124" type="line"/>
      <point x="197" y="-9" type="line"/>
      <point x="268" y="-9" type="line" smooth="yes"/>
      <point x="324" y="-9"/>
      <point x="362" y="27"/>
      <point x="362" y="84" type="curve" smooth="yes"/>
      <point x="362" y="201" type="line" smooth="yes"/>
      <point x="362" y="246"/>
      <point x="327" y="264"/>
      <point x="306" y="272" type="curve" smooth="yes"/>
    </contour>
    <contour>
      <point x="20" y="181" type="line"/>
      <point x="20" y="134" type="line" smooth="yes"/>
      <point x="20" y="32"/>
      <point x="61" y="-9"/>
      <point x="164" y="-9" type="curve" smooth="yes"/>
      <point x="202" y="-9" type="line"/>
      <point x="202" y="124" type="line"/>
      <point x="161" y="124" type="line" smooth="yes"/>
      <point x="157" y="124"/>
      <point x="156" y="125"/>
      <point x="156" y="129" type="curve" smooth="yes"/>
      <point x="156" y="171" type="line"/>
    </contour>
  </outline>
</glyph>
<glyph name="dieresis" format="2">
  <advance width="255"/>
  <unicode hex="00A8"/>
  <outline>
    <contour>
      <point x="137" y="720" type="line"/>
      <point x="235" y="720" type="line"/>
      <point x="235" y="817" type="line"/>
      <point x="137" y="817" type="line"/>
    </contour>
    <contour>
      <point x="20" y="720" type="line"/>
      <point x="118" y="720" type="line"/>
      <point x="118" y="817" type="line"/>
      <point x="20" y="817" type="line"/>
    </contour>
  </outline>
</glyph>
<glyph name="copyright" format="2">
  <advance width="649"/>
  <unicode hex="00A9"/>
  <note>
copyright
</note>
  <outline>
    <contour>
      <point x="114" y="0" type="curve" smooth="yes"/>
      <point x="535" y="0" type="line" smooth="yes"/>
      <point x="591" y="0"/>
      <point x="629" y="37"/>
      <point x="629" y="93" type="curve" smooth="yes"/>
      <point x="630" y="536" type="line" smooth="yes"/>
      <point x="630" y="592"/>
      <point x="592" y="629"/>
      <point x="536" y="629" type="curve" smooth="yes"/>
      <point x="114" y="629" type="line" smooth="yes"/>
      <point x="58" y="629"/>
      <point x="20" y="592"/>
      <point x="20" y="536" type="curve" smooth="yes"/>
      <point x="20" y="80" type="line" smooth="yes"/>
      <point x="20" y="32"/>
      <point x="58" y="0"/>
    </contour>
    <contour>
      <point x="149" y="123" type="line" smooth="yes"/>
      <point x="145" y="123"/>
      <point x="144" y="124"/>
      <point x="144" y="128" type="curve" smooth="yes"/>
      <point x="144" y="501" type="line" smooth="yes"/>
      <point x="144" y="505"/>
      <point x="145" y="506"/>
      <point x="149" y="506" type="curve" smooth="yes"/>
      <point x="501" y="506" type="line" smooth="yes"/>
      <point x="505" y="506"/>
      <point x="506" y="505"/>
      <point x="506" y="501" type="curve" smooth="yes"/>
      <point x="507" y="128" type="line" smooth="yes"/>
      <point x="507" y="124"/>
      <point x="506" y="123"/>
      <point x="502" y="123" type="curve" smooth="yes"/>
    </contour>
    <contour>
      <point x="486" y="318" type="line"/>
      <point x="486" y="344" type="line" smooth="yes"/>
      <point x="486" y="441"/>
      <point x="442" y="486"/>
      <point x="346" y="487" type="curve" smooth="yes"/>
      <point x="304" y="487" type="line" smooth="yes"/>
      <point x="208" y="486"/>
      <point x="164" y="441"/>
      <point x="164" y="344" type="curve" smooth="yes"/>
      <point x="164" y="285" type="line" smooth="yes"/>
      <point x="164" y="188"/>
      <point x="208" y="143"/>
      <point x="304" y="142" type="curve" smooth="yes"/>
      <point x="346" y="142" type="line" smooth="yes"/>
      <point x="442" y="143"/>
      <point x="486" y="188"/>
      <point x="486" y="285" type="curve" smooth="yes"/>
      <point x="486" y="297" type="line"/>
      <point x="350" y="297" type="line"/>
      <point x="350" y="280" type="line" smooth="yes"/>
      <point x="350" y="276"/>
      <point x="349" y="275"/>
      <point x="345" y="275" type="curve" smooth="yes"/>
      <point x="305" y="275" type="line" smooth="yes"/>
      <point x="301" y="275"/>
      <point x="300" y="276"/>
      <point x="300" y="280" type="curve" smooth="yes"/>
      <point x="300" y="349" type="line" smooth="yes"/>
      <point x="300" y="353"/>
      <point x="301" y="354"/>
      <point x="305" y="354" type="curve" smooth="yes"/>
      <point x="345" y="354" type="line" smooth="yes"/>
      <point x="349" y="354"/>
      <point x="350" y="353"/>
      <point x="350" y="349" type="curve" smooth="yes"/>
      <point x="350" y="333" type="line"/>
    </contour>
  </outline>
</glyph>
<glyph name="ordfeminine" format="2">
  <advance width="392"/>
  <unicode hex="00AA"/>
  <outline>
    <contour>
      <point x="276" y="567" type="line"/>
      <point x="276" y="656"/>
      <point x="233" y="700"/>
      <point x="165" y="700" type="curve" smooth="yes"/>
      <point x="60" y="700"/>
      <point x="20" y="659"/>
      <point x="20" y="557" type="curve" smooth="yes"/>
      <point x="20" y="492" type="line"/>
      <point x="156" y="492" type="line"/>
      <point x="156" y="562" type="line" smooth="yes"/>
      <point x="156" y="566"/>
      <point x="157" y="567"/>
      <point x="161" y="567" type="curve" smooth="yes"/>
    </contour>
    <contour>
      <point x="20" y="494" type="line"/>
      <point x="20" y="486" type="line" smooth="yes"/>
      <point x="20" y="384"/>
      <point x="61" y="343"/>
      <point x="164" y="343" type="curve" smooth="yes"/>
      <point x="180" y="343" type="line"/>
      <point x="270" y="476" type="line"/>
      <point x="161" y="476" type="line" smooth="yes"/>
      <point x="157" y="476"/>
      <point x="156" y="477"/>
      <point x="156" y="481" type="curve" smooth="yes"/>
      <point x="156" y="494" type="line"/>
    </contour>
    <contour>
      <point x="216" y="700" type="line"/>
      <point x="216" y="343" type="line"/>
      <point x="352" y="343" type="line"/>
      <point x="352" y="700" type="line"/>
    </contour>
    <contour>
      <point x="372" y="343" type="line"/>
      <point x="362" y="476" type="line"/>
      <point x="216" y="476" type="line"/>
      <point x="216" y="343" type="line"/>
    </contour>
    <contour>
      <point x="45" y="202" type="line"/>
      <point x="347" y="202" type="line"/>
      <point x="347" y="323" type="line"/>
      <point x="45" y="322" type="line"/>
    </contour>
  </outline>
</glyph>
<glyph name="guillemetleft" format="2">
  <advance width="439"/>
  <unicode hex="00AB"/>
  <outline>
    <contour>
      <point x="419" y="20" type="line"/>
      <point x="419" y="160" type="line"/>
      <point x="284" y="285" type="line"/>
      <point x="284" y="213" type="line"/>
      <point x="419" y="338" type="line"/>
      <point x="419" y="478" type="line"/>
      <point x="200" y="268" type="line"/>
      <point x="200" y="230" type="line"/>
    </contour>
    <contour>
      <point x="239" y="20" type="line"/>
      <point x="239" y="160" type="line"/>
      <point x="104" y="285" type="line"/>
      <point x="104" y="213" type="line"/>
      <point x="239" y="338" type="line"/>
      <point x="239" y="478" type="line"/>
      <point x="20" y="268" type="line"/>
      <point x="20" y="230" type="line"/>
    </contour>
  </outline>
</glyph>
<glyph name="logicalnot" format="2">
  <advance width="454"/>
  <unicode hex="00AC"/>
  <outline>
    <contour>
      <point x="20" y="252" type="line"/>
      <point x="434" y="252" type="line"/>
      <point x="434" y="388" type="line"/>
      <point x="20" y="388" type="line"/>
    </contour>
    <contour>
      <point x="298" y="164" type="line"/>
      <point x="434" y="164" type="line"/>
      <point x="434" y="388" type="line"/>
      <point x="298" y="388" type="line"/>
    </contour>
  </outline>
</glyph>
<glyph name="registered" format="2">
  <advance width="650"/>
  <unicode hex="00AE"/>
  <outline>
    <contour>
      <point x="188" y="308" type="line"/>
      <point x="311" y="308" type="line"/>
      <point x="311" y="663" type="line"/>
      <point x="188" y="663" type="line"/>
    </contour>
    <contour>
      <point x="462" y="519" type="curve" smooth="yes"/>
      <point x="462" y="520" type="line"/>
      <point x="339" y="520" type="line"/>
      <point x="339" y="516" type="line" smooth="yes"/>
      <point x="339" y="512"/>
      <point x="338" y="511"/>
      <point x="334" y="511" type="curve" smooth="yes"/>
      <point x="188" y="511" type="line"/>
      <point x="188" y="390" type="line"/>
      <point x="331" y="390" type="line" smooth="yes"/>
      <point x="425" y="390"/>
      <point x="462" y="426"/>
    </contour>
    <contour>
      <point x="331" y="663" type="curve" smooth="yes"/>
      <point x="279" y="663" type="line"/>
      <point x="279" y="542" type="line"/>
      <point x="334" y="542" type="line" smooth="yes"/>
      <point x="338" y="542"/>
      <point x="339" y="541"/>
      <point x="339" y="537" type="curve" smooth="yes"/>
      <point x="339" y="520" type="line"/>
      <point x="462" y="520" type="line"/>
      <point x="462" y="533" type="line" smooth="yes"/>
      <point x="462" y="625"/>
      <point x="425" y="663"/>
    </contour>
    <contour>
      <point x="171" y="542" type="line"/>
      <point x="311" y="542" type="line"/>
      <point x="311" y="663" type="line"/>
      <point x="183" y="663" type="line"/>
    </contour>
    <contour>
      <point x="356" y="308" type="line"/>
      <point x="480" y="308" type="line"/>
      <point x="414" y="483" type="line"/>
      <point x="291" y="483" type="line"/>
    </contour>
    <contour>
      <point x="114" y="171" type="curve" smooth="yes"/>
      <point x="535" y="171" type="line" smooth="yes"/>
      <point x="591" y="171"/>
      <point x="629" y="208"/>
      <point x="629" y="264" type="curve" smooth="yes"/>
      <point x="630" y="707" type="line" smooth="yes"/>
      <point x="630" y="763"/>
      <point x="592" y="800"/>
      <point x="536" y="800" type="curve" smooth="yes"/>
      <point x="114" y="800" type="line" smooth="yes"/>
      <point x="58" y="800"/>
      <point x="20" y="763"/>
      <point x="20" y="707" type="curve" smooth="yes"/>
      <point x="20" y="251" type="line" smooth="yes"/>
      <point x="20" y="203"/>
      <point x="58" y="171"/>
    </contour>
    <contour>
      <point x="149" y="294" type="line" smooth="yes"/>
      <point x="145" y="294"/>
      <point x="144" y="295"/>
      <point x="144" y="299" type="curve" smooth="yes"/>
      <point x="144" y="672" type="line" smooth="yes"/>
      <point x="144" y="676"/>
      <point x="145" y="677"/>
      <point x="149" y="677" type="curve" smooth="yes"/>
      <point x="501" y="677" type="line" smooth="yes"/>
      <point x="505" y="677"/>
      <point x="506" y="676"/>
      <point x="506" y="672" type="curve" smooth="yes"/>
      <point x="507" y="299" type="line" smooth="yes"/>
      <point x="507" y="295"/>
      <point x="506" y="294"/>
      <point x="502" y="294" type="curve" smooth="yes"/>
    </contour>
  </outline>
</glyph>
<glyph name="macron" format="2">
  <advance width="294"/>
  <unicode hex="00AF"/>
  <outline>
    <contour>
      <point x="20" y="726" type="line"/>
      <point x="274" y="726" type="line"/>
      <point x="274" y="815" type="line"/>
      <point x="20" y="815" type="line"/>
    </contour>
  </outline>
</glyph>
<glyph name="degree" format="2">
  <advance width="263"/>
  <unicode hex="00B0"/>
  <note>
degree
</note>
  <outline>
    <contour>
      <point x="132" y="425" type="curve" smooth="yes"/>
      <point x="205" y="425"/>
      <point x="243" y="472"/>
      <point x="243" y="562" type="curve" smooth="yes"/>
      <point x="243" y="653"/>
      <point x="205" y="700"/>
      <point x="132" y="700" type="curve" smooth="yes"/>
      <point x="58" y="700"/>
      <point x="20" y="653"/>
      <point x="20" y="562" type="curve" smooth="yes"/>
      <point x="20" y="472"/>
      <point x="58" y="425"/>
    </contour>
    <contour>
      <point x="131" y="519" type="curve" smooth="yes"/>
      <point x="115" y="519"/>
      <point x="106" y="534"/>
      <point x="106" y="562" type="curve" smooth="yes"/>
      <point x="106" y="592"/>
      <point x="115" y="607"/>
      <point x="131" y="607" type="curve" smooth="yes"/>
      <point x="149" y="607"/>
      <point x="158" y="592"/>
      <point x="158" y="562" type="curve" smooth="yes"/>
      <point x="158" y="534"/>
      <point x="149" y="519"/>
    </contour>
  </outline>
</glyph>
<glyph name="plusminus" format="2">
  <advance width="320"/>
  <unicode hex="00B1"/>
  <outline>
    <contour>
      <point x="98" y="299" type="line"/>
      <point x="222" y="299" type="line"/>
      <point x="222" y="579" type="line"/>
      <point x="98" y="579" type="line"/>
    </contour>
    <contour>
      <point x="30" y="134" type="line"/>
      <point x="290" y="134" type="line"/>
      <point x="290" y="255" type="line"/>
      <point x="30" y="254" type="line"/>
    </contour>
    <contour>
      <point x="20" y="379" type="line"/>
      <point x="300" y="379" type="line"/>
      <point x="300" y="500" type="line"/>
      <point x="20" y="500" type="line"/>
    </contour>
  </outline>
</glyph>
<glyph name="twosuperior" format="2">
  <advance width="207"/>
  <unicode hex="00B2"/>
  <outline>
    <contour>
      <point x="20" y="600" type="line"/>
      <point x="20" y="514" type="line"/>
      <point x="95" y="514" type="line" smooth="yes"/>
      <point x="98" y="514"/>
      <point x="99" y="513"/>
      <point x="99" y="510" type="curve" smooth="yes"/>
      <point x="99" y="488" type="line"/>
      <point x="187" y="488" type="line"/>
      <point x="187" y="540" type="line" smooth="yes"/>
      <point x="187" y="576"/>
      <point x="162" y="600"/>
      <point x="126" y="600" type="curve" smooth="yes"/>
    </contour>
    <contour>
      <point x="187" y="466" type="curve" smooth="yes"/>
      <point x="187" y="505" type="line"/>
      <point x="99" y="505" type="line"/>
      <point x="99" y="495" type="line" smooth="yes"/>
      <point x="99" y="493"/>
      <point x="98" y="492"/>
      <point x="95" y="492" type="curve" smooth="yes"/>
      <point x="85" y="492" type="line"/>
      <point x="85" y="406" type="line"/>
      <point x="126" y="406" type="line" smooth="yes"/>
      <point x="162" y="406"/>
      <point x="187" y="429"/>
    </contour>
    <contour>
      <point x="20" y="432" type="curve" smooth="yes"/>
      <point x="20" y="321" type="line"/>
      <point x="102" y="321" type="line"/>
      <point x="102" y="402" type="line" smooth="yes"/>
      <point x="102" y="405"/>
      <point x="102" y="406"/>
      <point x="105" y="406" type="curve" smooth="yes"/>
      <point x="112" y="406" type="line"/>
      <point x="112" y="492" type="line"/>
      <point x="82" y="492" type="line" smooth="yes"/>
      <point x="45" y="492"/>
      <point x="20" y="468"/>
    </contour>
    <contour>
      <point x="187" y="300" type="line"/>
      <point x="187" y="386" type="line"/>
      <point x="20" y="386" type="line"/>
      <point x="20" y="300" type="line"/>
    </contour>
  </outline>
</glyph>
<glyph name="threesuperior" format="2">
  <advance width="207"/>
  <unicode hex="00B3"/>
  <outline>
    <contour>
      <point x="20" y="302" type="line"/>
      <point x="126" y="302" type="line" smooth="yes"/>
      <point x="162" y="302"/>
      <point x="187" y="326"/>
      <point x="187" y="362" type="curve" smooth="yes"/>
      <point x="187" y="540" type="line" smooth="yes"/>
      <point x="187" y="576"/>
      <point x="162" y="600"/>
      <point x="126" y="600" type="curve" smooth="yes"/>
      <point x="20" y="600" type="line"/>
      <point x="20" y="514" type="line"/>
      <point x="95" y="514" type="line" smooth="yes"/>
      <point x="98" y="514"/>
      <point x="99" y="513"/>
      <point x="99" y="510" type="curve" smooth="yes"/>
      <point x="99" y="392" type="line" smooth="yes"/>
      <point x="99" y="389"/>
      <point x="98" y="388"/>
      <point x="95" y="388" type="curve" smooth="yes"/>
      <point x="20" y="388" type="line"/>
    </contour>
    <contour>
      <point x="39" y="409" type="line"/>
      <point x="187" y="409" type="line"/>
      <point x="187" y="492" type="line"/>
      <point x="39" y="492" type="line"/>
    </contour>
  </outline>
</glyph>
<glyph name="acute" format="2">
  <advance width="183"/>
  <unicode hex="00B4"/>
  <outline>
    <contour>
      <point x="20" y="720" type="line"/>
      <point x="127" y="720" type="line"/>
      <point x="163" y="826" type="line"/>
      <point x="56" y="826" type="line"/>
    </contour>
  </outline>
</glyph>
<glyph name="micro" format="2">
  <advance width="412"/>
  <unicode hex="00B5"/>
  <outline>
    <contour>
      <point x="40" y="-132" type="line"/>
      <point x="176" y="-132" type="line"/>
      <point x="176" y="500" type="line"/>
      <point x="40" y="500" type="line"/>
    </contour>
    <contour>
      <point x="236" y="0" type="line"/>
      <point x="392" y="0" type="line"/>
      <point x="382" y="133" type="line"/>
      <point x="236" y="133" type="line"/>
    </contour>
    <contour>
      <point x="20" y="367" type="line"/>
      <point x="176" y="367" type="line"/>
      <point x="176" y="500" type="line"/>
      <point x="30" y="500" type="line"/>
    </contour>
    <contour>
      <point x="236" y="0" type="line"/>
      <point x="372" y="0" type="line"/>
      <point x="372" y="500" type="line"/>
      <point x="236" y="500" type="line"/>
    </contour>
    <contour>
      <point x="290" y="133" type="line"/>
      <point x="181" y="133" type="line" smooth="yes"/>
      <point x="177" y="133"/>
      <point x="176" y="134"/>
      <point x="176" y="138" type="curve" smooth="yes"/>
      <point x="176" y="500" type="line"/>
      <point x="40" y="500" type="line"/>
      <point x="40" y="143" type="line" smooth="yes"/>
      <point x="40" y="41"/>
      <point x="81" y="0"/>
      <point x="184" y="0" type="curve" smooth="yes"/>
      <point x="200" y="0" type="line"/>
    </contour>
  </outline>
</glyph>
<glyph name="paragraph" format="2">
  <advance width="517"/>
  <unicode hex="00B6"/>
  <outline>
    <contour>
      <point x="185" y="0" type="line"/>
      <point x="321" y="0" type="line"/>
      <point x="321" y="700" type="line"/>
      <point x="185" y="700" type="line"/>
    </contour>
    <contour>
      <point x="477" y="700" type="line"/>
      <point x="341" y="700" type="line"/>
      <point x="341" y="0" type="line"/>
      <point x="477" y="0" type="line"/>
    </contour>
    <contour>
      <point x="507" y="567" type="line"/>
      <point x="497" y="700" type="line"/>
      <point x="237" y="700" type="line"/>
      <point x="227" y="567" type="line"/>
    </contour>
    <contour>
      <point x="507" y="0" type="line"/>
      <point x="497" y="133" type="line"/>
      <point x="341" y="133" type="line"/>
      <point x="341" y="0" type="line"/>
    </contour>
    <contour>
      <point x="351" y="567" type="line"/>
      <point x="337" y="700" type="line"/>
      <point x="154" y="700" type="line" smooth="yes"/>
      <point x="51" y="700"/>
      <point x="10" y="657"/>
      <point x="10" y="557" type="curve" smooth="yes"/>
      <point x="10" y="444" type="line"/>
      <point x="146" y="444" type="line"/>
      <point x="146" y="562" type="line" smooth="yes"/>
      <point x="146" y="566"/>
      <point x="147" y="567"/>
      <point x="151" y="567" type="curve" smooth="yes"/>
    </contour>
    <contour>
      <point x="362" y="186" type="line"/>
      <point x="362" y="319" type="line"/>
      <point x="151" y="319" type="line" smooth="yes"/>
      <point x="147" y="319"/>
      <point x="146" y="320"/>
      <point x="146" y="324" type="curve" smooth="yes"/>
      <point x="146" y="444" type="line"/>
      <point x="10" y="444" type="line"/>
      <point x="10" y="329" type="line" smooth="yes"/>
      <point x="10" y="227"/>
      <point x="51" y="186"/>
      <point x="154" y="186" type="curve" smooth="yes"/>
    </contour>
  </outline>
</glyph>
<glyph name="periodcentered" format="2">
  <advance width="240"/>
  <unicode hex="00B7"/>
  <note>
middot
</note>
  <outline>
    <contour>
      <point x="20" y="200" type="line"/>
      <point x="220" y="200" type="line"/>
      <point x="220" y="400" type="line"/>
      <point x="20" y="400" type="line"/>
    </contour>
  </outline>
</glyph>
<glyph name="cedilla" format="2">
  <advance width="163"/>
  <unicode hex="00B8"/>
  <outline>
    <contour>
      <point x="20" y="-106" type="line"/>
      <point x="103" y="-106" type="line" smooth="yes"/>
      <point x="126" y="-106"/>
      <point x="143" y="-96"/>
      <point x="143" y="-81" type="curve" smooth="yes"/>
      <point x="143" y="-59" type="line"/>
      <point x="95" y="-59" type="line"/>
      <point x="95" y="-93" type="line"/>
      <point x="113" y="-70" type="line"/>
      <point x="50" y="-70" type="line"/>
      <point x="68" y="-93" type="line"/>
      <point x="68" y="-55" type="line"/>
      <point x="20" y="-55" type="line"/>
    </contour>
    <contour>
      <point x="106" y="1" type="line"/>
      <point x="58" y="1" type="line"/>
      <point x="58" y="-23" type="line" smooth="yes"/>
      <point x="58" y="-40"/>
      <point x="69" y="-50"/>
      <point x="89" y="-50" type="curve" smooth="yes"/>
      <point x="95" y="-50" type="line"/>
      <point x="95" y="-70" type="line"/>
      <point x="143" y="-70" type="line"/>
      <point x="143" y="-50" type="line" smooth="yes"/>
      <point x="143" y="-32"/>
      <point x="126" y="-17"/>
      <point x="107" y="-17" type="curve" smooth="yes"/>
      <point x="106" y="-17" type="line"/>
    </contour>
  </outline>
</glyph>
<glyph name="onesuperior" format="2">
  <advance width="177"/>
  <unicode hex="00B9"/>
  <outline>
    <contour>
      <point x="42" y="300" type="line"/>
      <point x="137" y="300" type="line"/>
      <point x="137" y="595" type="line"/>
      <point x="42" y="595" type="line"/>
    </contour>
    <contour>
      <point x="23" y="300" type="line"/>
      <point x="157" y="300" type="line"/>
      <point x="157" y="393" type="line"/>
      <point x="23" y="393" type="line"/>
    </contour>
    <contour>
      <point x="20" y="501" type="line"/>
      <point x="137" y="501" type="line"/>
      <point x="137" y="595" type="line"/>
      <point x="34" y="595" type="line"/>
    </contour>
  </outline>
</glyph>
<glyph name="ordmasculine" format="2">
  <advance width="342"/>
  <unicode hex="00BA"/>
  <outline>
    <contour>
      <point x="40" y="202" type="line"/>
      <point x="302" y="202" type="line"/>
      <point x="302" y="323" type="line"/>
      <point x="40" y="322" type="line"/>
    </contour>
    <contour>
      <point x="178" y="700" type="curve" smooth="yes"/>
      <point x="160" y="700" type="line" smooth="yes"/>
      <point x="60" y="700"/>
      <point x="20" y="657.669"/>
      <point x="20" y="557" type="curve" smooth="yes"/>
      <point x="20" y="516" type="line"/>
      <point x="156" y="516" type="line"/>
      <point x="156" y="564" type="line" smooth="yes"/>
      <point x="156" y="566"/>
      <point x="157" y="567"/>
      <point x="159" y="567" type="curve" smooth="yes"/>
      <point x="183" y="567" type="line" smooth="yes"/>
      <point x="185" y="567"/>
      <point x="186" y="566"/>
      <point x="186" y="564" type="curve" smooth="yes"/>
      <point x="186" y="516" type="line"/>
      <point x="322" y="516" type="line"/>
      <point x="322" y="557" type="line" smooth="yes"/>
      <point x="322" y="659"/>
      <point x="281" y="700"/>
    </contour>
    <contour>
      <point x="160" y="342.021" type="curve" smooth="yes"/>
      <point x="178" y="342" type="line" smooth="yes"/>
      <point x="281" y="342"/>
      <point x="322" y="383"/>
      <point x="322" y="485" type="curve" smooth="yes"/>
      <point x="322" y="516" type="line"/>
      <point x="186" y="516" type="line"/>
      <point x="186" y="478" type="line" smooth="yes"/>
      <point x="186" y="476"/>
      <point x="185" y="475"/>
      <point x="183" y="475" type="curve" smooth="yes"/>
      <point x="159" y="475" type="line" smooth="yes"/>
      <point x="157" y="475"/>
      <point x="156" y="476"/>
      <point x="156" y="478" type="curve" smooth="yes"/>
      <point x="156" y="516" type="line"/>
      <point x="20" y="516" type="line"/>
      <point x="20" y="485" type="line" smooth="yes"/>
      <point x="20" y="384.331"/>
      <point x="60" y="342"/>
    </contour>
  </outline>
</glyph>
<glyph name="guillemetright" format="2">
  <advance width="448"/>
  <unicode hex="00BB"/>
  <outline>
    <contour>
      <point x="200" y="20" type="line"/>
      <point x="419" y="230" type="line"/>
      <point x="419" y="268" type="line"/>
      <point x="200" y="478" type="line"/>
      <point x="200" y="338" type="line"/>
      <point x="335" y="213" type="line"/>
      <point x="335" y="285" type="line"/>
      <point x="200" y="160" type="line"/>
    </contour>
    <contour>
      <point x="20" y="20" type="line"/>
      <point x="239" y="230" type="line"/>
      <point x="239" y="268" type="line"/>
      <point x="20" y="478" type="line"/>
      <point x="20" y="338" type="line"/>
      <point x="155" y="213" type="line"/>
      <point x="155" y="285" type="line"/>
      <point x="20" y="160" type="line"/>
    </contour>
  </outline>
</glyph>
<glyph name="onequarter" format="2">
  <advance width="606"/>
  <unicode hex="00BC"/>
  <outline>
    <contour>
      <point x="20" y="0" type="line"/>
      <point x="153" y="0" type="line"/>
      <point x="530" y="600" type="line"/>
      <point x="396" y="600" type="line"/>
    </contour>
    <contour>
      <point x="64" y="300" type="line"/>
      <point x="159" y="300" type="line"/>
      <point x="159" y="595" type="line"/>
      <point x="64" y="595" type="line"/>
    </contour>
    <contour>
      <point x="45" y="300" type="line"/>
      <point x="179" y="300" type="line"/>
      <point x="179" y="393" type="line"/>
      <point x="45" y="393" type="line"/>
    </contour>
    <contour>
      <point x="42" y="501" type="line"/>
      <point x="159" y="501" type="line"/>
      <point x="159" y="595" type="line"/>
      <point x="56" y="595" type="line"/>
    </contour>
    <contour>
      <point x="477" y="1" type="line"/>
      <point x="572" y="1" type="line"/>
      <point x="572" y="301" type="line"/>
      <point x="477" y="301" type="line"/>
    </contour>
    <contour>
      <point x="586" y="71" type="line"/>
      <point x="462" y="71" type="line"/>
      <point x="462" y="1" type="line"/>
      <point x="586" y="1" type="line"/>
    </contour>
    <contour>
      <point x="586" y="92" type="line"/>
      <point x="586" y="182" type="line"/>
      <point x="376" y="182" type="line"/>
      <point x="435" y="118" type="line"/>
      <point x="460" y="301" type="line"/>
      <point x="370" y="301" type="line"/>
      <point x="346" y="158" type="line" smooth="yes"/>
      <point x="339" y="118"/>
      <point x="368" y="92"/>
      <point x="406" y="92" type="curve" smooth="yes"/>
    </contour>
  </outline>
</glyph>
<glyph name="onehalf" format="2">
  <advance width="556"/>
  <unicode hex="00BD"/>
  <outline>
    <contour>
      <point x="20" y="0" type="line"/>
      <point x="153" y="0" type="line"/>
      <point x="530" y="600" type="line"/>
      <point x="396" y="600" type="line"/>
    </contour>
    <contour>
      <point x="64" y="300" type="line"/>
      <point x="159" y="300" type="line"/>
      <point x="159" y="595" type="line"/>
      <point x="64" y="595" type="line"/>
    </contour>
    <contour>
      <point x="45" y="300" type="line"/>
      <point x="179" y="300" type="line"/>
      <point x="179" y="393" type="line"/>
      <point x="45" y="393" type="line"/>
    </contour>
    <contour>
      <point x="42" y="501" type="line"/>
      <point x="159" y="501" type="line"/>
      <point x="159" y="595" type="line"/>
      <point x="56" y="595" type="line"/>
    </contour>
    <contour>
      <point x="369" y="300" type="line"/>
      <point x="369" y="214" type="line"/>
      <point x="444" y="214" type="line" smooth="yes"/>
      <point x="447" y="214"/>
      <point x="448" y="213"/>
      <point x="448" y="210" type="curve" smooth="yes"/>
      <point x="448" y="188" type="line"/>
      <point x="536" y="188" type="line"/>
      <point x="536" y="240" type="line" smooth="yes"/>
      <point x="536" y="276"/>
      <point x="511" y="300"/>
      <point x="475" y="300" type="curve" smooth="yes"/>
    </contour>
    <contour>
      <point x="536" y="166" type="curve" smooth="yes"/>
      <point x="536" y="205" type="line"/>
      <point x="448" y="205" type="line"/>
      <point x="448" y="195" type="line" smooth="yes"/>
      <point x="448" y="193"/>
      <point x="447" y="192"/>
      <point x="444" y="192" type="curve" smooth="yes"/>
      <point x="434" y="192" type="line"/>
      <point x="434" y="106" type="line"/>
      <point x="475" y="106" type="line" smooth="yes"/>
      <point x="511" y="106"/>
      <point x="536" y="129"/>
    </contour>
    <contour>
      <point x="369" y="132" type="curve" smooth="yes"/>
      <point x="369" y="21" type="line"/>
      <point x="451" y="21" type="line"/>
      <point x="451" y="102" type="line" smooth="yes"/>
      <point x="451" y="105"/>
      <point x="451" y="106"/>
      <point x="454" y="106" type="curve" smooth="yes"/>
      <point x="461" y="106" type="line"/>
      <point x="461" y="192" type="line"/>
      <point x="431" y="192" type="line" smooth="yes"/>
      <point x="394" y="192"/>
      <point x="369" y="168"/>
    </contour>
    <contour>
      <point x="536" y="0" type="line"/>
      <point x="536" y="86" type="line"/>
      <point x="369" y="86" type="line"/>
      <point x="369" y="0" type="line"/>
    </contour>
  </outline>
</glyph>
<glyph name="threequarters" format="2">
  <advance width="604"/>
  <unicode hex="00BE"/>
  <outline>
    <contour>
      <point x="20" y="0" type="line"/>
      <point x="153" y="0" type="line"/>
      <point x="530" y="600" type="line"/>
      <point x="396" y="600" type="line"/>
    </contour>
    <contour>
      <point x="460" y="1" type="line"/>
      <point x="584" y="1" type="line"/>
      <point x="584" y="71" type="line"/>
      <point x="460" y="71" type="line"/>
    </contour>
    <contour>
      <point x="475" y="1" type="line"/>
      <point x="570" y="1" type="line"/>
      <point x="570" y="301" type="line"/>
      <point x="475" y="301" type="line"/>
    </contour>
    <contour>
      <point x="584" y="92" type="line"/>
      <point x="584" y="182" type="line"/>
      <point x="374" y="182" type="line"/>
      <point x="433" y="118" type="line"/>
      <point x="458" y="301" type="line"/>
      <point x="368" y="301" type="line"/>
      <point x="344" y="158" type="line" smooth="yes"/>
      <point x="337" y="118"/>
      <point x="366" y="92"/>
      <point x="404" y="92" type="curve" smooth="yes"/>
    </contour>
    <contour>
      <point x="29" y="302" type="line"/>
      <point x="135" y="302" type="line" smooth="yes"/>
      <point x="171" y="302"/>
      <point x="196" y="326"/>
      <point x="196" y="362" type="curve" smooth="yes"/>
      <point x="196" y="540" type="line" smooth="yes"/>
      <point x="196" y="576"/>
      <point x="171" y="600"/>
      <point x="135" y="600" type="curve" smooth="yes"/>
      <point x="29" y="600" type="line"/>
      <point x="29" y="514" type="line"/>
      <point x="104" y="514" type="line" smooth="yes"/>
      <point x="107" y="514"/>
      <point x="108" y="513"/>
      <point x="108" y="510" type="curve" smooth="yes"/>
      <point x="108" y="392" type="line" smooth="yes"/>
      <point x="108" y="389"/>
      <point x="107" y="388"/>
      <point x="104" y="388" type="curve" smooth="yes"/>
      <point x="29" y="388" type="line"/>
    </contour>
    <contour>
      <point x="48" y="409" type="line"/>
      <point x="196" y="409" type="line"/>
      <point x="196" y="492" type="line"/>
      <point x="48" y="492" type="line"/>
    </contour>
  </outline>
</glyph>
<glyph name="AE" format="2">
  <advance width="600"/>
  <unicode hex="00C6"/>
  <anchor x="300" y="0" name="bottom"/>
  <anchor x="300" y="700" name="top"/>
  <outline>
    <contour>
      <point x="277" y="567" type="line"/>
      <point x="550" y="567" type="line"/>
      <point x="558" y="700" type="line"/>
      <point x="277" y="700" type="line"/>
    </contour>
    <contour>
      <point x="62" y="567" type="line"/>
      <point x="308" y="567" type="line"/>
      <point x="308" y="700" type="line"/>
      <point x="76" y="700" type="line"/>
    </contour>
    <contour>
      <point x="277" y="284" type="line"/>
      <point x="528" y="284" type="line"/>
      <point x="536" y="417" type="line"/>
      <point x="277" y="417" type="line"/>
    </contour>
    <contour>
      <point x="277" y="0" type="line"/>
      <point x="550" y="0" type="line"/>
      <point x="558" y="133" type="line"/>
      <point x="277" y="133" type="line"/>
    </contour>
    <contour>
      <point x="277" y="0" type="line"/>
      <point x="412" y="0" type="line"/>
      <point x="309" y="700" type="line"/>
      <point x="174" y="700" type="line"/>
    </contour>
    <contour>
      <point x="0" y="0" type="line"/>
      <point x="135" y="0" type="line"/>
      <point x="238" y="700" type="line"/>
      <point x="103" y="700" type="line"/>
    </contour>
    <contour>
      <point x="91" y="100" type="line"/>
      <point x="320" y="100" type="line"/>
      <point x="320" y="233" type="line"/>
      <point x="91" y="233" type="line"/>
    </contour>
  </outline>
</glyph>
<glyph name="Eth" format="2">
  <advance width="404"/>
  <unicode hex="00D0"/>
  <outline>
    <contour>
      <point x="20" y="290" type="line"/>
      <point x="222" y="290" type="line"/>
      <point x="222" y="411" type="line"/>
      <point x="20" y="410" type="line"/>
    </contour>
    <contour>
      <point x="240" y="700" type="curve" smooth="yes"/>
      <point x="47" y="700" type="line"/>
      <point x="33" y="567" type="line"/>
      <point x="243" y="567" type="line" smooth="yes"/>
      <point x="247" y="567"/>
      <point x="248" y="566"/>
      <point x="248" y="562" type="curve" smooth="yes"/>
      <point x="248" y="339" type="line"/>
      <point x="384" y="339" type="line"/>
      <point x="384" y="557" type="line" smooth="yes"/>
      <point x="384" y="659"/>
      <point x="343" y="700"/>
    </contour>
    <contour>
      <point x="384" y="143" type="curve" smooth="yes"/>
      <point x="384" y="347" type="line"/>
      <point x="248" y="347" type="line"/>
      <point x="248" y="138" type="line" smooth="yes"/>
      <point x="248" y="134"/>
      <point x="247" y="133"/>
      <point x="243" y="133" type="curve" smooth="yes"/>
      <point x="52" y="133" type="line"/>
      <point x="52" y="0" type="line"/>
      <point x="240" y="0" type="line" smooth="yes"/>
      <point x="343" y="0"/>
      <point x="384" y="41"/>
    </contour>
    <contour>
      <point x="52" y="700" type="line"/>
      <point x="52" y="0" type="line"/>
      <point x="188" y="0" type="line"/>
      <point x="188" y="700" type="line"/>
    </contour>
  </outline>
</glyph>
<glyph name="multiply" format="2">
  <advance width="328"/>
  <unicode hex="00D7"/>
  <outline>
    <contour>
      <point x="93" y="157" type="line"/>
      <point x="20" y="231" type="line"/>
      <point x="233" y="447" type="line"/>
      <point x="308" y="373" type="line"/>
    </contour>
    <contour>
      <point x="235" y="157" type="line"/>
      <point x="20" y="373" type="line"/>
      <point x="95" y="447" type="line"/>
      <point x="308" y="231" type="line"/>
    </contour>
  </outline>
</glyph>
<glyph name="Thorn" format="2">
  <advance width="362"/>
  <unicode hex="00DE"/>
  <outline>
    <contour>
      <point x="20" y="4" type="line"/>
      <point x="156" y="4" type="line"/>
      <point x="156" y="800" type="line"/>
      <point x="20" y="800" type="line"/>
    </contour>
    <contour>
      <point x="20" y="3" type="line"/>
      <point x="156" y="3" type="line"/>
      <point x="156" y="800" type="line"/>
      <point x="20" y="800" type="line"/>
    </contour>
    <contour>
      <point x="20" y="143" type="line"/>
      <point x="198" y="143" type="line" smooth="yes"/>
      <point x="301" y="143"/>
      <point x="342" y="184"/>
      <point x="342" y="286" type="curve" smooth="yes"/>
      <point x="342" y="401" type="line"/>
      <point x="206" y="401" type="line"/>
      <point x="206" y="281" type="line" smooth="yes"/>
      <point x="206" y="277"/>
      <point x="205" y="276"/>
      <point x="201" y="276" type="curve" smooth="yes"/>
      <point x="20" y="276" type="line"/>
    </contour>
    <contour>
      <point x="20" y="661" type="line"/>
      <point x="20" y="528" type="line"/>
      <point x="201" y="528" type="line" smooth="yes"/>
      <point x="205" y="528"/>
      <point x="206" y="527"/>
      <point x="206" y="523" type="curve" smooth="yes"/>
      <point x="206" y="403" type="line"/>
      <point x="342" y="403" type="line"/>
      <point x="342" y="518" type="line" smooth="yes"/>
      <point x="342" y="620"/>
      <point x="301" y="661"/>
      <point x="198" y="661" type="curve" smooth="yes"/>
    </contour>
  </outline>
</glyph>
<glyph name="germandbls" format="2">
  <advance width="484"/>
  <unicode hex="00DF"/>
  <outline>
    <contour>
      <point x="20" y="0" type="line"/>
      <point x="156" y="0" type="line"/>
      <point x="156" y="649" type="line"/>
      <point x="71" y="567" type="line"/>
      <point x="158" y="567" type="line"/>
      <point x="158" y="700" type="line"/>
      <point x="114" y="700" type="line" smooth="yes"/>
      <point x="58" y="700"/>
      <point x="20" y="663"/>
      <point x="20" y="607" type="curve" smooth="yes"/>
    </contour>
    <contour>
      <point x="202" y="0" type="line"/>
      <point x="370" y="0" type="line" smooth="yes"/>
      <point x="426" y="0"/>
      <point x="464" y="37"/>
      <point x="464" y="93" type="curve" smooth="yes"/>
      <point x="464" y="252" type="line" smooth="yes"/>
      <point x="464" y="297"/>
      <point x="442" y="316"/>
      <point x="410" y="328" type="curve" smooth="yes"/>
      <point x="344" y="352" type="line"/>
      <point x="344" y="356" type="line"/>
      <point x="350" y="359" type="line" smooth="yes"/>
      <point x="362" y="365"/>
      <point x="368" y="381"/>
      <point x="368" y="416" type="curve" smooth="yes"/>
      <point x="368" y="577" type="line" smooth="yes"/>
      <point x="368" y="659"/>
      <point x="327" y="700"/>
      <point x="224" y="700" type="curve" smooth="yes"/>
      <point x="146" y="700" type="line"/>
      <point x="146" y="567" type="line"/>
      <point x="213" y="567" type="line" smooth="yes"/>
      <point x="218" y="567"/>
      <point x="222" y="563"/>
      <point x="222" y="557" type="curve" smooth="yes"/>
      <point x="222" y="428" type="line"/>
      <point x="201" y="412" type="line" smooth="yes"/>
      <point x="191" y="404"/>
      <point x="182" y="394"/>
      <point x="182" y="370" type="curve" smooth="yes"/>
      <point x="182" y="297" type="line" smooth="yes"/>
      <point x="182" y="262"/>
      <point x="197" y="253"/>
      <point x="232" y="242" type="curve" smooth="yes"/>
      <point x="328" y="213" type="line"/>
      <point x="328" y="138" type="line" smooth="yes"/>
      <point x="328" y="134"/>
      <point x="327" y="133"/>
      <point x="323" y="133" type="curve" smooth="yes"/>
      <point x="202" y="133" type="line"/>
    </contour>
  </outline>
</glyph>
<glyph name="ae" format="2">
  <advance width="568"/>
  <unicode hex="00E6"/>
  <outline>
    <contour>
      <point x="216" y="0" type="line"/>
      <point x="352" y="0" type="line"/>
      <point x="352" y="500" type="line"/>
      <point x="216" y="500" type="line"/>
    </contour>
    <contour>
      <point x="20" y="249" type="line"/>
      <point x="156" y="249" type="line"/>
      <point x="156" y="362" type="line" smooth="yes"/>
      <point x="156" y="366"/>
      <point x="157" y="367"/>
      <point x="161" y="367" type="curve" smooth="yes"/>
      <point x="276" y="367" type="line"/>
      <point x="276" y="391" type="line" smooth="yes"/>
      <point x="276" y="456"/>
      <point x="233" y="500"/>
      <point x="169" y="500" type="curve" smooth="yes"/>
      <point x="160" y="500" type="line" smooth="yes"/>
      <point x="60" y="500"/>
      <point x="20" y="459"/>
      <point x="20" y="357" type="curve" smooth="yes"/>
    </contour>
    <contour>
      <point x="216" y="357" type="curve" smooth="yes"/>
      <point x="216" y="254" type="line"/>
      <point x="352" y="254" type="line"/>
      <point x="352" y="362" type="line" smooth="yes"/>
      <point x="352" y="366"/>
      <point x="353" y="367"/>
      <point x="357" y="367" type="curve" smooth="yes"/>
      <point x="398" y="367" type="line"/>
      <point x="398" y="500" type="line"/>
      <point x="360" y="500" type="line" smooth="yes"/>
      <point x="257" y="500"/>
      <point x="216" y="459"/>
    </contour>
    <contour>
      <point x="164" y="0" type="curve" smooth="yes"/>
      <point x="180" y="0" type="line"/>
      <point x="270" y="133" type="line"/>
      <point x="161" y="133" type="line" smooth="yes"/>
      <point x="157" y="133"/>
      <point x="156" y="134"/>
      <point x="156" y="138" type="curve" smooth="yes"/>
      <point x="156" y="251" type="line"/>
      <point x="20" y="251" type="line"/>
      <point x="20" y="143" type="line" smooth="yes"/>
      <point x="20" y="41"/>
      <point x="61" y="0"/>
    </contour>
    <contour>
      <point x="548" y="143" type="curve" smooth="yes"/>
      <point x="548" y="163" type="line"/>
      <point x="412" y="163" type="line"/>
      <point x="412" y="138" type="line" smooth="yes"/>
      <point x="412" y="134"/>
      <point x="411" y="133"/>
      <point x="407" y="133" type="curve" smooth="yes"/>
      <point x="366" y="133" type="line"/>
      <point x="366" y="0" type="line"/>
      <point x="404" y="0" type="line" smooth="yes"/>
      <point x="507" y="0"/>
      <point x="548" y="41"/>
    </contour>
    <contour>
      <point x="216" y="143" type="line" smooth="yes"/>
      <point x="216" y="40"/>
      <point x="257" y="0"/>
      <point x="360" y="0" type="curve" smooth="yes"/>
      <point x="398" y="0" type="line"/>
      <point x="398" y="133" type="line"/>
      <point x="357" y="133" type="line" smooth="yes"/>
      <point x="353" y="133"/>
      <point x="352" y="134"/>
      <point x="352" y="138" type="curve" smooth="yes"/>
      <point x="352" y="262" type="line"/>
      <point x="216" y="262" type="line"/>
    </contour>
    <contour>
      <point x="548" y="357" type="line" smooth="yes"/>
      <point x="548" y="459"/>
      <point x="507" y="500"/>
      <point x="404" y="500" type="curve" smooth="yes"/>
      <point x="366" y="500" type="line"/>
      <point x="366" y="367" type="line"/>
      <point x="407" y="367" type="line" smooth="yes"/>
      <point x="411" y="367"/>
      <point x="412" y="366"/>
      <point x="412" y="362" type="curve" smooth="yes"/>
      <point x="412" y="207" type="line"/>
      <point x="548" y="207" type="line"/>
    </contour>
    <contour>
      <point x="548" y="297" type="line"/>
      <point x="216" y="297" type="line"/>
      <point x="216" y="184" type="line"/>
      <point x="548" y="184" type="line"/>
    </contour>
    <contour>
      <point x="216" y="0" type="line"/>
      <point x="372" y="0" type="line"/>
      <point x="362" y="133" type="line"/>
      <point x="216" y="133" type="line"/>
    </contour>
  </outline>
</glyph>
<glyph name="divide" format="2">
  <advance width="370"/>
  <unicode hex="00F7"/>
  <outline>
    <contour>
      <point x="20" y="241" type="line"/>
      <point x="350" y="241" type="line"/>
      <point x="350" y="362" type="line"/>
      <point x="20" y="361" type="line"/>
    </contour>
    <contour>
      <point x="134" y="103" type="line"/>
      <point x="237" y="103" type="line"/>
      <point x="237" y="206" type="line"/>
      <point x="134" y="206" type="line"/>
    </contour>
    <contour>
      <point x="134" y="397" type="line"/>
      <point x="237" y="397" type="line"/>
      <point x="237" y="500" type="line"/>
      <point x="134" y="500" type="line"/>
    </contour>
  </outline>
</glyph>
<glyph name="thorn" format="2">
  <advance width="392"/>
  <unicode hex="00FE"/>
  <outline>
    <contour>
      <point x="40" y="-132" type="line"/>
      <point x="176" y="-132" type="line"/>
      <point x="176" y="700" type="line"/>
      <point x="40" y="700" type="line"/>
    </contour>
    <contour>
      <point x="20" y="567" type="line"/>
      <point x="176" y="567" type="line"/>
      <point x="176" y="700" type="line"/>
      <point x="30" y="700" type="line"/>
    </contour>
    <contour>
      <point x="372" y="143" type="curve" smooth="yes"/>
      <point x="372" y="251" type="line"/>
      <point x="236" y="251" type="line"/>
      <point x="236" y="138" type="line" smooth="yes"/>
      <point x="236" y="134"/>
      <point x="235" y="133"/>
      <point x="231" y="133" type="curve" smooth="yes"/>
      <point x="116" y="133" type="line"/>
      <point x="116" y="125"/>
      <point x="116" y="117"/>
      <point x="116" y="109" type="curve" smooth="yes"/>
      <point x="116" y="44"/>
      <point x="159" y="0"/>
      <point x="223" y="0" type="curve" smooth="yes"/>
      <point x="232" y="0" type="line" smooth="yes"/>
      <point x="332" y="0"/>
      <point x="372" y="41"/>
    </contour>
    <contour>
      <point x="122" y="367" type="line"/>
      <point x="231" y="367" type="line" smooth="yes"/>
      <point x="235" y="367"/>
      <point x="236" y="366"/>
      <point x="236" y="362" type="curve" smooth="yes"/>
      <point x="236" y="249" type="line"/>
      <point x="372" y="249" type="line"/>
      <point x="372" y="357" type="line" smooth="yes"/>
      <point x="372" y="459"/>
      <point x="331" y="500"/>
      <point x="228" y="500" type="curve" smooth="yes"/>
      <point x="212" y="500" type="line"/>
    </contour>
  </outline>
</glyph>
<glyph name="idotless" format="2">
  <advance width="192"/>
  <unicode hex="0131"/>
  <outline>
    <contour>
      <point x="36" y="0" type="line"/>
      <point x="172" y="0" type="line"/>
      <point x="172" y="500" type="line"/>
      <point x="36" y="500" type="line"/>
    </contour>
    <contour>
      <point x="20" y="367" type="line"/>
      <point x="172" y="367" type="line"/>
      <point x="172" y="500" type="line"/>
      <point x="30" y="500" type="line"/>
    </contour>
  </outline>
</glyph>
<glyph name="OE" format="2">
  <advance width="517"/>
  <unicode hex="0152"/>
  <outline>
    <contour>
      <point x="352" y="561" type="line" smooth="yes"/>
      <point x="352" y="663"/>
      <point x="311" y="704"/>
      <point x="208" y="704" type="curve" smooth="yes"/>
      <point x="164" y="704" type="line" smooth="yes"/>
      <point x="61" y="704"/>
      <point x="20" y="663"/>
      <point x="20" y="561" type="curve" smooth="yes"/>
      <point x="20" y="292" type="line"/>
      <point x="156" y="292" type="line"/>
      <point x="156" y="566" type="line" smooth="yes"/>
      <point x="156" y="570"/>
      <point x="157" y="571"/>
      <point x="161" y="571" type="curve" smooth="yes"/>
      <point x="211" y="571" type="line" smooth="yes"/>
      <point x="215" y="571"/>
      <point x="216" y="570"/>
      <point x="216" y="566" type="curve" smooth="yes"/>
      <point x="216" y="292" type="line"/>
      <point x="352" y="292" type="line"/>
    </contour>
    <contour>
      <point x="352" y="139" type="curve" smooth="yes"/>
      <point x="352" y="408" type="line"/>
      <point x="216" y="408" type="line"/>
      <point x="216" y="134" type="line" smooth="yes"/>
      <point x="216" y="130"/>
      <point x="215" y="129"/>
      <point x="211" y="129" type="curve" smooth="yes"/>
      <point x="161" y="129" type="line" smooth="yes"/>
      <point x="157" y="129"/>
      <point x="156" y="130"/>
      <point x="156" y="134" type="curve" smooth="yes"/>
      <point x="156" y="408" type="line"/>
      <point x="20" y="408" type="line"/>
      <point x="20" y="139" type="line" smooth="yes"/>
      <point x="20" y="37"/>
      <point x="61" y="-4"/>
      <point x="164" y="-4" type="curve" smooth="yes"/>
      <point x="208" y="-4" type="line" smooth="yes"/>
      <point x="311" y="-4"/>
      <point x="352" y="37"/>
    </contour>
    <contour>
      <point x="216" y="567" type="line"/>
      <point x="489" y="567" type="line"/>
      <point x="497" y="700" type="line"/>
      <point x="216" y="700" type="line"/>
    </contour>
    <contour>
      <point x="216" y="284" type="line"/>
      <point x="467" y="284" type="line"/>
      <point x="475" y="417" type="line"/>
      <point x="216" y="417" type="line"/>
    </contour>
    <contour>
      <point x="216" y="0" type="line"/>
      <point x="489" y="0" type="line"/>
      <point x="497" y="133" type="line"/>
      <point x="216" y="133" type="line"/>
    </contour>
  </outline>
</glyph>
<glyph name="oe" format="2">
  <advance width="568"/>
  <unicode hex="0153"/>
  <outline>
    <contour>
      <point x="352" y="135" type="curve" smooth="yes"/>
      <point x="352" y="249" type="line"/>
      <point x="216" y="249" type="line"/>
      <point x="216" y="130" type="line" smooth="yes"/>
      <point x="216" y="126"/>
      <point x="215" y="125"/>
      <point x="211" y="125" type="curve" smooth="yes"/>
      <point x="170" y="125" type="line"/>
      <point x="170" y="-8" type="line"/>
      <point x="208" y="-8" type="line" smooth="yes"/>
      <point x="311" y="-8"/>
      <point x="352" y="33"/>
    </contour>
    <contour>
      <point x="20" y="135" type="line" smooth="yes"/>
      <point x="20" y="32"/>
      <point x="61" y="-8"/>
      <point x="164" y="-8" type="curve" smooth="yes"/>
      <point x="202" y="-8" type="line"/>
      <point x="202" y="125" type="line"/>
      <point x="161" y="125" type="line" smooth="yes"/>
      <point x="157" y="125"/>
      <point x="156" y="126"/>
      <point x="156" y="130" type="curve" smooth="yes"/>
      <point x="156" y="249" type="line"/>
      <point x="20" y="249" type="line"/>
    </contour>
    <contour>
      <point x="352" y="357" type="line" smooth="yes"/>
      <point x="352" y="459"/>
      <point x="311" y="500"/>
      <point x="208" y="500" type="curve" smooth="yes"/>
      <point x="170" y="500" type="line"/>
      <point x="170" y="367" type="line"/>
      <point x="211" y="367" type="line" smooth="yes"/>
      <point x="215" y="367"/>
      <point x="216" y="366"/>
      <point x="216" y="362" type="curve" smooth="yes"/>
      <point x="216" y="249" type="line"/>
      <point x="352" y="249" type="line"/>
    </contour>
    <contour>
      <point x="20" y="357" type="curve" smooth="yes"/>
      <point x="20" y="249" type="line"/>
      <point x="156" y="249" type="line"/>
      <point x="156" y="362" type="line" smooth="yes"/>
      <point x="156" y="366"/>
      <point x="157" y="367"/>
      <point x="161" y="367" type="curve" smooth="yes"/>
      <point x="202" y="367" type="line"/>
      <point x="202" y="500" type="line"/>
      <point x="164" y="500" type="line" smooth="yes"/>
      <point x="61" y="500"/>
      <point x="20" y="459"/>
    </contour>
    <contour>
      <point x="548" y="135" type="curve" smooth="yes"/>
      <point x="548" y="163" type="line"/>
      <point x="412" y="163" type="line"/>
      <point x="412" y="130" type="line" smooth="yes"/>
      <point x="412" y="126"/>
      <point x="411" y="125"/>
      <point x="407" y="125" type="curve" smooth="yes"/>
      <point x="366" y="125" type="line"/>
      <point x="366" y="-8" type="line"/>
      <point x="404" y="-8" type="line" smooth="yes"/>
      <point x="507" y="-8"/>
      <point x="548" y="33"/>
    </contour>
    <contour>
      <point x="216" y="135" type="line" smooth="yes"/>
      <point x="216" y="32"/>
      <point x="257" y="-8"/>
      <point x="360" y="-8" type="curve" smooth="yes"/>
      <point x="398" y="-8" type="line"/>
      <point x="398" y="125" type="line"/>
      <point x="357" y="125" type="line" smooth="yes"/>
      <point x="353" y="125"/>
      <point x="352" y="126"/>
      <point x="352" y="130" type="curve" smooth="yes"/>
      <point x="352" y="254" type="line"/>
      <point x="216" y="254" type="line"/>
    </contour>
    <contour>
      <point x="548" y="357" type="line" smooth="yes"/>
      <point x="548" y="459"/>
      <point x="507" y="500"/>
      <point x="404" y="500" type="curve" smooth="yes"/>
      <point x="366" y="500" type="line"/>
      <point x="366" y="367" type="line"/>
      <point x="407" y="367" type="line" smooth="yes"/>
      <point x="411" y="367"/>
      <point x="412" y="366"/>
      <point x="412" y="362" type="curve" smooth="yes"/>
      <point x="412" y="207" type="line"/>
      <point x="548" y="207" type="line"/>
    </contour>
    <contour>
      <point x="548" y="297" type="line"/>
      <point x="216" y="297" type="line"/>
      <point x="216" y="184" type="line"/>
      <point x="548" y="184" type="line"/>
    </contour>
    <contour>
      <point x="216" y="357" type="curve" smooth="yes"/>
      <point x="216" y="254" type="line"/>
      <point x="352" y="254" type="line"/>
      <point x="352" y="362" type="line" smooth="yes"/>
      <point x="352" y="366"/>
      <point x="353" y="367"/>
      <point x="357" y="367" type="curve" smooth="yes"/>
      <point x="398" y="367" type="line"/>
      <point x="398" y="500" type="line"/>
      <point x="360" y="500" type="line" smooth="yes"/>
      <point x="257" y="500"/>
      <point x="216" y="459"/>
    </contour>
  </outline>
</glyph>
<glyph name="circumflex" format="2">
  <advance width="235"/>
  <unicode hex="02C6"/>
  <outline>
    <contour>
      <point x="135" y="730" type="line"/>
      <point x="215" y="730" type="line"/>
      <point x="173" y="824" type="line"/>
      <point x="93" y="824" type="line"/>
    </contour>
    <contour>
      <point x="20" y="730" type="line"/>
      <point x="100" y="730" type="line"/>
      <point x="142" y="824" type="line"/>
      <point x="62" y="824" type="line"/>
    </contour>
  </outline>
</glyph>
<glyph name="ring" format="2">
  <advance width="185"/>
  <unicode hex="02DA"/>
  <outline>
    <contour>
      <point x="92" y="716" type="curve" smooth="yes"/>
      <point x="133" y="716"/>
      <point x="165" y="747"/>
      <point x="165" y="787" type="curve" smooth="yes"/>
      <point x="165" y="827"/>
      <point x="133" y="859"/>
      <point x="92" y="859" type="curve" smooth="yes"/>
      <point x="52" y="859"/>
      <point x="20" y="827"/>
      <point x="20" y="787" type="curve" smooth="yes"/>
      <point x="20" y="747"/>
      <point x="52" y="716"/>
    </contour>
    <contour>
      <point x="92" y="768" type="curve" smooth="yes"/>
      <point x="82" y="768"/>
      <point x="74" y="776"/>
      <point x="74" y="787" type="curve" smooth="yes"/>
      <point x="74" y="799"/>
      <point x="82" y="808"/>
      <point x="92" y="807" type="curve" smooth="yes"/>
      <point x="103" y="807"/>
      <point x="111" y="798"/>
      <point x="111" y="787" type="curve" smooth="yes"/>
      <point x="111" y="776"/>
      <point x="103" y="768"/>
    </contour>
  </outline>
</glyph>
<glyph name="tilde" format="2">
  <advance width="226"/>
  <unicode hex="02DC"/>
  <outline>
    <contour>
      <point x="206" y="832" type="line"/>
      <point x="193" y="807"/>
      <point x="148" y="803"/>
      <point x="117" y="820" type="curve" smooth="yes"/>
      <point x="84" y="838"/>
      <point x="36" y="835"/>
      <point x="20" y="814" type="curve"/>
      <point x="20" y="728" type="line"/>
      <point x="35" y="752"/>
      <point x="79" y="756"/>
      <point x="109" y="740" type="curve" smooth="yes"/>
      <point x="143" y="721"/>
      <point x="191" y="723"/>
      <point x="206" y="746" type="curve"/>
    </contour>
  </outline>
</glyph>
<glyph name="hatafsegol-hb" format="2">
  <unicode hex="05B1"/>
  <anchor x="165" y="0" name="_bottom"/>
  <outline>
    <contour>
      <point x="260" y="-128" type="curve" smooth="yes"/>
      <point x="280" y="-128"/>
      <point x="296" y="-113"/>
      <point x="296" y="-92" type="curve" smooth="yes"/>
      <point x="296" y="-72"/>
      <point x="280" y="-56"/>
      <point x="260" y="-56" type="curve" smooth="yes"/>
      <point x="240" y="-56"/>
      <point x="224" y="-72"/>
      <point x="224" y="-92" type="curve" smooth="yes"/>
      <point x="224" y="-113"/>
      <point x="240" y="-128"/>
    </contour>
    <contour>
      <point x="102" y="-208" type="curve" smooth="yes"/>
      <point x="122" y="-208"/>
      <point x="138" y="-192"/>
      <point x="138" y="-172" type="curve" smooth="yes"/>
      <point x="138" y="-151"/>
      <point x="122" y="-136"/>
      <point x="102" y="-136" type="curve" smooth="yes"/>
      <point x="82" y="-136"/>
      <point x="66" y="-151"/>
      <point x="66" y="-172" type="curve" smooth="yes"/>
      <point x="66" y="-192"/>
      <point x="82" y="-208"/>
    </contour>
    <contour>
      <point x="56" y="-128" type="curve" smooth="yes"/>
      <point x="77" y="-128"/>
      <point x="92" y="-113"/>
      <point x="92" y="-92" type="curve" smooth="yes"/>
      <point x="92" y="-72"/>
      <point x="77" y="-56"/>
      <point x="56" y="-56" type="curve" smooth="yes"/>
      <point x="36" y="-56"/>
      <point x="20" y="-72"/>
      <point x="20" y="-92" type="curve" smooth="yes"/>
      <point x="20" y="-113"/>
      <point x="36" y="-128"/>
    </contour>
    <contour>
      <point x="148" y="-128" type="curve" smooth="yes"/>
      <point x="168" y="-128"/>
      <point x="184" y="-113"/>
      <point x="184" y="-92" type="curve" smooth="yes"/>
      <point x="184" y="-72"/>
      <point x="168" y="-56"/>
      <point x="148" y="-56" type="curve" smooth="yes"/>
      <point x="127" y="-56"/>
      <point x="112" y="-72"/>
      <point x="112" y="-92" type="curve" smooth="yes"/>
      <point x="112" y="-113"/>
      <point x="127" y="-128"/>
    </contour>
    <contour>
      <point x="260" y="-208" type="curve" smooth="yes"/>
      <point x="280" y="-208"/>
      <point x="296" y="-192"/>
      <point x="296" y="-172" type="curve" smooth="yes"/>
      <point x="296" y="-151"/>
      <point x="280" y="-136"/>
      <point x="260" y="-136" type="curve" smooth="yes"/>
      <point x="240" y="-136"/>
      <point x="224" y="-151"/>
      <point x="224" y="-172" type="curve" smooth="yes"/>
      <point x="224" y="-192"/>
      <point x="240" y="-208"/>
    </contour>
  </outline>
</glyph>
<glyph name="hatafpatah-hb" format="2">
  <unicode hex="05B2"/>
  <anchor x="152" y="0" name="_bottom"/>
  <outline>
    <contour>
      <point x="30" y="-118" type="line"/>
      <point x="187" y="-118" type="line"/>
      <point x="187" y="-56" type="line"/>
      <point x="30" y="-56" type="line"/>
    </contour>
    <contour>
      <point x="237" y="-216" type="curve" smooth="yes"/>
      <point x="257" y="-216"/>
      <point x="273" y="-200"/>
      <point x="273" y="-180" type="curve" smooth="yes"/>
      <point x="273" y="-159"/>
      <point x="257" y="-144"/>
      <point x="237" y="-144" type="curve" smooth="yes"/>
      <point x="217" y="-144"/>
      <point x="201" y="-159"/>
      <point x="201" y="-180" type="curve" smooth="yes"/>
      <point x="201" y="-200"/>
      <point x="217" y="-216"/>
    </contour>
    <contour>
      <point x="237" y="-124" type="curve" smooth="yes"/>
      <point x="257" y="-124"/>
      <point x="273" y="-109"/>
      <point x="273" y="-88" type="curve" smooth="yes"/>
      <point x="273" y="-68"/>
      <point x="257" y="-52"/>
      <point x="237" y="-52" type="curve" smooth="yes"/>
      <point x="217" y="-52"/>
      <point x="201" y="-68"/>
      <point x="201" y="-88" type="curve" smooth="yes"/>
      <point x="201" y="-109"/>
      <point x="217" y="-124"/>
    </contour>
  </outline>
</glyph>
<glyph name="hiriq-hb" format="2">
  <unicode hex="05B4"/>
  <anchor x="56" y="0" name="_bottom"/>
  <outline>
    <contour>
      <point x="56" y="-124" type="curve" smooth="yes"/>
      <point x="76" y="-124"/>
      <point x="92" y="-109"/>
      <point x="92" y="-88" type="curve" smooth="yes"/>
      <point x="92" y="-68"/>
      <point x="76" y="-52"/>
      <point x="56" y="-52" type="curve" smooth="yes"/>
      <point x="36" y="-52"/>
      <point x="20" y="-68"/>
      <point x="20" y="-88" type="curve" smooth="yes"/>
      <point x="20" y="-109"/>
      <point x="36" y="-124"/>
    </contour>
  </outline>
</glyph>
<glyph name="tsere-hb" format="2">
  <unicode hex="05B5"/>
  <anchor x="102" y="0" name="_bottom"/>
  <outline>
    <contour>
      <point x="148" y="-122" type="curve" smooth="yes"/>
      <point x="168" y="-122"/>
      <point x="184" y="-106"/>
      <point x="184" y="-86" type="curve" smooth="yes"/>
      <point x="184" y="-66"/>
      <point x="168" y="-50"/>
      <point x="148" y="-50" type="curve" smooth="yes"/>
      <point x="127" y="-50"/>
      <point x="112" y="-66"/>
      <point x="112" y="-86" type="curve" smooth="yes"/>
      <point x="112" y="-106"/>
      <point x="127" y="-122"/>
    </contour>
    <contour>
      <point x="56" y="-122" type="curve" smooth="yes"/>
      <point x="77" y="-122"/>
      <point x="92" y="-106"/>
      <point x="92" y="-86" type="curve" smooth="yes"/>
      <point x="92" y="-66"/>
      <point x="77" y="-50"/>
      <point x="56" y="-50" type="curve" smooth="yes"/>
      <point x="36" y="-50"/>
      <point x="20" y="-66"/>
      <point x="20" y="-86" type="curve" smooth="yes"/>
      <point x="20" y="-106"/>
      <point x="36" y="-122"/>
    </contour>
  </outline>
</glyph>
<glyph name="segol-hb" format="2">
  <unicode hex="05B6"/>
  <anchor x="108" y="0" name="_bottom"/>
  <outline>
    <contour>
      <point x="148" y="-128" type="curve" smooth="yes"/>
      <point x="168" y="-128"/>
      <point x="184" y="-113"/>
      <point x="184" y="-92" type="curve" smooth="yes"/>
      <point x="184" y="-72"/>
      <point x="168" y="-56"/>
      <point x="148" y="-56" type="curve" smooth="yes"/>
      <point x="127" y="-56"/>
      <point x="112" y="-72"/>
      <point x="112" y="-92" type="curve" smooth="yes"/>
      <point x="112" y="-113"/>
      <point x="127" y="-128"/>
    </contour>
    <contour>
      <point x="102" y="-208" type="curve" smooth="yes"/>
      <point x="122" y="-208"/>
      <point x="138" y="-192"/>
      <point x="138" y="-172" type="curve" smooth="yes"/>
      <point x="138" y="-151"/>
      <point x="122" y="-136"/>
      <point x="102" y="-136" type="curve" smooth="yes"/>
      <point x="82" y="-136"/>
      <point x="66" y="-151"/>
      <point x="66" y="-172" type="curve" smooth="yes"/>
      <point x="66" y="-192"/>
      <point x="82" y="-208"/>
    </contour>
    <contour>
      <point x="56" y="-128" type="curve" smooth="yes"/>
      <point x="77" y="-128"/>
      <point x="92" y="-113"/>
      <point x="92" y="-92" type="curve" smooth="yes"/>
      <point x="92" y="-72"/>
      <point x="77" y="-56"/>
      <point x="56" y="-56" type="curve" smooth="yes"/>
      <point x="36" y="-56"/>
      <point x="20" y="-72"/>
      <point x="20" y="-92" type="curve" smooth="yes"/>
      <point x="20" y="-113"/>
      <point x="36" y="-128"/>
    </contour>
  </outline>
</glyph>
<glyph name="patah-hb" format="2">
  <unicode hex="05B7"/>
  <anchor x="99" y="0" name="_bottom"/>
  <outline>
    <contour>
      <point x="20" y="-118" type="line"/>
      <point x="177" y="-118" type="line"/>
      <point x="177" y="-56" type="line"/>
      <point x="20" y="-56" type="line"/>
    </contour>
  </outline>
</glyph>
<glyph name="holam-hb" format="2">
  <unicode hex="05B9"/>
  <anchor x="0" y="500" name="_topleft"/>
  <outline>
    <contour>
      <point x="56" y="628" type="curve" smooth="yes"/>
      <point x="76" y="628"/>
      <point x="92" y="645"/>
      <point x="92" y="664" type="curve" smooth="yes"/>
      <point x="92" y="684"/>
      <point x="76" y="700"/>
      <point x="56" y="700" type="curve" smooth="yes"/>
      <point x="36" y="700"/>
      <point x="20" y="684"/>
      <point x="20" y="664" type="curve" smooth="yes"/>
      <point x="20" y="645"/>
      <point x="36" y="628"/>
    </contour>
  </outline>
</glyph>
<glyph name="qubuts-hb" format="2">
  <unicode hex="05BB"/>
  <anchor x="319" y="0" name="_bottom"/>
  <outline>
    <contour>
      <point x="357" y="-228" type="curve" smooth="yes"/>
      <point x="377" y="-228"/>
      <point x="393" y="-213"/>
      <point x="393" y="-192" type="curve" smooth="yes"/>
      <point x="393" y="-171"/>
      <point x="377" y="-156"/>
      <point x="357" y="-156" type="curve" smooth="yes"/>
      <point x="337" y="-156"/>
      <point x="321" y="-171"/>
      <point x="321" y="-192" type="curve" smooth="yes"/>
      <point x="321" y="-212"/>
      <point x="337" y="-228"/>
    </contour>
    <contour>
      <point x="237" y="-114" type="curve" smooth="yes"/>
      <point x="257" y="-114"/>
      <point x="273" y="-99"/>
      <point x="273" y="-78" type="curve" smooth="yes"/>
      <point x="273" y="-58"/>
      <point x="257" y="-42"/>
      <point x="237" y="-42" type="curve" smooth="yes"/>
      <point x="217" y="-42"/>
      <point x="201" y="-58"/>
      <point x="201" y="-78" type="curve" smooth="yes"/>
      <point x="201" y="-99"/>
      <point x="217" y="-114"/>
    </contour>
    <contour>
      <point x="297" y="-171" type="curve" smooth="yes"/>
      <point x="317" y="-171"/>
      <point x="333" y="-156"/>
      <point x="333" y="-135" type="curve" smooth="yes"/>
      <point x="333" y="-114"/>
      <point x="317" y="-99"/>
      <point x="297" y="-99" type="curve" smooth="yes"/>
      <point x="277" y="-99"/>
      <point x="261" y="-114"/>
      <point x="261" y="-135" type="curve" smooth="yes"/>
      <point x="261" y="-155"/>
      <point x="277" y="-171"/>
    </contour>
  </outline>
</glyph>
<glyph name="dagesh-hb" format="2">
  <unicode hex="05BC"/>
  <anchor x="46" y="300" name="_center"/>
  <outline>
    <contour>
      <point x="46" y="264" type="curve" smooth="yes"/>
      <point x="66" y="264"/>
      <point x="82" y="279"/>
      <point x="82" y="300" type="curve" smooth="yes"/>
      <point x="82" y="320"/>
      <point x="66" y="336"/>
      <point x="46" y="336" type="curve" smooth="yes"/>
      <point x="26" y="336"/>
      <point x="10" y="320"/>
      <point x="10" y="300" type="curve" smooth="yes"/>
      <point x="10" y="279"/>
      <point x="26" y="264"/>
    </contour>
  </outline>
</glyph>
<glyph name="rafe-hb" format="2">
  <unicode hex="05BF"/>
  <anchor x="101" y="500" name="_top"/>
  <outline>
    <contour>
      <point x="20" y="641" type="line"/>
      <point x="177" y="641" type="line"/>
      <point x="177" y="703" type="line"/>
      <point x="20" y="703" type="line"/>
    </contour>
  </outline>
</glyph>
<glyph name="shindot-hb" format="2">
  <unicode hex="05C1"/>
  <anchor x="63" y="600" name="_shin"/>
  <anchor x="71" y="500" name="_topright"/>
  <outline>
    <contour>
      <point x="50" y="628" type="curve" smooth="yes"/>
      <point x="70" y="628"/>
      <point x="86" y="645"/>
      <point x="86" y="664" type="curve" smooth="yes"/>
      <point x="86" y="684"/>
      <point x="70" y="700"/>
      <point x="50" y="700" type="curve" smooth="yes"/>
      <point x="30" y="700"/>
      <point x="14" y="684"/>
      <point x="14" y="664" type="curve" smooth="yes"/>
      <point x="14" y="645"/>
      <point x="30" y="628"/>
    </contour>
  </outline>
</glyph>
<glyph name="alef-hb" format="2">
  <advance width="443"/>
  <unicode hex="05D0"/>
  <note>
alefhebrew
</note>
  <anchor x="249" y="0" name="bottom"/>
  <anchor x="182" y="250" name="center"/>
  <anchor x="232" y="500" name="top"/>
  <anchor x="46" y="500" name="topleft"/>
  <outline>
    <contour>
      <point x="271" y="230" type="line"/>
      <point x="329" y="230" type="line" smooth="yes"/>
      <point x="385" y="230"/>
      <point x="423" y="267"/>
      <point x="423" y="323" type="curve" smooth="yes"/>
      <point x="423" y="600" type="line"/>
      <point x="302" y="600" type="line"/>
      <point x="302" y="358" type="line" smooth="yes"/>
      <point x="302" y="354"/>
      <point x="301" y="353"/>
      <point x="297" y="353" type="curve" smooth="yes"/>
      <point x="271" y="353" type="line"/>
    </contour>
    <contour>
      <point x="41" y="1" type="line"/>
      <point x="163" y="1" type="line"/>
      <point x="169" y="508" type="line"/>
      <point x="106" y="508" type="line"/>
      <point x="287" y="0" type="line"/>
      <point x="423" y="0" type="line"/>
      <point x="213" y="600" type="line"/>
      <point x="41" y="600" type="line"/>
    </contour>
    <contour>
      <point x="213" y="600" type="line"/>
      <point x="36" y="600" type="line"/>
      <point x="20" y="467" type="line"/>
      <point x="213" y="467" type="line"/>
    </contour>
    <contour>
      <point x="423" y="600" type="line"/>
      <point x="290" y="600" type="line"/>
      <point x="274" y="467" type="line"/>
      <point x="423" y="467" type="line"/>
    </contour>
  </outline>
</glyph>
<glyph name="bet-hb" format="2">
  <advance width="345"/>
  <unicode hex="05D1"/>
  <note>
bethebrew
</note>
  <anchor x="173" y="0" name="bottom"/>
  <anchor x="80" y="300" name="center"/>
  <anchor x="173" y="500" name="top"/>
  <anchor x="20" y="500" name="topleft"/>
  <outline>
    <contour>
      <point x="149" y="600" type="line"/>
      <point x="149" y="0" type="line"/>
      <point x="285" y="0" type="line"/>
      <point x="285" y="600" type="line"/>
    </contour>
    <contour>
      <point x="285" y="600" type="line"/>
      <point x="42" y="600" type="line"/>
      <point x="20" y="467" type="line"/>
      <point x="285" y="467" type="line"/>
    </contour>
    <contour>
      <point x="325" y="133" type="line"/>
      <point x="20" y="133" type="line"/>
      <point x="20" y="0" type="line"/>
      <point x="325" y="0" type="line"/>
    </contour>
  </outline>
</glyph>
<glyph name="gimel-hb" format="2">
  <advance width="301"/>
  <unicode hex="05D2"/>
  <note>
gimelhebrew
</note>
  <anchor x="147" y="0" name="bottom"/>
  <anchor x="94" y="404" name="center"/>
  <anchor x="147" y="500" name="top"/>
  <anchor x="13" y="500" name="topleft"/>
  <outline>
    <contour>
      <point x="281" y="600" type="line"/>
      <point x="61" y="600" type="line"/>
      <point x="39" y="467" type="line"/>
      <point x="281" y="467" type="line"/>
    </contour>
    <contour>
      <point x="157" y="600" type="line"/>
      <point x="157" y="0" type="line"/>
      <point x="281" y="0" type="line"/>
      <point x="281" y="600" type="line"/>
    </contour>
    <contour>
      <point x="281" y="236" type="line"/>
      <point x="281" y="359" type="line"/>
      <point x="114" y="359" type="line" smooth="yes"/>
      <point x="58" y="359"/>
      <point x="20" y="322"/>
      <point x="20" y="266" type="curve" smooth="yes"/>
      <point x="20" y="0" type="line"/>
      <point x="134" y="0" type="line"/>
      <point x="134" y="231" type="line" smooth="yes"/>
      <point x="134" y="235"/>
      <point x="135" y="236"/>
      <point x="139" y="236" type="curve" smooth="yes"/>
    </contour>
  </outline>
</glyph>
